<?xml version="1.0" encoding="UTF-8" standalone="no"?>
<!-- Created with Inkscape (http://www.inkscape.org/) -->

<svg
   width="8.2897463mm"
   height="9.2999191mm"
   viewBox="0 0 8.2897463 9.2999191"
   version="1.1"
   id="svg5"
   inkscape:version="1.2.1 (9c6d41e, 2022-07-14)"
   sodipodi:docname="choc_logoV1.svg"
   xmlns:inkscape="http://www.inkscape.org/namespaces/inkscape"
   xmlns:sodipodi="http://sodipodi.sourceforge.net/DTD/sodipodi-0.dtd"
   xmlns="http://www.w3.org/2000/svg"
   xmlns:svg="http://www.w3.org/2000/svg">
  <sodipodi:namedview
     id="namedview7"
     pagecolor="#ffffff"
     bordercolor="#000000"
     borderopacity="0.25"
     inkscape:showpageshadow="2"
     inkscape:pageopacity="0.0"
     inkscape:pagecheckerboard="0"
     inkscape:deskcolor="#d1d1d1"
     inkscape:document-units="mm"
     showgrid="false"
     inkscape:zoom="6.4500873"
     inkscape:cx="22.247761"
     inkscape:cy="4.8061365"
     inkscape:window-width="2560"
     inkscape:window-height="1306"
     inkscape:window-x="1728"
     inkscape:window-y="332"
     inkscape:window-maximized="0"
     inkscape:current-layer="layer1" />
  <defs
     id="defs2">
    <rect
       x="184.18355"
       y="298.1355"
       width="26.201197"
       height="20.309803"
       id="rect123" />
    <rect
       x="126.78898"
       y="327.90253"
       width="84.161652"
       height="111.48686"
       id="rect117" />
  </defs>
  <g
     inkscape:label="Layer 1"
     inkscape:groupmode="layer"
     id="layer1"
     transform="translate(-38.660115,-73.045299)">
    <g
       aria-label="Choc"
       transform="scale(0.92422423,1.0819885)"
       id="text63"
       style="font-size:4.84519px;stroke:#000000;stroke-width:0.403766;stroke-dasharray:0.403766, 1.2113">
      <path
         d="m 43.092833,71.4236 q -0.547506,0 -0.804301,-0.276176 -0.256795,-0.276176 -0.256795,-0.915741 0,-0.508745 0.169581,-1.095013 0.174427,-0.586268 0.552352,-1.002954 0.38277,-0.421532 0.969038,-0.421532 0.363389,0 0.586268,0.159892 0.222879,0.159891 0.222879,0.489364 0,0.208343 -0.08237,0.329473 -0.08237,0.116284 -0.256795,0.116284 -0.174427,0 -0.276176,-0.125975 0.08721,-0.04361 0.155046,-0.174426 0.06783,-0.130821 0.06783,-0.271331 0,-0.13082 -0.07268,-0.213188 -0.06783,-0.08237 -0.222879,-0.08237 -0.256795,0 -0.489364,0.353699 -0.232569,0.348854 -0.377925,0.881825 -0.140511,0.532971 -0.140511,1.02718 0,0.368235 0.125975,0.562042 0.125975,0.193808 0.455448,0.193808 0.285866,0 0.528126,-0.125975 0.242259,-0.125975 0.416686,-0.358544 l 0.11144,0.04845 q -0.12113,0.305247 -0.358544,0.508745 -0.237415,0.203498 -0.508745,0.300401 -0.271331,0.09206 -0.513591,0.09206 z"
         style="font-family:Lobster;-inkscape-font-specification:'Lobster, Normal'"
         id="path1002" />
      <path
         d="m 46.09685,71.375148 q -0.295557,0 -0.436067,-0.155046 -0.135665,-0.159891 -0.135665,-0.39246 0,-0.101749 0.02423,-0.227724 0.02423,-0.13082 0.04845,-0.25195 0.02907,-0.12113 0.03876,-0.155046 0.03876,-0.169582 0.07268,-0.334318 0.03392,-0.164737 0.03392,-0.266486 0,-0.247105 -0.174427,-0.247105 -0.125975,0 -0.222878,0.125975 -0.0969,0.12113 -0.155047,0.319783 l -0.329472,1.555306 h -0.697708 l 0.702553,-3.294729 0.717088,-0.0969 -0.26164,1.220988 q 0.242259,-0.271331 0.566887,-0.271331 0.247104,0 0.39246,0.135666 0.145356,0.135665 0.145356,0.411841 0,0.14051 -0.03392,0.314937 -0.03392,0.169582 -0.0969,0.416686 -0.03876,0.150201 -0.07268,0.295557 -0.02907,0.14051 -0.02907,0.222879 0,0.0969 0.04361,0.150201 0.04361,0.0533 0.150201,0.0533 0.145356,0 0.232569,-0.101749 0.08721,-0.106595 0.174427,-0.324628 h 0.203498 q -0.179272,0.532971 -0.416686,0.717088 -0.232569,0.179272 -0.484519,0.179272 z"
         style="font-family:Lobster;-inkscape-font-specification:'Lobster, Normal'"
         id="path1004" />
      <path
         d="m 47.501951,71.365458 q -0.358544,0 -0.566887,-0.184117 -0.208343,-0.184118 -0.208343,-0.581423 0,-0.329473 0.135665,-0.731624 0.135665,-0.402151 0.436067,-0.692862 0.300402,-0.295557 0.75585,-0.295557 0.620184,0 0.620184,0.775231 v 0.0048 q 0.01454,0.0048 0.0533,0.0048 0.159891,0 0.368235,-0.08237 0.208343,-0.08721 0.377924,-0.208343 l 0.04361,0.13082 q -0.14051,0.150201 -0.368234,0.256795 -0.222879,0.101749 -0.489365,0.145356 -0.03876,0.440912 -0.198652,0.770385 -0.159892,0.329473 -0.411841,0.508745 -0.25195,0.179272 -0.547507,0.179272 z m 0.193808,-0.436067 q 0.116284,0 0.232569,-0.130821 0.116284,-0.135665 0.203498,-0.363389 0.08721,-0.232569 0.125975,-0.51359 -0.13082,-0.02907 -0.13082,-0.203498 0,-0.198653 0.1502,-0.26164 -0.0097,-0.159891 -0.04845,-0.218034 -0.03876,-0.06299 -0.135666,-0.06299 -0.159891,0 -0.310092,0.232569 -0.150201,0.232569 -0.242259,0.557197 -0.09206,0.324628 -0.09206,0.571732 0,0.232569 0.0533,0.314938 0.0533,0.07752 0.193808,0.07752 z"
         style="font-family:Lobster;-inkscape-font-specification:'Lobster, Normal'"
         id="path1006" />
      <path
         d="m 49.575689,71.375148 q -0.353699,0 -0.552352,-0.184117 -0.198653,-0.188963 -0.198653,-0.586268 0,-0.334318 0.13082,-0.736469 0.135666,-0.402151 0.426377,-0.692862 0.295557,-0.295557 0.746159,-0.295557 0.295557,0 0.416687,0.125975 0.121129,0.125975 0.121129,0.324628 0,0.174427 -0.07752,0.26164 -0.07268,0.08721 -0.179272,0.08721 -0.09206,0 -0.169581,-0.05814 0.05814,-0.155046 0.05814,-0.285866 0,-0.198653 -0.13082,-0.198653 -0.145356,0 -0.290712,0.24226 -0.145355,0.237414 -0.242259,0.571732 -0.09206,0.329473 -0.09206,0.571733 0,0.40215 0.290712,0.40215 0.13082,0 0.290711,-0.07752 0.164737,-0.08237 0.290711,-0.188962 -0.13082,0.717088 -0.838217,0.717088 z"
         style="font-family:Lobster;-inkscape-font-specification:'Lobster, Normal'"
         id="path1008" />
    </g>
    <g
       transform="scale(0.26458333)"
       id="text115"
       style="white-space:pre;shape-inside:url(#rect117);stroke:#000000;stroke-dasharray:1, 3" />
    <g
       aria-label="2%"
       transform="matrix(0.50515158,0,0,0.45329592,-54.052961,-58.121456)"
       id="text121"
       style="font-size:12px;font-family:Lobster;-inkscape-font-specification:'Lobster, Normal';white-space:pre;shape-inside:url(#rect123);stroke:#000000;stroke-dasharray:1, 3">
      <path
         d="m 187.93959,309.37877 q -0.24,0 -0.504,-0.06 -0.252,-0.06 -0.624,-0.168 -0.444,-0.132 -0.732,-0.192 -0.288,-0.06 -0.6,-0.06 -0.672,0 -1.32,0.348 h -0.048 q -0.072,-0.288 -0.072,-0.564 0,-0.504 0.252,-0.984 0.264,-0.492 0.636,-0.9 0.372,-0.408 1.02,-1.044 0.684,-0.66 1.104,-1.128 0.42,-0.48 0.708,-1.044 0.288,-0.576 0.288,-1.2 0,-0.684 -0.228,-1.08 -0.216,-0.396 -0.672,-0.396 -0.42,0 -0.684,0.288 -0.264,0.276 -0.264,0.684 0,0.408 0.156,0.732 0.168,0.312 0.42,0.456 v 0.048 q -0.204,0.192 -0.444,0.3 -0.24,0.108 -0.468,0.108 -0.372,0 -0.624,-0.336 -0.24,-0.336 -0.24,-0.912 0,-0.504 0.288,-0.972 0.3,-0.468 0.876,-0.768 0.576,-0.3 1.356,-0.3 1.044,0 1.68,0.588 0.648,0.576 0.648,1.596 0,0.648 -0.336,1.2 -0.324,0.552 -0.804,0.984 -0.48,0.432 -1.284,1.044 -0.792,0.6 -1.26,1.032 -0.468,0.432 -0.72,0.912 0.348,-0.096 0.744,-0.096 0.288,0 0.6,0.048 0.312,0.048 0.588,0.108 0.048,0.012 0.312,0.072 0.276,0.048 0.492,0.048 0.324,0 0.6,-0.132 0.276,-0.144 0.576,-0.48 l 0.036,0.024 q 0.156,0.444 0.156,0.744 0,0.42 -0.228,0.756 -0.216,0.324 -0.588,0.516 -0.372,0.18 -0.792,0.18 z"
         id="path996" />
      <path
         d="m 192.05558,305.15477 q -1.368,0 -1.368,-1.788 0,-0.9 0.324,-1.656 0.324,-0.756 0.876,-1.188 0.564,-0.444 1.236,-0.444 0.696,0 1.044,0.456 0.348,0.444 0.348,1.332 0,0.888 -0.336,1.644 -0.324,0.756 -0.888,1.2 -0.564,0.444 -1.236,0.444 z m 0.168,-0.492 q 0.312,0 0.588,-0.444 0.276,-0.444 0.444,-1.176 0.168,-0.732 0.168,-1.572 0,-0.48 -0.084,-0.684 -0.084,-0.204 -0.288,-0.204 -0.3,0 -0.6,0.456 -0.288,0.444 -0.48,1.164 -0.18,0.72 -0.18,1.464 0,0.516 0.096,0.756 0.108,0.24 0.336,0.24 z m 4.884,-4.452 h 0.864 l -4.992,9.024 h -0.864 z m -0.048,9.096 q -1.368,0 -1.368,-1.788 0,-0.9 0.324,-1.656 0.324,-0.756 0.876,-1.188 0.564,-0.444 1.236,-0.444 0.696,0 1.044,0.456 0.348,0.444 0.348,1.332 0,0.888 -0.336,1.644 -0.324,0.756 -0.888,1.2 -0.564,0.444 -1.236,0.444 z m 0.168,-0.492 q 0.312,0 0.588,-0.444 0.276,-0.444 0.444,-1.176 0.168,-0.732 0.168,-1.572 0,-0.48 -0.084,-0.684 -0.084,-0.204 -0.288,-0.204 -0.3,0 -0.6,0.456 -0.288,0.444 -0.48,1.164 -0.18,0.72 -0.18,1.464 0,0.516 0.096,0.756 0.108,0.24 0.336,0.24 z"
         id="path998" />
    </g>
    <g
       id="text129"
       style="font-size:3.175px;font-family:Lobster;-inkscape-font-specification:'Lobster, Normal';stroke:#000000;stroke-width:0.264583;stroke-dasharray:0.264583, 0.79375" />
  </g>
</svg>
