%TF.GenerationSoftware,KiCad,Pcbnew,(7.0.0-0)*%
%TF.CreationDate,2023-02-20T11:28:14-08:00*%
%TF.ProjectId,choc_milk_keyboard,63686f63-5f6d-4696-9c6b-5f6b6579626f,rev?*%
%TF.SameCoordinates,Original*%
%TF.FileFunction,Soldermask,Top*%
%TF.FilePolarity,Negative*%
%FSLAX46Y46*%
G04 Gerber Fmt 4.6, Leading zero omitted, Abs format (unit mm)*
G04 Created by KiCad (PCBNEW (7.0.0-0)) date 2023-02-20 11:28:14*
%MOMM*%
%LPD*%
G01*
G04 APERTURE LIST*
%ADD10C,0.200000*%
%ADD11C,1.700000*%
%ADD12C,6.250000*%
%ADD13C,2.300000*%
%ADD14C,1.800000*%
%ADD15R,1.700000X1.700000*%
%ADD16O,1.700000X1.700000*%
%ADD17C,1.500000*%
%ADD18R,1.752600X1.752600*%
%ADD19C,1.752600*%
G04 APERTURE END LIST*
%TO.C,REF\u002A\u002A*%
G36*
X89226445Y-116982145D02*
G01*
X89232252Y-116982587D01*
X89237974Y-116983314D01*
X89243604Y-116984319D01*
X89249136Y-116985595D01*
X89254562Y-116987136D01*
X89259875Y-116988933D01*
X89265067Y-116990980D01*
X89270132Y-116993269D01*
X89275062Y-116995794D01*
X89279850Y-116998547D01*
X89284489Y-117001520D01*
X89288972Y-117004708D01*
X89293292Y-117008102D01*
X89297440Y-117011695D01*
X89301412Y-117015481D01*
X89305198Y-117019452D01*
X89308791Y-117023600D01*
X89312186Y-117027919D01*
X89315374Y-117032402D01*
X89318348Y-117037041D01*
X89321101Y-117041830D01*
X89323626Y-117046760D01*
X89325916Y-117051825D01*
X89327964Y-117057017D01*
X89329761Y-117062331D01*
X89331302Y-117067757D01*
X89332579Y-117073289D01*
X89333584Y-117078921D01*
X89334312Y-117084644D01*
X89334753Y-117090452D01*
X89334902Y-117096337D01*
X89334753Y-117102222D01*
X89334312Y-117108030D01*
X89333584Y-117113753D01*
X89332579Y-117119384D01*
X89331302Y-117124917D01*
X89329761Y-117130343D01*
X89327964Y-117135656D01*
X89325916Y-117140849D01*
X89323626Y-117145914D01*
X89321101Y-117150844D01*
X89318348Y-117155632D01*
X89315374Y-117160271D01*
X89312186Y-117164754D01*
X89308791Y-117169073D01*
X89305198Y-117173222D01*
X89301412Y-117177193D01*
X89297440Y-117180978D01*
X89293292Y-117184572D01*
X89288972Y-117187966D01*
X89284489Y-117191153D01*
X89279850Y-117194127D01*
X89275062Y-117196880D01*
X89270132Y-117199404D01*
X89265067Y-117201694D01*
X89259875Y-117203741D01*
X89254562Y-117205538D01*
X89249136Y-117207078D01*
X89243604Y-117208355D01*
X89237974Y-117209360D01*
X89232252Y-117210087D01*
X89226445Y-117210529D01*
X89220561Y-117210677D01*
X88789437Y-117210677D01*
X88783553Y-117210529D01*
X88777747Y-117210087D01*
X88772024Y-117209360D01*
X88766394Y-117208355D01*
X88760862Y-117207078D01*
X88755436Y-117205538D01*
X88750124Y-117203741D01*
X88744931Y-117201694D01*
X88739867Y-117199404D01*
X88734936Y-117196880D01*
X88730148Y-117194127D01*
X88725509Y-117191153D01*
X88721026Y-117187966D01*
X88716707Y-117184572D01*
X88712558Y-117180978D01*
X88708587Y-117177193D01*
X88704801Y-117173222D01*
X88701207Y-117169073D01*
X88697812Y-117164754D01*
X88694625Y-117160271D01*
X88691650Y-117155632D01*
X88688897Y-117150844D01*
X88686372Y-117145914D01*
X88684082Y-117140849D01*
X88682035Y-117135656D01*
X88680237Y-117130343D01*
X88678696Y-117124917D01*
X88677419Y-117119384D01*
X88676414Y-117113753D01*
X88675687Y-117108030D01*
X88675245Y-117102222D01*
X88675096Y-117096337D01*
X88675245Y-117090452D01*
X88675687Y-117084644D01*
X88676414Y-117078921D01*
X88677419Y-117073289D01*
X88678696Y-117067757D01*
X88680237Y-117062331D01*
X88682035Y-117057017D01*
X88684082Y-117051825D01*
X88686372Y-117046760D01*
X88688897Y-117041830D01*
X88691650Y-117037041D01*
X88694625Y-117032402D01*
X88697812Y-117027919D01*
X88701207Y-117023600D01*
X88704801Y-117019452D01*
X88708587Y-117015481D01*
X88712558Y-117011695D01*
X88716707Y-117008102D01*
X88721026Y-117004708D01*
X88725509Y-117001520D01*
X88730148Y-116998547D01*
X88734936Y-116995794D01*
X88739867Y-116993269D01*
X88744931Y-116990980D01*
X88750124Y-116988933D01*
X88755436Y-116987136D01*
X88760862Y-116985595D01*
X88766394Y-116984319D01*
X88772024Y-116983314D01*
X88777747Y-116982587D01*
X88783553Y-116982145D01*
X88789437Y-116981996D01*
X89220561Y-116981996D01*
X89226445Y-116982145D01*
G37*
D10*
X89226445Y-116982145D02*
X89232252Y-116982587D01*
X89237974Y-116983314D01*
X89243604Y-116984319D01*
X89249136Y-116985595D01*
X89254562Y-116987136D01*
X89259875Y-116988933D01*
X89265067Y-116990980D01*
X89270132Y-116993269D01*
X89275062Y-116995794D01*
X89279850Y-116998547D01*
X89284489Y-117001520D01*
X89288972Y-117004708D01*
X89293292Y-117008102D01*
X89297440Y-117011695D01*
X89301412Y-117015481D01*
X89305198Y-117019452D01*
X89308791Y-117023600D01*
X89312186Y-117027919D01*
X89315374Y-117032402D01*
X89318348Y-117037041D01*
X89321101Y-117041830D01*
X89323626Y-117046760D01*
X89325916Y-117051825D01*
X89327964Y-117057017D01*
X89329761Y-117062331D01*
X89331302Y-117067757D01*
X89332579Y-117073289D01*
X89333584Y-117078921D01*
X89334312Y-117084644D01*
X89334753Y-117090452D01*
X89334902Y-117096337D01*
X89334753Y-117102222D01*
X89334312Y-117108030D01*
X89333584Y-117113753D01*
X89332579Y-117119384D01*
X89331302Y-117124917D01*
X89329761Y-117130343D01*
X89327964Y-117135656D01*
X89325916Y-117140849D01*
X89323626Y-117145914D01*
X89321101Y-117150844D01*
X89318348Y-117155632D01*
X89315374Y-117160271D01*
X89312186Y-117164754D01*
X89308791Y-117169073D01*
X89305198Y-117173222D01*
X89301412Y-117177193D01*
X89297440Y-117180978D01*
X89293292Y-117184572D01*
X89288972Y-117187966D01*
X89284489Y-117191153D01*
X89279850Y-117194127D01*
X89275062Y-117196880D01*
X89270132Y-117199404D01*
X89265067Y-117201694D01*
X89259875Y-117203741D01*
X89254562Y-117205538D01*
X89249136Y-117207078D01*
X89243604Y-117208355D01*
X89237974Y-117209360D01*
X89232252Y-117210087D01*
X89226445Y-117210529D01*
X89220561Y-117210677D01*
X88789437Y-117210677D01*
X88783553Y-117210529D01*
X88777747Y-117210087D01*
X88772024Y-117209360D01*
X88766394Y-117208355D01*
X88760862Y-117207078D01*
X88755436Y-117205538D01*
X88750124Y-117203741D01*
X88744931Y-117201694D01*
X88739867Y-117199404D01*
X88734936Y-117196880D01*
X88730148Y-117194127D01*
X88725509Y-117191153D01*
X88721026Y-117187966D01*
X88716707Y-117184572D01*
X88712558Y-117180978D01*
X88708587Y-117177193D01*
X88704801Y-117173222D01*
X88701207Y-117169073D01*
X88697812Y-117164754D01*
X88694625Y-117160271D01*
X88691650Y-117155632D01*
X88688897Y-117150844D01*
X88686372Y-117145914D01*
X88684082Y-117140849D01*
X88682035Y-117135656D01*
X88680237Y-117130343D01*
X88678696Y-117124917D01*
X88677419Y-117119384D01*
X88676414Y-117113753D01*
X88675687Y-117108030D01*
X88675245Y-117102222D01*
X88675096Y-117096337D01*
X88675245Y-117090452D01*
X88675687Y-117084644D01*
X88676414Y-117078921D01*
X88677419Y-117073289D01*
X88678696Y-117067757D01*
X88680237Y-117062331D01*
X88682035Y-117057017D01*
X88684082Y-117051825D01*
X88686372Y-117046760D01*
X88688897Y-117041830D01*
X88691650Y-117037041D01*
X88694625Y-117032402D01*
X88697812Y-117027919D01*
X88701207Y-117023600D01*
X88704801Y-117019452D01*
X88708587Y-117015481D01*
X88712558Y-117011695D01*
X88716707Y-117008102D01*
X88721026Y-117004708D01*
X88725509Y-117001520D01*
X88730148Y-116998547D01*
X88734936Y-116995794D01*
X88739867Y-116993269D01*
X88744931Y-116990980D01*
X88750124Y-116988933D01*
X88755436Y-116987136D01*
X88760862Y-116985595D01*
X88766394Y-116984319D01*
X88772024Y-116983314D01*
X88777747Y-116982587D01*
X88783553Y-116982145D01*
X88789437Y-116981996D01*
X89220561Y-116981996D01*
X89226445Y-116982145D01*
G36*
X88065523Y-116181478D02*
G01*
X88065671Y-116175593D01*
X88066112Y-116169787D01*
X88066837Y-116164065D01*
X88067840Y-116158436D01*
X88069114Y-116152907D01*
X88070651Y-116147484D01*
X88072445Y-116142175D01*
X88074488Y-116136987D01*
X88076772Y-116131927D01*
X88079292Y-116127002D01*
X88082040Y-116122219D01*
X88085008Y-116117586D01*
X88088190Y-116113110D01*
X88091578Y-116108796D01*
X88095166Y-116104654D01*
X88098945Y-116100690D01*
X88102910Y-116096911D01*
X88107053Y-116093323D01*
X88111366Y-116089936D01*
X88115843Y-116086754D01*
X88120476Y-116083786D01*
X88125259Y-116081039D01*
X88130184Y-116078520D01*
X88135243Y-116076235D01*
X88140431Y-116074193D01*
X88145740Y-116072400D01*
X88151162Y-116070863D01*
X88156691Y-116069590D01*
X88162319Y-116068587D01*
X88168039Y-116067862D01*
X88173844Y-116067421D01*
X88179728Y-116067273D01*
X89830273Y-116067273D01*
X89836156Y-116067421D01*
X89841962Y-116067862D01*
X89847682Y-116068587D01*
X89853310Y-116069590D01*
X89858839Y-116070863D01*
X89864261Y-116072400D01*
X89869570Y-116074193D01*
X89874757Y-116076235D01*
X89879817Y-116078520D01*
X89884742Y-116081039D01*
X89889525Y-116083786D01*
X89894158Y-116086754D01*
X89898635Y-116089936D01*
X89902948Y-116093323D01*
X89907091Y-116096911D01*
X89911055Y-116100690D01*
X89914835Y-116104654D01*
X89918422Y-116108796D01*
X89921811Y-116113110D01*
X89924993Y-116117586D01*
X89927961Y-116122219D01*
X89930709Y-116127002D01*
X89933228Y-116131927D01*
X89935513Y-116136987D01*
X89937556Y-116142175D01*
X89939350Y-116147484D01*
X89940887Y-116152907D01*
X89942161Y-116158436D01*
X89943164Y-116164065D01*
X89943889Y-116169787D01*
X89944329Y-116175593D01*
X89944478Y-116181478D01*
X89944478Y-116638814D01*
X89944329Y-116644700D01*
X89943889Y-116650511D01*
X89943164Y-116656240D01*
X89942161Y-116661878D01*
X89940887Y-116667419D01*
X89939350Y-116672856D01*
X89937556Y-116678180D01*
X89935513Y-116683386D01*
X89933228Y-116688465D01*
X89930709Y-116693410D01*
X89927961Y-116698214D01*
X89924993Y-116702869D01*
X89921811Y-116707369D01*
X89918422Y-116711706D01*
X89914835Y-116715872D01*
X89911055Y-116719861D01*
X89907091Y-116723664D01*
X89902948Y-116727275D01*
X89898635Y-116730687D01*
X89894158Y-116733891D01*
X89889525Y-116736881D01*
X89884742Y-116739650D01*
X89879817Y-116742190D01*
X89874757Y-116744493D01*
X89869570Y-116746553D01*
X89864261Y-116748361D01*
X89858839Y-116749912D01*
X89853310Y-116751197D01*
X89847682Y-116752209D01*
X89841962Y-116752942D01*
X89836156Y-116753386D01*
X89830273Y-116753536D01*
X89792033Y-116753536D01*
X89792033Y-117069279D01*
X90483980Y-118440255D01*
X90499491Y-118472663D01*
X90514511Y-118507349D01*
X90528969Y-118544021D01*
X90542796Y-118582387D01*
X90555920Y-118622155D01*
X90568272Y-118663034D01*
X90579781Y-118704730D01*
X90590377Y-118746952D01*
X90599990Y-118789409D01*
X90608549Y-118831808D01*
X90615985Y-118873857D01*
X90622226Y-118915265D01*
X90627202Y-118955739D01*
X90630844Y-118994988D01*
X90633080Y-119032719D01*
X90633842Y-119068640D01*
X90633842Y-122813115D01*
X90633295Y-122834657D01*
X90631675Y-122855922D01*
X90629006Y-122876883D01*
X90625316Y-122897514D01*
X90620630Y-122917789D01*
X90614976Y-122937679D01*
X90608380Y-122957159D01*
X90600868Y-122976202D01*
X90592466Y-122994781D01*
X90583203Y-123012870D01*
X90573103Y-123030441D01*
X90562193Y-123047469D01*
X90550500Y-123063926D01*
X90538050Y-123079786D01*
X90524870Y-123095022D01*
X90510986Y-123109608D01*
X90496425Y-123123516D01*
X90481213Y-123136721D01*
X90465377Y-123149195D01*
X90448943Y-123160911D01*
X90431938Y-123171844D01*
X90414388Y-123181965D01*
X90396319Y-123191250D01*
X90377759Y-123199671D01*
X90358733Y-123207200D01*
X90339268Y-123213813D01*
X90319391Y-123219481D01*
X90299128Y-123224179D01*
X90278505Y-123227879D01*
X90257550Y-123230555D01*
X90236288Y-123232180D01*
X90214746Y-123232727D01*
X87795255Y-123232727D01*
X87773713Y-123232180D01*
X87752451Y-123230555D01*
X87731496Y-123227879D01*
X87710873Y-123224179D01*
X87690610Y-123219481D01*
X87670733Y-123213813D01*
X87651268Y-123207200D01*
X87632242Y-123199671D01*
X87613682Y-123191250D01*
X87595613Y-123181965D01*
X87578063Y-123171844D01*
X87561058Y-123160911D01*
X87544624Y-123149195D01*
X87528787Y-123136721D01*
X87513576Y-123123516D01*
X87499014Y-123109608D01*
X87485131Y-123095022D01*
X87471951Y-123079786D01*
X87459501Y-123063926D01*
X87447808Y-123047469D01*
X87436898Y-123030441D01*
X87426798Y-123012870D01*
X87417534Y-122994781D01*
X87409133Y-122976202D01*
X87401621Y-122957159D01*
X87395025Y-122937679D01*
X87389371Y-122917789D01*
X87384685Y-122897514D01*
X87380995Y-122876883D01*
X87378326Y-122855922D01*
X87376705Y-122834657D01*
X87376159Y-122813115D01*
X87376159Y-119068640D01*
X87376920Y-119032716D01*
X87379157Y-118994983D01*
X87382798Y-118955734D01*
X87387775Y-118915259D01*
X87394016Y-118873851D01*
X87401451Y-118831801D01*
X87410011Y-118789403D01*
X87419624Y-118746947D01*
X87430220Y-118704725D01*
X87441729Y-118663030D01*
X87454081Y-118622152D01*
X87467205Y-118582385D01*
X87481032Y-118544020D01*
X87495490Y-118507348D01*
X87510510Y-118472663D01*
X87526021Y-118440255D01*
X87743281Y-118009790D01*
X87998860Y-118009790D01*
X88014046Y-118014993D01*
X88028685Y-118020552D01*
X88042801Y-118026433D01*
X88056418Y-118032605D01*
X88069560Y-118039034D01*
X88082249Y-118045686D01*
X88094511Y-118052530D01*
X88106369Y-118059532D01*
X88117847Y-118066659D01*
X88128968Y-118073877D01*
X88150237Y-118088459D01*
X88170366Y-118103014D01*
X88189546Y-118117277D01*
X88214274Y-118135601D01*
X88238170Y-118152334D01*
X88250095Y-118160022D01*
X88262159Y-118167213D01*
X88274478Y-118173875D01*
X88287167Y-118179976D01*
X88300342Y-118185481D01*
X88314119Y-118190359D01*
X88328613Y-118194577D01*
X88343940Y-118198101D01*
X88360215Y-118200900D01*
X88377555Y-118202939D01*
X88396074Y-118204187D01*
X88415889Y-118204610D01*
X88435698Y-118204187D01*
X88454201Y-118202939D01*
X88471515Y-118200900D01*
X88487758Y-118198101D01*
X88503045Y-118194577D01*
X88517496Y-118190359D01*
X88531226Y-118185481D01*
X88544352Y-118179976D01*
X88556993Y-118173875D01*
X88569266Y-118167213D01*
X88581286Y-118160022D01*
X88593172Y-118152334D01*
X88605041Y-118144183D01*
X88617010Y-118135601D01*
X88641715Y-118117277D01*
X88672465Y-118094570D01*
X88705828Y-118071545D01*
X88723735Y-118060236D01*
X88742592Y-118049234D01*
X88762495Y-118038669D01*
X88783545Y-118028668D01*
X88805838Y-118019361D01*
X88829474Y-118010877D01*
X88854551Y-118003345D01*
X88881168Y-117996893D01*
X88909423Y-117991651D01*
X88939414Y-117987747D01*
X88971241Y-117985310D01*
X89005000Y-117984469D01*
X89022127Y-117984682D01*
X89038758Y-117985309D01*
X89054905Y-117986336D01*
X89070582Y-117987746D01*
X89085800Y-117989522D01*
X89100572Y-117991649D01*
X89114910Y-117994111D01*
X89128826Y-117996891D01*
X89142333Y-117999973D01*
X89155443Y-118003342D01*
X89180520Y-118010873D01*
X89204157Y-118019356D01*
X89226451Y-118028662D01*
X89247501Y-118038662D01*
X89267405Y-118049228D01*
X89286262Y-118060229D01*
X89304171Y-118071539D01*
X89321229Y-118083027D01*
X89337535Y-118094566D01*
X89368286Y-118117277D01*
X89393010Y-118135597D01*
X89416905Y-118152327D01*
X89428831Y-118160015D01*
X89440896Y-118167206D01*
X89453216Y-118173869D01*
X89465907Y-118179970D01*
X89479083Y-118185476D01*
X89492861Y-118190355D01*
X89507356Y-118194574D01*
X89522684Y-118198099D01*
X89538959Y-118200898D01*
X89556298Y-118202939D01*
X89574816Y-118204187D01*
X89594628Y-118204610D01*
X89614435Y-118204187D01*
X89632937Y-118202939D01*
X89650250Y-118200898D01*
X89666493Y-118198099D01*
X89681781Y-118194574D01*
X89696232Y-118190355D01*
X89709963Y-118185476D01*
X89723092Y-118179970D01*
X89735734Y-118173869D01*
X89748007Y-118167206D01*
X89760029Y-118160015D01*
X89771916Y-118152327D01*
X89783784Y-118144177D01*
X89795753Y-118135597D01*
X89820454Y-118117277D01*
X89839631Y-118103014D01*
X89859759Y-118088459D01*
X89881030Y-118073877D01*
X89903632Y-118059532D01*
X89915491Y-118052530D01*
X89927754Y-118045686D01*
X89940445Y-118039034D01*
X89953587Y-118032605D01*
X89967204Y-118026433D01*
X89981319Y-118020552D01*
X89995957Y-118014993D01*
X90011141Y-118009790D01*
X89576025Y-117147827D01*
X89574557Y-117144811D01*
X89573176Y-117141754D01*
X89571885Y-117138659D01*
X89570685Y-117135529D01*
X89569575Y-117132367D01*
X89568557Y-117129174D01*
X89567631Y-117125954D01*
X89566799Y-117122709D01*
X89566062Y-117119442D01*
X89565420Y-117116154D01*
X89564875Y-117112849D01*
X89564426Y-117109529D01*
X89564076Y-117106197D01*
X89563825Y-117102855D01*
X89563673Y-117099505D01*
X89563623Y-117096151D01*
X89563623Y-116753536D01*
X88446378Y-116753536D01*
X88446378Y-117096151D01*
X88446327Y-117099505D01*
X88446176Y-117102855D01*
X88445925Y-117106197D01*
X88445574Y-117109529D01*
X88445126Y-117112849D01*
X88444580Y-117116154D01*
X88443938Y-117119442D01*
X88443201Y-117122709D01*
X88442369Y-117125954D01*
X88441444Y-117129174D01*
X88440426Y-117132367D01*
X88439316Y-117135529D01*
X88438115Y-117138659D01*
X88436824Y-117141754D01*
X88435444Y-117144811D01*
X88433976Y-117147827D01*
X87998860Y-118009790D01*
X87743281Y-118009790D01*
X88217968Y-117069279D01*
X88217968Y-116753536D01*
X88179728Y-116753536D01*
X88173844Y-116753386D01*
X88168039Y-116752942D01*
X88162319Y-116752209D01*
X88156691Y-116751197D01*
X88151162Y-116749912D01*
X88145740Y-116748361D01*
X88140431Y-116746553D01*
X88135243Y-116744493D01*
X88130184Y-116742190D01*
X88125259Y-116739650D01*
X88120476Y-116736881D01*
X88115843Y-116733891D01*
X88111366Y-116730687D01*
X88107053Y-116727275D01*
X88102910Y-116723664D01*
X88098945Y-116719861D01*
X88095166Y-116715872D01*
X88091578Y-116711706D01*
X88088190Y-116707369D01*
X88085008Y-116702869D01*
X88082040Y-116698214D01*
X88079292Y-116693410D01*
X88076772Y-116688465D01*
X88074488Y-116683386D01*
X88072445Y-116678180D01*
X88070651Y-116672856D01*
X88069114Y-116667419D01*
X88067840Y-116661878D01*
X88066837Y-116656240D01*
X88066112Y-116650511D01*
X88065671Y-116644700D01*
X88065523Y-116638814D01*
X88065523Y-116524609D01*
X88065523Y-116296200D01*
X88293933Y-116296200D01*
X88293933Y-116524609D01*
X89716068Y-116524609D01*
X89716068Y-116296200D01*
X88293933Y-116296200D01*
X88065523Y-116296200D01*
X88065523Y-116181478D01*
G37*
X88065523Y-116181478D02*
X88065671Y-116175593D01*
X88066112Y-116169787D01*
X88066837Y-116164065D01*
X88067840Y-116158436D01*
X88069114Y-116152907D01*
X88070651Y-116147484D01*
X88072445Y-116142175D01*
X88074488Y-116136987D01*
X88076772Y-116131927D01*
X88079292Y-116127002D01*
X88082040Y-116122219D01*
X88085008Y-116117586D01*
X88088190Y-116113110D01*
X88091578Y-116108796D01*
X88095166Y-116104654D01*
X88098945Y-116100690D01*
X88102910Y-116096911D01*
X88107053Y-116093323D01*
X88111366Y-116089936D01*
X88115843Y-116086754D01*
X88120476Y-116083786D01*
X88125259Y-116081039D01*
X88130184Y-116078520D01*
X88135243Y-116076235D01*
X88140431Y-116074193D01*
X88145740Y-116072400D01*
X88151162Y-116070863D01*
X88156691Y-116069590D01*
X88162319Y-116068587D01*
X88168039Y-116067862D01*
X88173844Y-116067421D01*
X88179728Y-116067273D01*
X89830273Y-116067273D01*
X89836156Y-116067421D01*
X89841962Y-116067862D01*
X89847682Y-116068587D01*
X89853310Y-116069590D01*
X89858839Y-116070863D01*
X89864261Y-116072400D01*
X89869570Y-116074193D01*
X89874757Y-116076235D01*
X89879817Y-116078520D01*
X89884742Y-116081039D01*
X89889525Y-116083786D01*
X89894158Y-116086754D01*
X89898635Y-116089936D01*
X89902948Y-116093323D01*
X89907091Y-116096911D01*
X89911055Y-116100690D01*
X89914835Y-116104654D01*
X89918422Y-116108796D01*
X89921811Y-116113110D01*
X89924993Y-116117586D01*
X89927961Y-116122219D01*
X89930709Y-116127002D01*
X89933228Y-116131927D01*
X89935513Y-116136987D01*
X89937556Y-116142175D01*
X89939350Y-116147484D01*
X89940887Y-116152907D01*
X89942161Y-116158436D01*
X89943164Y-116164065D01*
X89943889Y-116169787D01*
X89944329Y-116175593D01*
X89944478Y-116181478D01*
X89944478Y-116638814D01*
X89944329Y-116644700D01*
X89943889Y-116650511D01*
X89943164Y-116656240D01*
X89942161Y-116661878D01*
X89940887Y-116667419D01*
X89939350Y-116672856D01*
X89937556Y-116678180D01*
X89935513Y-116683386D01*
X89933228Y-116688465D01*
X89930709Y-116693410D01*
X89927961Y-116698214D01*
X89924993Y-116702869D01*
X89921811Y-116707369D01*
X89918422Y-116711706D01*
X89914835Y-116715872D01*
X89911055Y-116719861D01*
X89907091Y-116723664D01*
X89902948Y-116727275D01*
X89898635Y-116730687D01*
X89894158Y-116733891D01*
X89889525Y-116736881D01*
X89884742Y-116739650D01*
X89879817Y-116742190D01*
X89874757Y-116744493D01*
X89869570Y-116746553D01*
X89864261Y-116748361D01*
X89858839Y-116749912D01*
X89853310Y-116751197D01*
X89847682Y-116752209D01*
X89841962Y-116752942D01*
X89836156Y-116753386D01*
X89830273Y-116753536D01*
X89792033Y-116753536D01*
X89792033Y-117069279D01*
X90483980Y-118440255D01*
X90499491Y-118472663D01*
X90514511Y-118507349D01*
X90528969Y-118544021D01*
X90542796Y-118582387D01*
X90555920Y-118622155D01*
X90568272Y-118663034D01*
X90579781Y-118704730D01*
X90590377Y-118746952D01*
X90599990Y-118789409D01*
X90608549Y-118831808D01*
X90615985Y-118873857D01*
X90622226Y-118915265D01*
X90627202Y-118955739D01*
X90630844Y-118994988D01*
X90633080Y-119032719D01*
X90633842Y-119068640D01*
X90633842Y-122813115D01*
X90633295Y-122834657D01*
X90631675Y-122855922D01*
X90629006Y-122876883D01*
X90625316Y-122897514D01*
X90620630Y-122917789D01*
X90614976Y-122937679D01*
X90608380Y-122957159D01*
X90600868Y-122976202D01*
X90592466Y-122994781D01*
X90583203Y-123012870D01*
X90573103Y-123030441D01*
X90562193Y-123047469D01*
X90550500Y-123063926D01*
X90538050Y-123079786D01*
X90524870Y-123095022D01*
X90510986Y-123109608D01*
X90496425Y-123123516D01*
X90481213Y-123136721D01*
X90465377Y-123149195D01*
X90448943Y-123160911D01*
X90431938Y-123171844D01*
X90414388Y-123181965D01*
X90396319Y-123191250D01*
X90377759Y-123199671D01*
X90358733Y-123207200D01*
X90339268Y-123213813D01*
X90319391Y-123219481D01*
X90299128Y-123224179D01*
X90278505Y-123227879D01*
X90257550Y-123230555D01*
X90236288Y-123232180D01*
X90214746Y-123232727D01*
X87795255Y-123232727D01*
X87773713Y-123232180D01*
X87752451Y-123230555D01*
X87731496Y-123227879D01*
X87710873Y-123224179D01*
X87690610Y-123219481D01*
X87670733Y-123213813D01*
X87651268Y-123207200D01*
X87632242Y-123199671D01*
X87613682Y-123191250D01*
X87595613Y-123181965D01*
X87578063Y-123171844D01*
X87561058Y-123160911D01*
X87544624Y-123149195D01*
X87528787Y-123136721D01*
X87513576Y-123123516D01*
X87499014Y-123109608D01*
X87485131Y-123095022D01*
X87471951Y-123079786D01*
X87459501Y-123063926D01*
X87447808Y-123047469D01*
X87436898Y-123030441D01*
X87426798Y-123012870D01*
X87417534Y-122994781D01*
X87409133Y-122976202D01*
X87401621Y-122957159D01*
X87395025Y-122937679D01*
X87389371Y-122917789D01*
X87384685Y-122897514D01*
X87380995Y-122876883D01*
X87378326Y-122855922D01*
X87376705Y-122834657D01*
X87376159Y-122813115D01*
X87376159Y-119068640D01*
X87376920Y-119032716D01*
X87379157Y-118994983D01*
X87382798Y-118955734D01*
X87387775Y-118915259D01*
X87394016Y-118873851D01*
X87401451Y-118831801D01*
X87410011Y-118789403D01*
X87419624Y-118746947D01*
X87430220Y-118704725D01*
X87441729Y-118663030D01*
X87454081Y-118622152D01*
X87467205Y-118582385D01*
X87481032Y-118544020D01*
X87495490Y-118507348D01*
X87510510Y-118472663D01*
X87526021Y-118440255D01*
X87743281Y-118009790D01*
X87998860Y-118009790D01*
X88014046Y-118014993D01*
X88028685Y-118020552D01*
X88042801Y-118026433D01*
X88056418Y-118032605D01*
X88069560Y-118039034D01*
X88082249Y-118045686D01*
X88094511Y-118052530D01*
X88106369Y-118059532D01*
X88117847Y-118066659D01*
X88128968Y-118073877D01*
X88150237Y-118088459D01*
X88170366Y-118103014D01*
X88189546Y-118117277D01*
X88214274Y-118135601D01*
X88238170Y-118152334D01*
X88250095Y-118160022D01*
X88262159Y-118167213D01*
X88274478Y-118173875D01*
X88287167Y-118179976D01*
X88300342Y-118185481D01*
X88314119Y-118190359D01*
X88328613Y-118194577D01*
X88343940Y-118198101D01*
X88360215Y-118200900D01*
X88377555Y-118202939D01*
X88396074Y-118204187D01*
X88415889Y-118204610D01*
X88435698Y-118204187D01*
X88454201Y-118202939D01*
X88471515Y-118200900D01*
X88487758Y-118198101D01*
X88503045Y-118194577D01*
X88517496Y-118190359D01*
X88531226Y-118185481D01*
X88544352Y-118179976D01*
X88556993Y-118173875D01*
X88569266Y-118167213D01*
X88581286Y-118160022D01*
X88593172Y-118152334D01*
X88605041Y-118144183D01*
X88617010Y-118135601D01*
X88641715Y-118117277D01*
X88672465Y-118094570D01*
X88705828Y-118071545D01*
X88723735Y-118060236D01*
X88742592Y-118049234D01*
X88762495Y-118038669D01*
X88783545Y-118028668D01*
X88805838Y-118019361D01*
X88829474Y-118010877D01*
X88854551Y-118003345D01*
X88881168Y-117996893D01*
X88909423Y-117991651D01*
X88939414Y-117987747D01*
X88971241Y-117985310D01*
X89005000Y-117984469D01*
X89022127Y-117984682D01*
X89038758Y-117985309D01*
X89054905Y-117986336D01*
X89070582Y-117987746D01*
X89085800Y-117989522D01*
X89100572Y-117991649D01*
X89114910Y-117994111D01*
X89128826Y-117996891D01*
X89142333Y-117999973D01*
X89155443Y-118003342D01*
X89180520Y-118010873D01*
X89204157Y-118019356D01*
X89226451Y-118028662D01*
X89247501Y-118038662D01*
X89267405Y-118049228D01*
X89286262Y-118060229D01*
X89304171Y-118071539D01*
X89321229Y-118083027D01*
X89337535Y-118094566D01*
X89368286Y-118117277D01*
X89393010Y-118135597D01*
X89416905Y-118152327D01*
X89428831Y-118160015D01*
X89440896Y-118167206D01*
X89453216Y-118173869D01*
X89465907Y-118179970D01*
X89479083Y-118185476D01*
X89492861Y-118190355D01*
X89507356Y-118194574D01*
X89522684Y-118198099D01*
X89538959Y-118200898D01*
X89556298Y-118202939D01*
X89574816Y-118204187D01*
X89594628Y-118204610D01*
X89614435Y-118204187D01*
X89632937Y-118202939D01*
X89650250Y-118200898D01*
X89666493Y-118198099D01*
X89681781Y-118194574D01*
X89696232Y-118190355D01*
X89709963Y-118185476D01*
X89723092Y-118179970D01*
X89735734Y-118173869D01*
X89748007Y-118167206D01*
X89760029Y-118160015D01*
X89771916Y-118152327D01*
X89783784Y-118144177D01*
X89795753Y-118135597D01*
X89820454Y-118117277D01*
X89839631Y-118103014D01*
X89859759Y-118088459D01*
X89881030Y-118073877D01*
X89903632Y-118059532D01*
X89915491Y-118052530D01*
X89927754Y-118045686D01*
X89940445Y-118039034D01*
X89953587Y-118032605D01*
X89967204Y-118026433D01*
X89981319Y-118020552D01*
X89995957Y-118014993D01*
X90011141Y-118009790D01*
X89576025Y-117147827D01*
X89574557Y-117144811D01*
X89573176Y-117141754D01*
X89571885Y-117138659D01*
X89570685Y-117135529D01*
X89569575Y-117132367D01*
X89568557Y-117129174D01*
X89567631Y-117125954D01*
X89566799Y-117122709D01*
X89566062Y-117119442D01*
X89565420Y-117116154D01*
X89564875Y-117112849D01*
X89564426Y-117109529D01*
X89564076Y-117106197D01*
X89563825Y-117102855D01*
X89563673Y-117099505D01*
X89563623Y-117096151D01*
X89563623Y-116753536D01*
X88446378Y-116753536D01*
X88446378Y-117096151D01*
X88446327Y-117099505D01*
X88446176Y-117102855D01*
X88445925Y-117106197D01*
X88445574Y-117109529D01*
X88445126Y-117112849D01*
X88444580Y-117116154D01*
X88443938Y-117119442D01*
X88443201Y-117122709D01*
X88442369Y-117125954D01*
X88441444Y-117129174D01*
X88440426Y-117132367D01*
X88439316Y-117135529D01*
X88438115Y-117138659D01*
X88436824Y-117141754D01*
X88435444Y-117144811D01*
X88433976Y-117147827D01*
X87998860Y-118009790D01*
X87743281Y-118009790D01*
X88217968Y-117069279D01*
X88217968Y-116753536D01*
X88179728Y-116753536D01*
X88173844Y-116753386D01*
X88168039Y-116752942D01*
X88162319Y-116752209D01*
X88156691Y-116751197D01*
X88151162Y-116749912D01*
X88145740Y-116748361D01*
X88140431Y-116746553D01*
X88135243Y-116744493D01*
X88130184Y-116742190D01*
X88125259Y-116739650D01*
X88120476Y-116736881D01*
X88115843Y-116733891D01*
X88111366Y-116730687D01*
X88107053Y-116727275D01*
X88102910Y-116723664D01*
X88098945Y-116719861D01*
X88095166Y-116715872D01*
X88091578Y-116711706D01*
X88088190Y-116707369D01*
X88085008Y-116702869D01*
X88082040Y-116698214D01*
X88079292Y-116693410D01*
X88076772Y-116688465D01*
X88074488Y-116683386D01*
X88072445Y-116678180D01*
X88070651Y-116672856D01*
X88069114Y-116667419D01*
X88067840Y-116661878D01*
X88066837Y-116656240D01*
X88066112Y-116650511D01*
X88065671Y-116644700D01*
X88065523Y-116638814D01*
X88065523Y-116524609D01*
X88065523Y-116296200D01*
X88293933Y-116296200D01*
X88293933Y-116524609D01*
X89716068Y-116524609D01*
X89716068Y-116296200D01*
X88293933Y-116296200D01*
X88065523Y-116296200D01*
X88065523Y-116181478D01*
%TD*%
D11*
%TO.C,SW1*%
X90043000Y-128524000D03*
D12*
X84963000Y-128524000D03*
D13*
X84963000Y-124824000D03*
D14*
X79463000Y-128524000D03*
%TD*%
D15*
%TO.C,J1*%
X82809999Y-136609999D03*
D16*
X80269999Y-136609999D03*
%TD*%
D11*
%TO.C,SW2*%
X90043000Y-109474000D03*
D12*
X84963000Y-109474000D03*
D13*
X84963000Y-105774000D03*
D14*
X79463000Y-109474000D03*
%TD*%
D17*
%TO.C,LED2*%
X84963000Y-112800000D03*
X84963000Y-115800000D03*
%TD*%
%TO.C,LED1*%
X84963000Y-131850000D03*
X84963000Y-134850000D03*
%TD*%
D18*
%TO.C,U1*%
X92848599Y-106883999D03*
D19*
X92391400Y-109424000D03*
X92848600Y-111964000D03*
X92391400Y-114504000D03*
X92848600Y-117044000D03*
X92391400Y-119584000D03*
X92848600Y-122124000D03*
X92391400Y-124664000D03*
X92848600Y-127204000D03*
X92391400Y-129744000D03*
X92848600Y-132284000D03*
X92391400Y-134824000D03*
X77608600Y-134824000D03*
X77151400Y-132284000D03*
X77608600Y-129744000D03*
X77151400Y-127204000D03*
X77608600Y-124664000D03*
X77151400Y-122124000D03*
X77608600Y-119584000D03*
X77151400Y-117044000D03*
X77608600Y-114504000D03*
X77151400Y-111964000D03*
X77608600Y-109424000D03*
X77151400Y-106884000D03*
%TD*%
M02*
