%TF.GenerationSoftware,KiCad,Pcbnew,(7.0.0-0)*%
%TF.CreationDate,2023-02-20T11:28:14-08:00*%
%TF.ProjectId,choc_milk_keyboard,63686f63-5f6d-4696-9c6b-5f6b6579626f,rev?*%
%TF.SameCoordinates,Original*%
%TF.FileFunction,Copper,L1,Top*%
%TF.FilePolarity,Positive*%
%FSLAX46Y46*%
G04 Gerber Fmt 4.6, Leading zero omitted, Abs format (unit mm)*
G04 Created by KiCad (PCBNEW (7.0.0-0)) date 2023-02-20 11:28:14*
%MOMM*%
%LPD*%
G01*
G04 APERTURE LIST*
%TA.AperFunction,ComponentPad*%
%ADD10C,2.000000*%
%TD*%
%TA.AperFunction,ComponentPad*%
%ADD11O,2.200000X1.600000*%
%TD*%
%TA.AperFunction,ComponentPad*%
%ADD12R,1.700000X1.700000*%
%TD*%
%TA.AperFunction,ComponentPad*%
%ADD13O,1.700000X1.700000*%
%TD*%
%TA.AperFunction,ComponentPad*%
%ADD14R,1.752600X1.752600*%
%TD*%
%TA.AperFunction,ComponentPad*%
%ADD15C,1.752600*%
%TD*%
%TA.AperFunction,ViaPad*%
%ADD16C,0.800000*%
%TD*%
%TA.AperFunction,Conductor*%
%ADD17C,0.250000*%
%TD*%
G04 APERTURE END LIST*
D10*
%TO.P,SW1,1,1*%
%TO.N,Net-(U1-4{slash}D4)*%
X84963000Y-122474000D03*
D11*
%TO.P,SW1,2,2*%
%TO.N,GND*%
X90062999Y-124623999D03*
D10*
X80833000Y-125224000D03*
%TD*%
D12*
%TO.P,J1,1,Pin_1*%
%TO.N,GND*%
X82809999Y-136609999D03*
D13*
%TO.P,J1,2,Pin_2*%
%TO.N,Net-(J1-Pin_2)*%
X80269999Y-136609999D03*
%TD*%
D10*
%TO.P,SW2,1,1*%
%TO.N,Net-(U1-5{slash}C6)*%
X84963000Y-103424000D03*
D11*
%TO.P,SW2,2,2*%
%TO.N,GND*%
X90062999Y-105573999D03*
D10*
X80833000Y-106174000D03*
%TD*%
D14*
%TO.P,U1,1,TX0/D3*%
%TO.N,unconnected-(U1-TX0{slash}D3-Pad1)*%
X92848599Y-106883999D03*
D15*
%TO.P,U1,2,RX1/D2*%
%TO.N,unconnected-(U1-RX1{slash}D2-Pad2)*%
X92391400Y-109424000D03*
%TO.P,U1,3,GND*%
%TO.N,GND*%
X92848600Y-111964000D03*
%TO.P,U1,4,GND*%
X92391400Y-114504000D03*
%TO.P,U1,5,2/D1/SDA*%
%TO.N,unconnected-(U1-2{slash}D1{slash}SDA-Pad5)*%
X92848600Y-117044000D03*
%TO.P,U1,6,3/D0/SCL*%
%TO.N,unconnected-(U1-3{slash}D0{slash}SCL-Pad6)*%
X92391400Y-119584000D03*
%TO.P,U1,7,4/D4*%
%TO.N,Net-(U1-4{slash}D4)*%
X92848600Y-122124000D03*
%TO.P,U1,8,5/C6*%
%TO.N,Net-(U1-5{slash}C6)*%
X92391400Y-124664000D03*
%TO.P,U1,9,6/D7*%
%TO.N,unconnected-(U1-6{slash}D7-Pad9)*%
X92848600Y-127204000D03*
%TO.P,U1,10,7/E6*%
%TO.N,unconnected-(U1-7{slash}E6-Pad10)*%
X92391400Y-129744000D03*
%TO.P,U1,11,8/B4*%
%TO.N,unconnected-(U1-8{slash}B4-Pad11)*%
X92848600Y-132284000D03*
%TO.P,U1,12,9/B5*%
%TO.N,unconnected-(U1-9{slash}B5-Pad12)*%
X92391400Y-134824000D03*
%TO.P,U1,13,B6/10*%
%TO.N,Net-(LED1-DIN)*%
X77608600Y-134824000D03*
%TO.P,U1,14,B2/16*%
%TO.N,unconnected-(U1-B2{slash}16-Pad14)*%
X77151400Y-132284000D03*
%TO.P,U1,15,B3/14*%
%TO.N,unconnected-(U1-B3{slash}14-Pad15)*%
X77608600Y-129744000D03*
%TO.P,U1,16,B1/15*%
%TO.N,unconnected-(U1-B1{slash}15-Pad16)*%
X77151400Y-127204000D03*
%TO.P,U1,17,F7/A0*%
%TO.N,unconnected-(U1-F7{slash}A0-Pad17)*%
X77608600Y-124664000D03*
%TO.P,U1,18,F6/A1*%
%TO.N,unconnected-(U1-F6{slash}A1-Pad18)*%
X77151400Y-122124000D03*
%TO.P,U1,19,F5/A2*%
%TO.N,unconnected-(U1-F5{slash}A2-Pad19)*%
X77608600Y-119584000D03*
%TO.P,U1,20,F4/A3*%
%TO.N,unconnected-(U1-F4{slash}A3-Pad20)*%
X77151400Y-117044000D03*
%TO.P,U1,21,VCC*%
%TO.N,VCC*%
X77608600Y-114504000D03*
%TO.P,U1,22,RST*%
%TO.N,Net-(J1-Pin_2)*%
X77151400Y-111964000D03*
%TO.P,U1,23,GND*%
%TO.N,GND*%
X77608600Y-109424000D03*
%TO.P,U1,24,RAW*%
%TO.N,unconnected-(U1-RAW-Pad24)*%
X77151400Y-106884000D03*
%TD*%
D16*
%TO.N,GND*%
X87512998Y-134100000D03*
%TO.N,VCC*%
X80000000Y-132650000D03*
X80000000Y-113550000D03*
%TD*%
D17*
%TO.N,GND*%
X87090000Y-131650000D02*
X88463000Y-130277000D01*
X87090000Y-134340000D02*
X87330000Y-134100000D01*
X87330000Y-134100000D02*
X87512998Y-134100000D01*
X87734000Y-124624000D02*
X86820000Y-123710000D01*
X87090000Y-134080000D02*
X87090000Y-131650000D01*
X87090000Y-134340000D02*
X87090000Y-134080000D01*
X85770000Y-120760000D02*
X84250000Y-120760000D01*
X82990000Y-122020000D02*
X82990000Y-123680000D01*
X88463000Y-126224000D02*
X90063000Y-124624000D01*
X82990000Y-123680000D02*
X81446000Y-125224000D01*
X85320000Y-136610000D02*
X87090000Y-134840000D01*
X82810000Y-136610000D02*
X85320000Y-136610000D01*
X81446000Y-125224000D02*
X80833000Y-125224000D01*
X87110000Y-134100000D02*
X87090000Y-134080000D01*
X90063000Y-124624000D02*
X87734000Y-124624000D01*
X84250000Y-120760000D02*
X82990000Y-122020000D01*
X87090000Y-134840000D02*
X87090000Y-134340000D01*
X86820000Y-123710000D02*
X86820000Y-121810000D01*
X86820000Y-121810000D02*
X85770000Y-120760000D01*
X87512998Y-134100000D02*
X87110000Y-134100000D01*
X88463000Y-130277000D02*
X88463000Y-126224000D01*
%TO.N,VCC*%
X80000000Y-113550000D02*
X78500000Y-113550000D01*
X78500000Y-113550000D02*
X77608600Y-114441400D01*
X77608600Y-114441400D02*
X77608600Y-114504000D01*
%TD*%
%TA.AperFunction,Conductor*%
%TO.N,VCC*%
G36*
X94117163Y-100000725D02*
G01*
X94145598Y-100003525D01*
X94147330Y-100003708D01*
X94283081Y-100018991D01*
X94305536Y-100023621D01*
X94364914Y-100041633D01*
X94369873Y-100043252D01*
X94462918Y-100075810D01*
X94480685Y-100083612D01*
X94541266Y-100115994D01*
X94548905Y-100120428D01*
X94593719Y-100148586D01*
X94626884Y-100169426D01*
X94639770Y-100178705D01*
X94678153Y-100210206D01*
X94694470Y-100223598D01*
X94703630Y-100231900D01*
X94767707Y-100295978D01*
X94776011Y-100305140D01*
X94820905Y-100359844D01*
X94830193Y-100372742D01*
X94879167Y-100450686D01*
X94883601Y-100458326D01*
X94915994Y-100518930D01*
X94923799Y-100536704D01*
X94935550Y-100570290D01*
X94956329Y-100629678D01*
X94957973Y-100634713D01*
X94975982Y-100694081D01*
X94980615Y-100716552D01*
X94995208Y-100846088D01*
X94996000Y-100860193D01*
X94996000Y-137139422D01*
X94995208Y-137153530D01*
X94980601Y-137283165D01*
X94975967Y-137305635D01*
X94958115Y-137364482D01*
X94956471Y-137369518D01*
X94923758Y-137463009D01*
X94915950Y-137480791D01*
X94883736Y-137541059D01*
X94879301Y-137548700D01*
X94830108Y-137626989D01*
X94820820Y-137639886D01*
X94776129Y-137694342D01*
X94767825Y-137703503D01*
X94703503Y-137767825D01*
X94694342Y-137776129D01*
X94639886Y-137820820D01*
X94626989Y-137830108D01*
X94548700Y-137879301D01*
X94541059Y-137883736D01*
X94480791Y-137915950D01*
X94463010Y-137923757D01*
X94369513Y-137956473D01*
X94364474Y-137958118D01*
X94305634Y-137975967D01*
X94283164Y-137980601D01*
X94147114Y-137995929D01*
X94145365Y-137996114D01*
X94120508Y-137998563D01*
X94117161Y-137998893D01*
X94104808Y-137999500D01*
X84143046Y-137999500D01*
X84076828Y-137980697D01*
X84030374Y-137929900D01*
X84017548Y-137862269D01*
X84042178Y-137797991D01*
X84058254Y-137776516D01*
X84110889Y-137706204D01*
X84161989Y-137569201D01*
X84168500Y-137508638D01*
X84168500Y-137369500D01*
X84185381Y-137306500D01*
X84231500Y-137260381D01*
X84294500Y-137243500D01*
X85241233Y-137243500D01*
X85252416Y-137244027D01*
X85259909Y-137245702D01*
X85327985Y-137243562D01*
X85331945Y-137243500D01*
X85355894Y-137243500D01*
X85359856Y-137243500D01*
X85363856Y-137242994D01*
X85375699Y-137242061D01*
X85419889Y-137240673D01*
X85439333Y-137235023D01*
X85458702Y-137231012D01*
X85478797Y-137228474D01*
X85519915Y-137212193D01*
X85531117Y-137208357D01*
X85573593Y-137196018D01*
X85591039Y-137185699D01*
X85608769Y-137177013D01*
X85627617Y-137169552D01*
X85663387Y-137143561D01*
X85673298Y-137137051D01*
X85711362Y-137114542D01*
X85725688Y-137100215D01*
X85740717Y-137087378D01*
X85757107Y-137075472D01*
X85785294Y-137041397D01*
X85793272Y-137032630D01*
X87482264Y-135343639D01*
X87490535Y-135336113D01*
X87497018Y-135332000D01*
X87543661Y-135282328D01*
X87546353Y-135279550D01*
X87566135Y-135259770D01*
X87568613Y-135256574D01*
X87576308Y-135247563D01*
X87606586Y-135215321D01*
X87616348Y-135197562D01*
X87627195Y-135181050D01*
X87639614Y-135165041D01*
X87657179Y-135124446D01*
X87662388Y-135113814D01*
X87683695Y-135075060D01*
X87686681Y-135063426D01*
X87688387Y-135060506D01*
X87688585Y-135060008D01*
X87688661Y-135060038D01*
X87721512Y-135003812D01*
X87782532Y-134971504D01*
X87795286Y-134968794D01*
X87969750Y-134891118D01*
X88124251Y-134778866D01*
X88252038Y-134636944D01*
X88347525Y-134471556D01*
X88406540Y-134289928D01*
X88426502Y-134100000D01*
X88406540Y-133910072D01*
X88354885Y-133751096D01*
X88349567Y-133734728D01*
X88349566Y-133734726D01*
X88347525Y-133728444D01*
X88252038Y-133563056D01*
X88124251Y-133421134D01*
X88118909Y-133417253D01*
X88118906Y-133417250D01*
X88041055Y-133360688D01*
X87969750Y-133308882D01*
X87798251Y-133232526D01*
X87758863Y-133204946D01*
X87732675Y-133164619D01*
X87723500Y-133117419D01*
X87723500Y-131964594D01*
X87733091Y-131916376D01*
X87760402Y-131875501D01*
X88855269Y-130780633D01*
X88863533Y-130773114D01*
X88870018Y-130769000D01*
X88916676Y-130719312D01*
X88919368Y-130716534D01*
X88939134Y-130696770D01*
X88941601Y-130693588D01*
X88949310Y-130684561D01*
X88979586Y-130652321D01*
X88989345Y-130634567D01*
X89000199Y-130618043D01*
X89012613Y-130602041D01*
X89030167Y-130561475D01*
X89035392Y-130550808D01*
X89052875Y-130519008D01*
X89052874Y-130519008D01*
X89056695Y-130512060D01*
X89061732Y-130492442D01*
X89068138Y-130473730D01*
X89073032Y-130462421D01*
X89076181Y-130455145D01*
X89083096Y-130411477D01*
X89085504Y-130399853D01*
X89094529Y-130364705D01*
X89096500Y-130357030D01*
X89096500Y-130336776D01*
X89098051Y-130317065D01*
X89099980Y-130304885D01*
X89101220Y-130297057D01*
X89097058Y-130253038D01*
X89096500Y-130241181D01*
X89096500Y-129436338D01*
X89109962Y-129379670D01*
X89147472Y-129335111D01*
X89201014Y-129312183D01*
X89259148Y-129315785D01*
X89309450Y-129345148D01*
X89355277Y-129388844D01*
X89355282Y-129388848D01*
X89359622Y-129392986D01*
X89536428Y-129506613D01*
X89731543Y-129584725D01*
X89937915Y-129624500D01*
X90092424Y-129624500D01*
X90095425Y-129624500D01*
X90252218Y-129609528D01*
X90453875Y-129550316D01*
X90640682Y-129454011D01*
X90805886Y-129324092D01*
X90830243Y-129295981D01*
X90885630Y-129258957D01*
X90952156Y-129255352D01*
X91011221Y-129286176D01*
X91046310Y-129342811D01*
X91047613Y-129409423D01*
X91022085Y-129510234D01*
X91022083Y-129510243D01*
X91020806Y-129515288D01*
X91020376Y-129520470D01*
X91020375Y-129520480D01*
X91008967Y-129658162D01*
X91001854Y-129744000D01*
X91002284Y-129749189D01*
X91020375Y-129967519D01*
X91020376Y-129967527D01*
X91020806Y-129972712D01*
X91022082Y-129977752D01*
X91022084Y-129977762D01*
X91054922Y-130107435D01*
X91077143Y-130195185D01*
X91079233Y-130199951D01*
X91079235Y-130199955D01*
X91139251Y-130336776D01*
X91169331Y-130405351D01*
X91294853Y-130597477D01*
X91360023Y-130668271D01*
X91446756Y-130762488D01*
X91446759Y-130762491D01*
X91450286Y-130766322D01*
X91631390Y-130907281D01*
X91833226Y-131016509D01*
X91883125Y-131033639D01*
X91938360Y-131071376D01*
X91966495Y-131132068D01*
X91959597Y-131198607D01*
X91919612Y-131252238D01*
X91911604Y-131258471D01*
X91911591Y-131258482D01*
X91907486Y-131261678D01*
X91903965Y-131265502D01*
X91903956Y-131265511D01*
X91755581Y-131426690D01*
X91755578Y-131426693D01*
X91752053Y-131430523D01*
X91749205Y-131434881D01*
X91749202Y-131434886D01*
X91637115Y-131606449D01*
X91626531Y-131622649D01*
X91624438Y-131627419D01*
X91624436Y-131627424D01*
X91536435Y-131828044D01*
X91536432Y-131828052D01*
X91534343Y-131832815D01*
X91533066Y-131837854D01*
X91533065Y-131837860D01*
X91479284Y-132050237D01*
X91479281Y-132050249D01*
X91478006Y-132055288D01*
X91477576Y-132060470D01*
X91477575Y-132060480D01*
X91474129Y-132102071D01*
X91459054Y-132284000D01*
X91459484Y-132289189D01*
X91477575Y-132507519D01*
X91477576Y-132507527D01*
X91478006Y-132512712D01*
X91479282Y-132517752D01*
X91479284Y-132517762D01*
X91503415Y-132613053D01*
X91534343Y-132735185D01*
X91536433Y-132739951D01*
X91536435Y-132739955D01*
X91584925Y-132850500D01*
X91626531Y-132945351D01*
X91752053Y-133137477D01*
X91755581Y-133141309D01*
X91903956Y-133302488D01*
X91903959Y-133302491D01*
X91907486Y-133306322D01*
X91911599Y-133309523D01*
X91911601Y-133309525D01*
X91919607Y-133315757D01*
X91959595Y-133369387D01*
X91966495Y-133435927D01*
X91938363Y-133496621D01*
X91883127Y-133534360D01*
X91838154Y-133549799D01*
X91838151Y-133549800D01*
X91833226Y-133551491D01*
X91828647Y-133553968D01*
X91828640Y-133553972D01*
X91635972Y-133658239D01*
X91635968Y-133658241D01*
X91631390Y-133660719D01*
X91627284Y-133663914D01*
X91627279Y-133663918D01*
X91454406Y-133798471D01*
X91450286Y-133801678D01*
X91446765Y-133805502D01*
X91446756Y-133805511D01*
X91298381Y-133966690D01*
X91298378Y-133966693D01*
X91294853Y-133970523D01*
X91292005Y-133974881D01*
X91292002Y-133974886D01*
X91205972Y-134106565D01*
X91169331Y-134162649D01*
X91167238Y-134167419D01*
X91167236Y-134167424D01*
X91079235Y-134368044D01*
X91079232Y-134368052D01*
X91077143Y-134372815D01*
X91075866Y-134377854D01*
X91075865Y-134377860D01*
X91022084Y-134590237D01*
X91022081Y-134590249D01*
X91020806Y-134595288D01*
X91020376Y-134600470D01*
X91020375Y-134600480D01*
X91012318Y-134697715D01*
X91001854Y-134824000D01*
X91002284Y-134829189D01*
X91020375Y-135047519D01*
X91020376Y-135047527D01*
X91020806Y-135052712D01*
X91022082Y-135057752D01*
X91022084Y-135057762D01*
X91072794Y-135258011D01*
X91077143Y-135275185D01*
X91079233Y-135279951D01*
X91079235Y-135279955D01*
X91130462Y-135396739D01*
X91169331Y-135485351D01*
X91294853Y-135677477D01*
X91326331Y-135711671D01*
X91446756Y-135842488D01*
X91446759Y-135842491D01*
X91450286Y-135846322D01*
X91631390Y-135987281D01*
X91833226Y-136096509D01*
X91838155Y-136098201D01*
X91838157Y-136098202D01*
X91934150Y-136131156D01*
X92050287Y-136171026D01*
X92276652Y-136208800D01*
X92500940Y-136208800D01*
X92506148Y-136208800D01*
X92732513Y-136171026D01*
X92949574Y-136096509D01*
X93151410Y-135987281D01*
X93332514Y-135846322D01*
X93487947Y-135677477D01*
X93613469Y-135485351D01*
X93705657Y-135275185D01*
X93761994Y-135052712D01*
X93780946Y-134824000D01*
X93761994Y-134595288D01*
X93705657Y-134372815D01*
X93613469Y-134162649D01*
X93487947Y-133970523D01*
X93377423Y-133850462D01*
X93336043Y-133805511D01*
X93336039Y-133805508D01*
X93332514Y-133801678D01*
X93328401Y-133798477D01*
X93328396Y-133798472D01*
X93320391Y-133792241D01*
X93280403Y-133738611D01*
X93273504Y-133672070D01*
X93301638Y-133611376D01*
X93356871Y-133573640D01*
X93406774Y-133556509D01*
X93608610Y-133447281D01*
X93789714Y-133306322D01*
X93945147Y-133137477D01*
X94070669Y-132945351D01*
X94162857Y-132735185D01*
X94219194Y-132512712D01*
X94238146Y-132284000D01*
X94219194Y-132055288D01*
X94162857Y-131832815D01*
X94070669Y-131622649D01*
X93945147Y-131430523D01*
X93789714Y-131261678D01*
X93608610Y-131120719D01*
X93419177Y-131018203D01*
X93411359Y-131013972D01*
X93411356Y-131013970D01*
X93406774Y-131011491D01*
X93401850Y-131009800D01*
X93401842Y-131009797D01*
X93356873Y-130994360D01*
X93301636Y-130956620D01*
X93273503Y-130895925D01*
X93280405Y-130829383D01*
X93320396Y-130775754D01*
X93324371Y-130772660D01*
X93332514Y-130766322D01*
X93487947Y-130597477D01*
X93613469Y-130405351D01*
X93705657Y-130195185D01*
X93761994Y-129972712D01*
X93780946Y-129744000D01*
X93761994Y-129515288D01*
X93758975Y-129503368D01*
X93742001Y-129436338D01*
X93705657Y-129292815D01*
X93613469Y-129082649D01*
X93487947Y-128890523D01*
X93332514Y-128721678D01*
X93328401Y-128718477D01*
X93328396Y-128718472D01*
X93320391Y-128712241D01*
X93280403Y-128658611D01*
X93273504Y-128592070D01*
X93301638Y-128531376D01*
X93356871Y-128493640D01*
X93406774Y-128476509D01*
X93608610Y-128367281D01*
X93789714Y-128226322D01*
X93945147Y-128057477D01*
X94070669Y-127865351D01*
X94162857Y-127655185D01*
X94219194Y-127432712D01*
X94238146Y-127204000D01*
X94219194Y-126975288D01*
X94162857Y-126752815D01*
X94070669Y-126542649D01*
X93945147Y-126350523D01*
X93817475Y-126211834D01*
X93793243Y-126185511D01*
X93793239Y-126185508D01*
X93789714Y-126181678D01*
X93608610Y-126040719D01*
X93441336Y-125950195D01*
X93411359Y-125933972D01*
X93411356Y-125933970D01*
X93406774Y-125931491D01*
X93401850Y-125929800D01*
X93401842Y-125929797D01*
X93356873Y-125914360D01*
X93301636Y-125876620D01*
X93273503Y-125815925D01*
X93280405Y-125749383D01*
X93320396Y-125695754D01*
X93321784Y-125694672D01*
X93332514Y-125686322D01*
X93487947Y-125517477D01*
X93613469Y-125325351D01*
X93705657Y-125115185D01*
X93761994Y-124892712D01*
X93780946Y-124664000D01*
X93761994Y-124435288D01*
X93705657Y-124212815D01*
X93613469Y-124002649D01*
X93487947Y-123810523D01*
X93404576Y-123719958D01*
X93336043Y-123645511D01*
X93336039Y-123645508D01*
X93332514Y-123641678D01*
X93328401Y-123638477D01*
X93328396Y-123638472D01*
X93320391Y-123632241D01*
X93280403Y-123578611D01*
X93273504Y-123512070D01*
X93301638Y-123451376D01*
X93356871Y-123413640D01*
X93406774Y-123396509D01*
X93608610Y-123287281D01*
X93789714Y-123146322D01*
X93945147Y-122977477D01*
X94070669Y-122785351D01*
X94162857Y-122575185D01*
X94219194Y-122352712D01*
X94238146Y-122124000D01*
X94219194Y-121895288D01*
X94216721Y-121885524D01*
X94181439Y-121746195D01*
X94162857Y-121672815D01*
X94070669Y-121462649D01*
X93945147Y-121270523D01*
X93789714Y-121101678D01*
X93608610Y-120960719D01*
X93419177Y-120858203D01*
X93411359Y-120853972D01*
X93411356Y-120853970D01*
X93406774Y-120851491D01*
X93401850Y-120849800D01*
X93401842Y-120849797D01*
X93356873Y-120834360D01*
X93301636Y-120796620D01*
X93273503Y-120735925D01*
X93280405Y-120669383D01*
X93320396Y-120615754D01*
X93321784Y-120614672D01*
X93332514Y-120606322D01*
X93487947Y-120437477D01*
X93613469Y-120245351D01*
X93705657Y-120035185D01*
X93761994Y-119812712D01*
X93780946Y-119584000D01*
X93761994Y-119355288D01*
X93705657Y-119132815D01*
X93613469Y-118922649D01*
X93487947Y-118730523D01*
X93332514Y-118561678D01*
X93328401Y-118558477D01*
X93328396Y-118558472D01*
X93320391Y-118552241D01*
X93280403Y-118498611D01*
X93273504Y-118432070D01*
X93301638Y-118371376D01*
X93356871Y-118333640D01*
X93406774Y-118316509D01*
X93608610Y-118207281D01*
X93789714Y-118066322D01*
X93945147Y-117897477D01*
X94070669Y-117705351D01*
X94162857Y-117495185D01*
X94219194Y-117272712D01*
X94238146Y-117044000D01*
X94219194Y-116815288D01*
X94162857Y-116592815D01*
X94070669Y-116382649D01*
X93945147Y-116190523D01*
X93852223Y-116089581D01*
X93793243Y-116025511D01*
X93793239Y-116025508D01*
X93789714Y-116021678D01*
X93608610Y-115880719D01*
X93441547Y-115790309D01*
X93411359Y-115773972D01*
X93411356Y-115773970D01*
X93406774Y-115771491D01*
X93401850Y-115769800D01*
X93401842Y-115769797D01*
X93356873Y-115754360D01*
X93301636Y-115716620D01*
X93273503Y-115655925D01*
X93280405Y-115589383D01*
X93320396Y-115535754D01*
X93321784Y-115534672D01*
X93332514Y-115526322D01*
X93487947Y-115357477D01*
X93613469Y-115165351D01*
X93705657Y-114955185D01*
X93761994Y-114732712D01*
X93780946Y-114504000D01*
X93761994Y-114275288D01*
X93705657Y-114052815D01*
X93613469Y-113842649D01*
X93487947Y-113650523D01*
X93407425Y-113563053D01*
X93336043Y-113485511D01*
X93336039Y-113485508D01*
X93332514Y-113481678D01*
X93328401Y-113478477D01*
X93328396Y-113478472D01*
X93320391Y-113472241D01*
X93280403Y-113418611D01*
X93273504Y-113352070D01*
X93301638Y-113291376D01*
X93356871Y-113253640D01*
X93406774Y-113236509D01*
X93608610Y-113127281D01*
X93789714Y-112986322D01*
X93945147Y-112817477D01*
X94070669Y-112625351D01*
X94162857Y-112415185D01*
X94219194Y-112192712D01*
X94238146Y-111964000D01*
X94219194Y-111735288D01*
X94162857Y-111512815D01*
X94070669Y-111302649D01*
X93945147Y-111110523D01*
X93789714Y-110941678D01*
X93608610Y-110800719D01*
X93474854Y-110728334D01*
X93411359Y-110693972D01*
X93411356Y-110693970D01*
X93406774Y-110691491D01*
X93401850Y-110689800D01*
X93401842Y-110689797D01*
X93356873Y-110674360D01*
X93301636Y-110636620D01*
X93273503Y-110575925D01*
X93280405Y-110509383D01*
X93320396Y-110455754D01*
X93323461Y-110453368D01*
X93332514Y-110446322D01*
X93487947Y-110277477D01*
X93613469Y-110085351D01*
X93705657Y-109875185D01*
X93761994Y-109652712D01*
X93780946Y-109424000D01*
X93761994Y-109195288D01*
X93705657Y-108972815D01*
X93613469Y-108762649D01*
X93487947Y-108570523D01*
X93484418Y-108566689D01*
X93484413Y-108566683D01*
X93404742Y-108480137D01*
X93376388Y-108429753D01*
X93373521Y-108372009D01*
X93396745Y-108319064D01*
X93441170Y-108282064D01*
X93497443Y-108268800D01*
X93770169Y-108268800D01*
X93773538Y-108268800D01*
X93834101Y-108262289D01*
X93971104Y-108211189D01*
X94088161Y-108123561D01*
X94175789Y-108006504D01*
X94226889Y-107869501D01*
X94233400Y-107808938D01*
X94233400Y-105959062D01*
X94226889Y-105898499D01*
X94175789Y-105761496D01*
X94147658Y-105723918D01*
X94093559Y-105651650D01*
X94088161Y-105644439D01*
X94022569Y-105595337D01*
X93978317Y-105562210D01*
X93978314Y-105562208D01*
X93971104Y-105556811D01*
X93962666Y-105553664D01*
X93962663Y-105553662D01*
X93841480Y-105508463D01*
X93841478Y-105508462D01*
X93834101Y-105505711D01*
X93826273Y-105504869D01*
X93826267Y-105504868D01*
X93776888Y-105499560D01*
X93776885Y-105499559D01*
X93773538Y-105499200D01*
X91923662Y-105499200D01*
X91920315Y-105499559D01*
X91920311Y-105499560D01*
X91870932Y-105504868D01*
X91870925Y-105504869D01*
X91863099Y-105505711D01*
X91855726Y-105508460D01*
X91855713Y-105508464D01*
X91831729Y-105517410D01*
X91774726Y-105524683D01*
X91720421Y-105505887D01*
X91680110Y-105464931D01*
X91662179Y-105410334D01*
X91657022Y-105351393D01*
X91656543Y-105345913D01*
X91597284Y-105124757D01*
X91500523Y-104917251D01*
X91369198Y-104729700D01*
X91207300Y-104567802D01*
X91106436Y-104497176D01*
X91024257Y-104439633D01*
X91024252Y-104439630D01*
X91019749Y-104436477D01*
X90812243Y-104339716D01*
X90591087Y-104280457D01*
X90585611Y-104279977D01*
X90585606Y-104279977D01*
X90422850Y-104265738D01*
X90422844Y-104265737D01*
X90420127Y-104265500D01*
X89705873Y-104265500D01*
X89703156Y-104265737D01*
X89703149Y-104265738D01*
X89540393Y-104279977D01*
X89540386Y-104279978D01*
X89534913Y-104280457D01*
X89529599Y-104281880D01*
X89529598Y-104281881D01*
X89319067Y-104338293D01*
X89319065Y-104338293D01*
X89313757Y-104339716D01*
X89308779Y-104342036D01*
X89308774Y-104342039D01*
X89111238Y-104434151D01*
X89111233Y-104434153D01*
X89106251Y-104436477D01*
X89101752Y-104439627D01*
X89101742Y-104439633D01*
X88923211Y-104564643D01*
X88923208Y-104564645D01*
X88918700Y-104567802D01*
X88914808Y-104571693D01*
X88914802Y-104571699D01*
X88760699Y-104725802D01*
X88760693Y-104725808D01*
X88756802Y-104729700D01*
X88753645Y-104734208D01*
X88753643Y-104734211D01*
X88628633Y-104912742D01*
X88628627Y-104912752D01*
X88625477Y-104917251D01*
X88623153Y-104922233D01*
X88623151Y-104922238D01*
X88531039Y-105119774D01*
X88531036Y-105119779D01*
X88528716Y-105124757D01*
X88469457Y-105345913D01*
X88468978Y-105351386D01*
X88468977Y-105351393D01*
X88452741Y-105536974D01*
X88449502Y-105574000D01*
X88449981Y-105579475D01*
X88465905Y-105761496D01*
X88469457Y-105802087D01*
X88528716Y-106023243D01*
X88531038Y-106028223D01*
X88531039Y-106028225D01*
X88601973Y-106180345D01*
X88625477Y-106230749D01*
X88628630Y-106235252D01*
X88628633Y-106235257D01*
X88676881Y-106304162D01*
X88756802Y-106418300D01*
X88918700Y-106580198D01*
X89106251Y-106711523D01*
X89313757Y-106808284D01*
X89534913Y-106867543D01*
X89705873Y-106882500D01*
X90417387Y-106882500D01*
X90420127Y-106882500D01*
X90591087Y-106867543D01*
X90812243Y-106808284D01*
X91019749Y-106711523D01*
X91207300Y-106580198D01*
X91248705Y-106538792D01*
X91298864Y-106508055D01*
X91357511Y-106503439D01*
X91411861Y-106525952D01*
X91450067Y-106570685D01*
X91463800Y-106627888D01*
X91463800Y-107808938D01*
X91464159Y-107812285D01*
X91464160Y-107812288D01*
X91469468Y-107861667D01*
X91469469Y-107861673D01*
X91470311Y-107869501D01*
X91473062Y-107876878D01*
X91473063Y-107876880D01*
X91518262Y-107998063D01*
X91518264Y-107998066D01*
X91521411Y-108006504D01*
X91526808Y-108013714D01*
X91526810Y-108013717D01*
X91608039Y-108122225D01*
X91632184Y-108181992D01*
X91623610Y-108245879D01*
X91584562Y-108297165D01*
X91454404Y-108398471D01*
X91454391Y-108398482D01*
X91450286Y-108401678D01*
X91446765Y-108405502D01*
X91446756Y-108405511D01*
X91298381Y-108566690D01*
X91298378Y-108566693D01*
X91294853Y-108570523D01*
X91292005Y-108574881D01*
X91292002Y-108574886D01*
X91174370Y-108754936D01*
X91169331Y-108762649D01*
X91164618Y-108773394D01*
X91151093Y-108804227D01*
X91109945Y-108855419D01*
X91048625Y-108878948D01*
X90983794Y-108868421D01*
X90933069Y-108826699D01*
X90898175Y-108777698D01*
X90878486Y-108750048D01*
X90726378Y-108605014D01*
X90721336Y-108601774D01*
X90721334Y-108601772D01*
X90554620Y-108494631D01*
X90554618Y-108494630D01*
X90549572Y-108491387D01*
X90521471Y-108480137D01*
X90360029Y-108415505D01*
X90360022Y-108415503D01*
X90354457Y-108413275D01*
X90348569Y-108412140D01*
X90348565Y-108412139D01*
X90153973Y-108374634D01*
X90153964Y-108374633D01*
X90148085Y-108373500D01*
X89990575Y-108373500D01*
X89987597Y-108373784D01*
X89987583Y-108373785D01*
X89839757Y-108387901D01*
X89839752Y-108387901D01*
X89833782Y-108388472D01*
X89828032Y-108390160D01*
X89828023Y-108390162D01*
X89637889Y-108445991D01*
X89637884Y-108445992D01*
X89632125Y-108447684D01*
X89626787Y-108450435D01*
X89626784Y-108450437D01*
X89450659Y-108541235D01*
X89450654Y-108541237D01*
X89445318Y-108543989D01*
X89440598Y-108547700D01*
X89440593Y-108547704D01*
X89284839Y-108670192D01*
X89280114Y-108673908D01*
X89276185Y-108678442D01*
X89276179Y-108678448D01*
X89146413Y-108828205D01*
X89146407Y-108828212D01*
X89142481Y-108832744D01*
X89139483Y-108837936D01*
X89139477Y-108837945D01*
X89040398Y-109009555D01*
X89040394Y-109009561D01*
X89037396Y-109014756D01*
X89035434Y-109020423D01*
X89035432Y-109020429D01*
X88987887Y-109157802D01*
X88968656Y-109213367D01*
X88938746Y-109421398D01*
X88948746Y-109631330D01*
X88950161Y-109637163D01*
X88950162Y-109637169D01*
X88955158Y-109657762D01*
X88998296Y-109835576D01*
X89000790Y-109841037D01*
X89082929Y-110020897D01*
X89085604Y-110026753D01*
X89207514Y-110197952D01*
X89359622Y-110342986D01*
X89536428Y-110456613D01*
X89731543Y-110534725D01*
X89937915Y-110574500D01*
X90092424Y-110574500D01*
X90095425Y-110574500D01*
X90252218Y-110559528D01*
X90453875Y-110500316D01*
X90640682Y-110404011D01*
X90805886Y-110274092D01*
X90943519Y-110115256D01*
X90956130Y-110093412D01*
X91000748Y-110048172D01*
X91061774Y-110030459D01*
X91123685Y-110044781D01*
X91170731Y-110087494D01*
X91294853Y-110277477D01*
X91298381Y-110281309D01*
X91446756Y-110442488D01*
X91446759Y-110442491D01*
X91450286Y-110446322D01*
X91631390Y-110587281D01*
X91833226Y-110696509D01*
X91883125Y-110713639D01*
X91938360Y-110751376D01*
X91966495Y-110812068D01*
X91959597Y-110878607D01*
X91919612Y-110932238D01*
X91911604Y-110938471D01*
X91911591Y-110938482D01*
X91907486Y-110941678D01*
X91903965Y-110945502D01*
X91903956Y-110945511D01*
X91755581Y-111106690D01*
X91755578Y-111106693D01*
X91752053Y-111110523D01*
X91749205Y-111114881D01*
X91749202Y-111114886D01*
X91629383Y-111298283D01*
X91626531Y-111302649D01*
X91624438Y-111307419D01*
X91624436Y-111307424D01*
X91536435Y-111508044D01*
X91536432Y-111508052D01*
X91534343Y-111512815D01*
X91533066Y-111517854D01*
X91533065Y-111517860D01*
X91479284Y-111730237D01*
X91479281Y-111730249D01*
X91478006Y-111735288D01*
X91477576Y-111740470D01*
X91477575Y-111740480D01*
X91462226Y-111925721D01*
X91459054Y-111964000D01*
X91459484Y-111969189D01*
X91477575Y-112187519D01*
X91477576Y-112187527D01*
X91478006Y-112192712D01*
X91479282Y-112197752D01*
X91479284Y-112197762D01*
X91522561Y-112368658D01*
X91534343Y-112415185D01*
X91536433Y-112419951D01*
X91536435Y-112419955D01*
X91614682Y-112598339D01*
X91626531Y-112625351D01*
X91752053Y-112817477D01*
X91755581Y-112821309D01*
X91903956Y-112982488D01*
X91903959Y-112982491D01*
X91907486Y-112986322D01*
X91911599Y-112989523D01*
X91911601Y-112989525D01*
X91919607Y-112995757D01*
X91959595Y-113049387D01*
X91966495Y-113115927D01*
X91938363Y-113176621D01*
X91883127Y-113214360D01*
X91838154Y-113229799D01*
X91838151Y-113229800D01*
X91833226Y-113231491D01*
X91828647Y-113233968D01*
X91828640Y-113233972D01*
X91635972Y-113338239D01*
X91635968Y-113338241D01*
X91631390Y-113340719D01*
X91627284Y-113343914D01*
X91627279Y-113343918D01*
X91454405Y-113478472D01*
X91450286Y-113481678D01*
X91446765Y-113485502D01*
X91446756Y-113485511D01*
X91298381Y-113646690D01*
X91298378Y-113646693D01*
X91294853Y-113650523D01*
X91292005Y-113654881D01*
X91292002Y-113654886D01*
X91196868Y-113800500D01*
X91169331Y-113842649D01*
X91167238Y-113847419D01*
X91167236Y-113847424D01*
X91079235Y-114048044D01*
X91079232Y-114048052D01*
X91077143Y-114052815D01*
X91075866Y-114057854D01*
X91075865Y-114057860D01*
X91022084Y-114270237D01*
X91022081Y-114270249D01*
X91020806Y-114275288D01*
X91020376Y-114280470D01*
X91020375Y-114280480D01*
X91002826Y-114492270D01*
X91001854Y-114504000D01*
X91002284Y-114509189D01*
X91020375Y-114727519D01*
X91020376Y-114727527D01*
X91020806Y-114732712D01*
X91022082Y-114737752D01*
X91022084Y-114737762D01*
X91075824Y-114949976D01*
X91077143Y-114955185D01*
X91079233Y-114959951D01*
X91079235Y-114959955D01*
X91105918Y-115020785D01*
X91169331Y-115165351D01*
X91294853Y-115357477D01*
X91339047Y-115405484D01*
X91446756Y-115522488D01*
X91446759Y-115522491D01*
X91450286Y-115526322D01*
X91631390Y-115667281D01*
X91833226Y-115776509D01*
X91883125Y-115793639D01*
X91938360Y-115831376D01*
X91966495Y-115892068D01*
X91959597Y-115958607D01*
X91919612Y-116012238D01*
X91911604Y-116018471D01*
X91911591Y-116018482D01*
X91907486Y-116021678D01*
X91903965Y-116025502D01*
X91903956Y-116025511D01*
X91755581Y-116186690D01*
X91755578Y-116186693D01*
X91752053Y-116190523D01*
X91749205Y-116194881D01*
X91749202Y-116194886D01*
X91659649Y-116331958D01*
X91626531Y-116382649D01*
X91624438Y-116387419D01*
X91624436Y-116387424D01*
X91536435Y-116588044D01*
X91536432Y-116588052D01*
X91534343Y-116592815D01*
X91533066Y-116597854D01*
X91533065Y-116597860D01*
X91479284Y-116810237D01*
X91479281Y-116810249D01*
X91478006Y-116815288D01*
X91477576Y-116820470D01*
X91477575Y-116820480D01*
X91462642Y-117000701D01*
X91459054Y-117044000D01*
X91459484Y-117049189D01*
X91477575Y-117267519D01*
X91477576Y-117267527D01*
X91478006Y-117272712D01*
X91479282Y-117277752D01*
X91479284Y-117277762D01*
X91533065Y-117490139D01*
X91534343Y-117495185D01*
X91626531Y-117705351D01*
X91752053Y-117897477D01*
X91755581Y-117901309D01*
X91903956Y-118062488D01*
X91903959Y-118062491D01*
X91907486Y-118066322D01*
X91911599Y-118069523D01*
X91911601Y-118069525D01*
X91919607Y-118075757D01*
X91959595Y-118129387D01*
X91966495Y-118195927D01*
X91938363Y-118256621D01*
X91883127Y-118294360D01*
X91838154Y-118309799D01*
X91838151Y-118309800D01*
X91833226Y-118311491D01*
X91828647Y-118313968D01*
X91828640Y-118313972D01*
X91635972Y-118418239D01*
X91635968Y-118418241D01*
X91631390Y-118420719D01*
X91627284Y-118423914D01*
X91627279Y-118423918D01*
X91454406Y-118558471D01*
X91450286Y-118561678D01*
X91446765Y-118565502D01*
X91446756Y-118565511D01*
X91298381Y-118726690D01*
X91298378Y-118726693D01*
X91294853Y-118730523D01*
X91292005Y-118734881D01*
X91292002Y-118734886D01*
X91172183Y-118918283D01*
X91169331Y-118922649D01*
X91167238Y-118927419D01*
X91167236Y-118927424D01*
X91079235Y-119128044D01*
X91079232Y-119128052D01*
X91077143Y-119132815D01*
X91075866Y-119137854D01*
X91075865Y-119137860D01*
X91022084Y-119350237D01*
X91022081Y-119350249D01*
X91020806Y-119355288D01*
X91020376Y-119360470D01*
X91020375Y-119360480D01*
X91002708Y-119573686D01*
X91001854Y-119584000D01*
X91002284Y-119589189D01*
X91020375Y-119807519D01*
X91020376Y-119807527D01*
X91020806Y-119812712D01*
X91022082Y-119817752D01*
X91022084Y-119817762D01*
X91075865Y-120030139D01*
X91077143Y-120035185D01*
X91079233Y-120039951D01*
X91079235Y-120039955D01*
X91151677Y-120205105D01*
X91169331Y-120245351D01*
X91294853Y-120437477D01*
X91298381Y-120441309D01*
X91446756Y-120602488D01*
X91446759Y-120602491D01*
X91450286Y-120606322D01*
X91631390Y-120747281D01*
X91833226Y-120856509D01*
X91883125Y-120873639D01*
X91938360Y-120911376D01*
X91966495Y-120972068D01*
X91959597Y-121038607D01*
X91919612Y-121092238D01*
X91911604Y-121098471D01*
X91911591Y-121098482D01*
X91907486Y-121101678D01*
X91903965Y-121105502D01*
X91903956Y-121105511D01*
X91755581Y-121266690D01*
X91755578Y-121266693D01*
X91752053Y-121270523D01*
X91749205Y-121274881D01*
X91749202Y-121274886D01*
X91655285Y-121418637D01*
X91626531Y-121462649D01*
X91624438Y-121467419D01*
X91624436Y-121467424D01*
X91536435Y-121668044D01*
X91536432Y-121668052D01*
X91534343Y-121672815D01*
X91533066Y-121677854D01*
X91533065Y-121677860D01*
X91479284Y-121890237D01*
X91479281Y-121890249D01*
X91478006Y-121895288D01*
X91477576Y-121900470D01*
X91477575Y-121900480D01*
X91468680Y-122007834D01*
X91459054Y-122124000D01*
X91459484Y-122129189D01*
X91477575Y-122347519D01*
X91477576Y-122347527D01*
X91478006Y-122352712D01*
X91479282Y-122357752D01*
X91479284Y-122357762D01*
X91533065Y-122570139D01*
X91534343Y-122575185D01*
X91626531Y-122785351D01*
X91752053Y-122977477D01*
X91802411Y-123032180D01*
X91903956Y-123142488D01*
X91903959Y-123142491D01*
X91907486Y-123146322D01*
X91911599Y-123149523D01*
X91911601Y-123149525D01*
X91919607Y-123155757D01*
X91959595Y-123209387D01*
X91966495Y-123275927D01*
X91938363Y-123336621D01*
X91883127Y-123374360D01*
X91838154Y-123389799D01*
X91838151Y-123389800D01*
X91833226Y-123391491D01*
X91828647Y-123393968D01*
X91828640Y-123393972D01*
X91635972Y-123498239D01*
X91635968Y-123498241D01*
X91631390Y-123500719D01*
X91627284Y-123503914D01*
X91627279Y-123503918D01*
X91454406Y-123638471D01*
X91450286Y-123641678D01*
X91446764Y-123645503D01*
X91446754Y-123645513D01*
X91434199Y-123659152D01*
X91377450Y-123694575D01*
X91310568Y-123695956D01*
X91252405Y-123662907D01*
X91211197Y-123621699D01*
X91211196Y-123621698D01*
X91207300Y-123617802D01*
X91096483Y-123540207D01*
X91024257Y-123489633D01*
X91024252Y-123489630D01*
X91019749Y-123486477D01*
X91014761Y-123484151D01*
X90817225Y-123392039D01*
X90817223Y-123392038D01*
X90812243Y-123389716D01*
X90591087Y-123330457D01*
X90585611Y-123329977D01*
X90585606Y-123329977D01*
X90532098Y-123325296D01*
X90469807Y-123302279D01*
X90427869Y-123250790D01*
X90417934Y-123185130D01*
X90442761Y-123123538D01*
X90465811Y-123105858D01*
X90474516Y-123095785D01*
X90484968Y-123091164D01*
X90495453Y-123083123D01*
X90501876Y-123080501D01*
X90501879Y-123080500D01*
X90501887Y-123080500D01*
X90502989Y-123083200D01*
X90503126Y-123083139D01*
X90502033Y-123080501D01*
X90512715Y-123076076D01*
X90513304Y-123075834D01*
X90517200Y-123074242D01*
X90536073Y-123066536D01*
X90536141Y-123066372D01*
X90536305Y-123066305D01*
X90545843Y-123043276D01*
X90547264Y-123039893D01*
X90550444Y-123032327D01*
X90550554Y-123032373D01*
X90550580Y-123032238D01*
X90550439Y-123032180D01*
X90550439Y-123032179D01*
X90555485Y-123020000D01*
X90552289Y-123012285D01*
X90550625Y-122994941D01*
X90570380Y-119043873D01*
X90572949Y-119043885D01*
X90572885Y-119042727D01*
X90571396Y-119042783D01*
X90570891Y-119029299D01*
X90570603Y-119021623D01*
X90570553Y-119018501D01*
X90570508Y-119018313D01*
X90570559Y-119008268D01*
X90570057Y-119007040D01*
X90570008Y-119005712D01*
X90565821Y-118996587D01*
X90565786Y-118996402D01*
X90564518Y-118993474D01*
X90556536Y-118973926D01*
X90557933Y-118973355D01*
X90557515Y-118972268D01*
X90555161Y-118973349D01*
X89694619Y-117097562D01*
X89683405Y-117036915D01*
X89695847Y-116844047D01*
X89706790Y-116800220D01*
X89732488Y-116763070D01*
X89775059Y-116720499D01*
X89788331Y-116709607D01*
X89796305Y-116706305D01*
X89810500Y-116672035D01*
X89815485Y-116660000D01*
X89812183Y-116652028D01*
X89810500Y-116634938D01*
X89810500Y-116164683D01*
X89812098Y-116147905D01*
X89815484Y-116139583D01*
X89805965Y-116117011D01*
X89805698Y-116116371D01*
X89801044Y-116105134D01*
X89801041Y-116105129D01*
X89796305Y-116093695D01*
X89796096Y-116093608D01*
X89796009Y-116093401D01*
X89784630Y-116088772D01*
X89784628Y-116088771D01*
X89773306Y-116084166D01*
X89772791Y-116083955D01*
X89750000Y-116074515D01*
X89741700Y-116077952D01*
X89724927Y-116079658D01*
X88206642Y-116089328D01*
X88187835Y-116087310D01*
X88181559Y-116084534D01*
X88169987Y-116089006D01*
X88169983Y-116089007D01*
X88168526Y-116089571D01*
X88168413Y-116089281D01*
X88167511Y-116089438D01*
X88167572Y-116089581D01*
X88159073Y-116093164D01*
X88155563Y-116094582D01*
X88146208Y-116098198D01*
X88146201Y-116098202D01*
X88134810Y-116102606D01*
X88134379Y-116103578D01*
X88133401Y-116103991D01*
X88128803Y-116115291D01*
X88128802Y-116115294D01*
X88125010Y-116124615D01*
X88123538Y-116128083D01*
X88119808Y-116136519D01*
X88119664Y-116136455D01*
X88119492Y-116137354D01*
X88119781Y-116137472D01*
X88114516Y-116150417D01*
X88117183Y-116156743D01*
X88118873Y-116175582D01*
X88110043Y-116546450D01*
X88108832Y-116561135D01*
X88108719Y-116561926D01*
X88104616Y-116573632D01*
X88109992Y-116584813D01*
X88109993Y-116584816D01*
X88112266Y-116589542D01*
X88116232Y-116598703D01*
X88118130Y-116603613D01*
X88118131Y-116603615D01*
X88122606Y-116615190D01*
X88133959Y-116620211D01*
X88134593Y-116620657D01*
X88146125Y-116629819D01*
X88257519Y-116729487D01*
X88288526Y-116771956D01*
X88299500Y-116823385D01*
X88299500Y-117000701D01*
X88288786Y-117051545D01*
X87454434Y-118943388D01*
X87451885Y-118942264D01*
X87451656Y-118942854D01*
X87453694Y-118943698D01*
X87444909Y-118964903D01*
X87444215Y-118966524D01*
X87444202Y-118966585D01*
X87439788Y-118976598D01*
X87439771Y-118977308D01*
X87439500Y-118977965D01*
X87439500Y-118988920D01*
X87439487Y-118988978D01*
X87439468Y-118990708D01*
X87438947Y-119013682D01*
X87436746Y-119013632D01*
X87436719Y-119014261D01*
X87439500Y-119014261D01*
X87439500Y-121229405D01*
X87425767Y-121286608D01*
X87387561Y-121331341D01*
X87333211Y-121353854D01*
X87274564Y-121349238D01*
X87224405Y-121318500D01*
X86273646Y-120367741D01*
X86266112Y-120359463D01*
X86262000Y-120352982D01*
X86212348Y-120306356D01*
X86209506Y-120303601D01*
X86192574Y-120286669D01*
X86189770Y-120283865D01*
X86186575Y-120281386D01*
X86177554Y-120273682D01*
X86151097Y-120248838D01*
X86145321Y-120243414D01*
X86138377Y-120239596D01*
X86138371Y-120239592D01*
X86127566Y-120233652D01*
X86111047Y-120222801D01*
X86095041Y-120210386D01*
X86087766Y-120207238D01*
X86087763Y-120207236D01*
X86054466Y-120192828D01*
X86043804Y-120187605D01*
X86012007Y-120170124D01*
X86012005Y-120170123D01*
X86005060Y-120166305D01*
X85997383Y-120164334D01*
X85997381Y-120164333D01*
X85988031Y-120161932D01*
X85985436Y-120161266D01*
X85966734Y-120154863D01*
X85955420Y-120149967D01*
X85955418Y-120149966D01*
X85948145Y-120146819D01*
X85940319Y-120145579D01*
X85940318Y-120145579D01*
X85904475Y-120139902D01*
X85892859Y-120137496D01*
X85850030Y-120126500D01*
X85842101Y-120126500D01*
X85829776Y-120126500D01*
X85810065Y-120124949D01*
X85797885Y-120123019D01*
X85797878Y-120123018D01*
X85790057Y-120121780D01*
X85782173Y-120122525D01*
X85782165Y-120122525D01*
X85746039Y-120125941D01*
X85734181Y-120126500D01*
X84328767Y-120126500D01*
X84317583Y-120125972D01*
X84310091Y-120124298D01*
X84302165Y-120124547D01*
X84242014Y-120126438D01*
X84238055Y-120126500D01*
X84210144Y-120126500D01*
X84206218Y-120126995D01*
X84206200Y-120126997D01*
X84206108Y-120127009D01*
X84194303Y-120127937D01*
X84158030Y-120129077D01*
X84158022Y-120129078D01*
X84150110Y-120129327D01*
X84142503Y-120131536D01*
X84142502Y-120131537D01*
X84130655Y-120134979D01*
X84111306Y-120138986D01*
X84099062Y-120140533D01*
X84091203Y-120141526D01*
X84083841Y-120144440D01*
X84083832Y-120144443D01*
X84050097Y-120157800D01*
X84038870Y-120161645D01*
X84004012Y-120171772D01*
X84004008Y-120171773D01*
X83996407Y-120173982D01*
X83989591Y-120178012D01*
X83989583Y-120178016D01*
X83978960Y-120184298D01*
X83961221Y-120192989D01*
X83949749Y-120197531D01*
X83949746Y-120197532D01*
X83942383Y-120200448D01*
X83935976Y-120205102D01*
X83935972Y-120205105D01*
X83906611Y-120226437D01*
X83896693Y-120232951D01*
X83865465Y-120251419D01*
X83865457Y-120251425D01*
X83858638Y-120255458D01*
X83853036Y-120261058D01*
X83853029Y-120261065D01*
X83844308Y-120269786D01*
X83829287Y-120282615D01*
X83819307Y-120289866D01*
X83819298Y-120289873D01*
X83812893Y-120294528D01*
X83807845Y-120300628D01*
X83807836Y-120300638D01*
X83784700Y-120328604D01*
X83776713Y-120337381D01*
X82597742Y-121516351D01*
X82589459Y-121523888D01*
X82582982Y-121528000D01*
X82577559Y-121533774D01*
X82577560Y-121533774D01*
X82536370Y-121577636D01*
X82533621Y-121580472D01*
X82516667Y-121597427D01*
X82516660Y-121597434D01*
X82513865Y-121600230D01*
X82511442Y-121603352D01*
X82511426Y-121603371D01*
X82511365Y-121603451D01*
X82503690Y-121612435D01*
X82478838Y-121638902D01*
X82478835Y-121638904D01*
X82473414Y-121644679D01*
X82469600Y-121651614D01*
X82469592Y-121651627D01*
X82463650Y-121662436D01*
X82452803Y-121678949D01*
X82445243Y-121688695D01*
X82445237Y-121688704D01*
X82440386Y-121694959D01*
X82437242Y-121702223D01*
X82437238Y-121702231D01*
X82422824Y-121735540D01*
X82417604Y-121746195D01*
X82400125Y-121777989D01*
X82400121Y-121777997D01*
X82396305Y-121784940D01*
X82394333Y-121792616D01*
X82394331Y-121792624D01*
X82391266Y-121804562D01*
X82384865Y-121823259D01*
X82379968Y-121834576D01*
X82379966Y-121834581D01*
X82376819Y-121841855D01*
X82375579Y-121849680D01*
X82375577Y-121849689D01*
X82369901Y-121885524D01*
X82367495Y-121897144D01*
X82358471Y-121932289D01*
X82358469Y-121932297D01*
X82356500Y-121939970D01*
X82356500Y-121947899D01*
X82356500Y-121960224D01*
X82354949Y-121979935D01*
X82353019Y-121992114D01*
X82353018Y-121992121D01*
X82351780Y-121999943D01*
X82352525Y-122007826D01*
X82352525Y-122007834D01*
X82355941Y-122043961D01*
X82356500Y-122055819D01*
X82356500Y-123365405D01*
X82346909Y-123413623D01*
X82319595Y-123454501D01*
X81824805Y-123949289D01*
X81777770Y-123978966D01*
X81722539Y-123985503D01*
X81669875Y-123967626D01*
X81524183Y-123878346D01*
X81524182Y-123878345D01*
X81519963Y-123875760D01*
X81372999Y-123814886D01*
X81305167Y-123786789D01*
X81305164Y-123786788D01*
X81300594Y-123784895D01*
X81295786Y-123783740D01*
X81295781Y-123783739D01*
X81074523Y-123730620D01*
X81074519Y-123730619D01*
X81069711Y-123729465D01*
X81064785Y-123729077D01*
X81064777Y-123729076D01*
X80837930Y-123711223D01*
X80833000Y-123710835D01*
X80828070Y-123711223D01*
X80601222Y-123729076D01*
X80601212Y-123729077D01*
X80596289Y-123729465D01*
X80591482Y-123730619D01*
X80591476Y-123730620D01*
X80370218Y-123783739D01*
X80370209Y-123783741D01*
X80365406Y-123784895D01*
X80360838Y-123786786D01*
X80360832Y-123786789D01*
X80150611Y-123873865D01*
X80150606Y-123873867D01*
X80146037Y-123875760D01*
X80141817Y-123878345D01*
X80141817Y-123878346D01*
X79947798Y-123997241D01*
X79947792Y-123997245D01*
X79943584Y-123999824D01*
X79939834Y-124003026D01*
X79939824Y-124003034D01*
X79766786Y-124150823D01*
X79766779Y-124150829D01*
X79763031Y-124154031D01*
X79759829Y-124157779D01*
X79759823Y-124157786D01*
X79612034Y-124330824D01*
X79612026Y-124330834D01*
X79608824Y-124334584D01*
X79606245Y-124338792D01*
X79606241Y-124338798D01*
X79493508Y-124522762D01*
X79484760Y-124537037D01*
X79482867Y-124541606D01*
X79482865Y-124541611D01*
X79395789Y-124751832D01*
X79395786Y-124751838D01*
X79393895Y-124756406D01*
X79392741Y-124761209D01*
X79392739Y-124761218D01*
X79359958Y-124897762D01*
X79338465Y-124987289D01*
X79338077Y-124992212D01*
X79338076Y-124992222D01*
X79323553Y-125176760D01*
X79319835Y-125224000D01*
X79320223Y-125228930D01*
X79338076Y-125455777D01*
X79338077Y-125455785D01*
X79338465Y-125460711D01*
X79339619Y-125465519D01*
X79339620Y-125465523D01*
X79392739Y-125686781D01*
X79392740Y-125686786D01*
X79393895Y-125691594D01*
X79395788Y-125696164D01*
X79395789Y-125696167D01*
X79450098Y-125827281D01*
X79484760Y-125910963D01*
X79608824Y-126113416D01*
X79612031Y-126117171D01*
X79612034Y-126117175D01*
X79659065Y-126172241D01*
X79763031Y-126293969D01*
X79766786Y-126297176D01*
X79891099Y-126403350D01*
X79943584Y-126448176D01*
X80146037Y-126572240D01*
X80365406Y-126663105D01*
X80596289Y-126718535D01*
X80833000Y-126737165D01*
X81069711Y-126718535D01*
X81300594Y-126663105D01*
X81519963Y-126572240D01*
X81722416Y-126448176D01*
X81902969Y-126293969D01*
X82057176Y-126113416D01*
X82181240Y-125910963D01*
X82272105Y-125691594D01*
X82327535Y-125460711D01*
X82342882Y-125265710D01*
X82354067Y-125222849D01*
X82379395Y-125186508D01*
X83382264Y-124183639D01*
X83390535Y-124176113D01*
X83397018Y-124172000D01*
X83443661Y-124122328D01*
X83446353Y-124119550D01*
X83466135Y-124099770D01*
X83468613Y-124096574D01*
X83476307Y-124087564D01*
X83504615Y-124057419D01*
X83565792Y-124021464D01*
X83586014Y-124022264D01*
X83571539Y-123981787D01*
X83579715Y-123922410D01*
X83579871Y-123922014D01*
X83583695Y-123915060D01*
X83588733Y-123895434D01*
X83595134Y-123876737D01*
X83603181Y-123858145D01*
X83610096Y-123814477D01*
X83612504Y-123802853D01*
X83621529Y-123767705D01*
X83623500Y-123760030D01*
X83623500Y-123739776D01*
X83625051Y-123720065D01*
X83626980Y-123707885D01*
X83628220Y-123700057D01*
X83624058Y-123656038D01*
X83623500Y-123644181D01*
X83623500Y-123569927D01*
X83638146Y-123510968D01*
X83678678Y-123465715D01*
X83735674Y-123444688D01*
X83795884Y-123452775D01*
X83845311Y-123488097D01*
X83889817Y-123540207D01*
X83889823Y-123540213D01*
X83893031Y-123543969D01*
X83896786Y-123547176D01*
X83988884Y-123625836D01*
X84027159Y-123683560D01*
X84029143Y-123752792D01*
X83994238Y-123812613D01*
X83911745Y-123891675D01*
X83911735Y-123891685D01*
X83907882Y-123895379D01*
X83904706Y-123899672D01*
X83904700Y-123899680D01*
X83798171Y-124043718D01*
X83752091Y-124082047D01*
X83705963Y-124092049D01*
X83721783Y-124130602D01*
X83708972Y-124200399D01*
X83661203Y-124295143D01*
X83661196Y-124295157D01*
X83658793Y-124299926D01*
X83657228Y-124305033D01*
X83657225Y-124305043D01*
X83590550Y-124522762D01*
X83588984Y-124527877D01*
X83588304Y-124533181D01*
X83588304Y-124533185D01*
X83559381Y-124759037D01*
X83559380Y-124759047D01*
X83558702Y-124764346D01*
X83558929Y-124769691D01*
X83558929Y-124769693D01*
X83568592Y-124997179D01*
X83568592Y-124997186D01*
X83568820Y-125002532D01*
X83569947Y-125007765D01*
X83569948Y-125007766D01*
X83617917Y-125230345D01*
X83617918Y-125230351D01*
X83619046Y-125235581D01*
X83621041Y-125240547D01*
X83621044Y-125240555D01*
X83637854Y-125282388D01*
X83645663Y-125347259D01*
X83619932Y-125407320D01*
X83567580Y-125446417D01*
X83546762Y-125454712D01*
X83546756Y-125454714D01*
X83543583Y-125455979D01*
X83540579Y-125457571D01*
X83540563Y-125457579D01*
X83223202Y-125625833D01*
X83223185Y-125625843D01*
X83220192Y-125627430D01*
X83217385Y-125629333D01*
X83217372Y-125629341D01*
X82920059Y-125830925D01*
X82920051Y-125830930D01*
X82917234Y-125832841D01*
X82914634Y-125835049D01*
X82914628Y-125835054D01*
X82640857Y-126067597D01*
X82640847Y-126067606D01*
X82638261Y-126069803D01*
X82635930Y-126072263D01*
X82635915Y-126072278D01*
X82388895Y-126333054D01*
X82388886Y-126333063D01*
X82386543Y-126335538D01*
X82384476Y-126338256D01*
X82384476Y-126338257D01*
X82167102Y-126624207D01*
X82167095Y-126624215D01*
X82165032Y-126626931D01*
X82163274Y-126629851D01*
X82163267Y-126629863D01*
X81978086Y-126937638D01*
X81976325Y-126940565D01*
X81974895Y-126943655D01*
X81974888Y-126943669D01*
X81824066Y-127269665D01*
X81824061Y-127269676D01*
X81822633Y-127272764D01*
X81821547Y-127275985D01*
X81821543Y-127275997D01*
X81706850Y-127616395D01*
X81706846Y-127616406D01*
X81705760Y-127619632D01*
X81705029Y-127622951D01*
X81705025Y-127622967D01*
X81629439Y-127966358D01*
X81627074Y-127977103D01*
X81626705Y-127980493D01*
X81626705Y-127980495D01*
X81587869Y-128337587D01*
X81587868Y-128337599D01*
X81587500Y-128340986D01*
X81587500Y-128707014D01*
X81587868Y-128710401D01*
X81587869Y-128710412D01*
X81607457Y-128890523D01*
X81627074Y-129070897D01*
X81627806Y-129074224D01*
X81627807Y-129074228D01*
X81705025Y-129425032D01*
X81705028Y-129425043D01*
X81705760Y-129428368D01*
X81706848Y-129431598D01*
X81706850Y-129431604D01*
X81813856Y-129749189D01*
X81822633Y-129775236D01*
X81824064Y-129778329D01*
X81824066Y-129778334D01*
X81916331Y-129977762D01*
X81976325Y-130107435D01*
X82056797Y-130241181D01*
X82155730Y-130405610D01*
X82165032Y-130421069D01*
X82386543Y-130712462D01*
X82388894Y-130714944D01*
X82388895Y-130714945D01*
X82635915Y-130975721D01*
X82635920Y-130975726D01*
X82638261Y-130978197D01*
X82917234Y-131215159D01*
X83220192Y-131420570D01*
X83223199Y-131422164D01*
X83223202Y-131422166D01*
X83540574Y-131590426D01*
X83540577Y-131590427D01*
X83543583Y-131592021D01*
X83579795Y-131606449D01*
X83634286Y-131648339D01*
X83658685Y-131712594D01*
X83645733Y-131780094D01*
X83599284Y-131830754D01*
X83533158Y-131849500D01*
X83263099Y-131849500D01*
X83263000Y-131849459D01*
X83262901Y-131849500D01*
X83262617Y-131849617D01*
X83262459Y-131850000D01*
X83262500Y-131850099D01*
X83262500Y-134849901D01*
X83262459Y-134850000D01*
X83262500Y-134850099D01*
X83262617Y-134850383D01*
X83263000Y-134850541D01*
X83263099Y-134850500D01*
X83842737Y-134850500D01*
X83900129Y-134864330D01*
X83944923Y-134902784D01*
X83967284Y-134957420D01*
X83969442Y-134971504D01*
X83989444Y-135102071D01*
X83991662Y-135108061D01*
X83991663Y-135108063D01*
X83996224Y-135120378D01*
X84001140Y-135191134D01*
X83967058Y-135253335D01*
X83904778Y-135287272D01*
X83834034Y-135282192D01*
X83776583Y-135260764D01*
X83776580Y-135260763D01*
X83769201Y-135258011D01*
X83761373Y-135257169D01*
X83761367Y-135257168D01*
X83711988Y-135251860D01*
X83711985Y-135251859D01*
X83708638Y-135251500D01*
X81911362Y-135251500D01*
X81908015Y-135251859D01*
X81908011Y-135251860D01*
X81858632Y-135257168D01*
X81858625Y-135257169D01*
X81850799Y-135258011D01*
X81843423Y-135260761D01*
X81843419Y-135260763D01*
X81722236Y-135305962D01*
X81722230Y-135305965D01*
X81713796Y-135309111D01*
X81706588Y-135314506D01*
X81706582Y-135314510D01*
X81603950Y-135391340D01*
X81603946Y-135391343D01*
X81596739Y-135396739D01*
X81591343Y-135403946D01*
X81591340Y-135403950D01*
X81514510Y-135506582D01*
X81514506Y-135506588D01*
X81509111Y-135513796D01*
X81505964Y-135522231D01*
X81505960Y-135522240D01*
X81465000Y-135632057D01*
X81428468Y-135684095D01*
X81371178Y-135711671D01*
X81307717Y-135707761D01*
X81254244Y-135673361D01*
X81215676Y-135631466D01*
X81193240Y-135607094D01*
X81015576Y-135468811D01*
X81010997Y-135466333D01*
X81010994Y-135466331D01*
X80822159Y-135364139D01*
X80822156Y-135364137D01*
X80817574Y-135361658D01*
X80812650Y-135359967D01*
X80812642Y-135359964D01*
X80609565Y-135290248D01*
X80609559Y-135290246D01*
X80604635Y-135288556D01*
X80599498Y-135287698D01*
X80599495Y-135287698D01*
X80387706Y-135252357D01*
X80387703Y-135252356D01*
X80382569Y-135251500D01*
X80157431Y-135251500D01*
X80152297Y-135252356D01*
X80152293Y-135252357D01*
X79940504Y-135287698D01*
X79940498Y-135287699D01*
X79935365Y-135288556D01*
X79930443Y-135290245D01*
X79930434Y-135290248D01*
X79727357Y-135359964D01*
X79727344Y-135359969D01*
X79722426Y-135361658D01*
X79717847Y-135364135D01*
X79717840Y-135364139D01*
X79529005Y-135466331D01*
X79528997Y-135466336D01*
X79524424Y-135468811D01*
X79520313Y-135472010D01*
X79520311Y-135472012D01*
X79350878Y-135603888D01*
X79350872Y-135603893D01*
X79346760Y-135607094D01*
X79343237Y-135610919D01*
X79343227Y-135610930D01*
X79197806Y-135768899D01*
X79197802Y-135768902D01*
X79194278Y-135772732D01*
X79191430Y-135777090D01*
X79191427Y-135777095D01*
X79073992Y-135956843D01*
X79071140Y-135961209D01*
X79069048Y-135965978D01*
X79069046Y-135965982D01*
X78982799Y-136162606D01*
X78982796Y-136162614D01*
X78980704Y-136167384D01*
X78925436Y-136385632D01*
X78925006Y-136390820D01*
X78925005Y-136390827D01*
X78907909Y-136597147D01*
X78906844Y-136610000D01*
X78925436Y-136834368D01*
X78980704Y-137052616D01*
X78982797Y-137057389D01*
X78982799Y-137057393D01*
X79049015Y-137208350D01*
X79071140Y-137258791D01*
X79194278Y-137447268D01*
X79225495Y-137481178D01*
X79343227Y-137609069D01*
X79343231Y-137609073D01*
X79346760Y-137612906D01*
X79524424Y-137751189D01*
X79529002Y-137753666D01*
X79529009Y-137753671D01*
X79545668Y-137762686D01*
X79593403Y-137808109D01*
X79611683Y-137871416D01*
X79595507Y-137935293D01*
X79549301Y-137982270D01*
X79485700Y-137999500D01*
X75890930Y-137999500D01*
X75878578Y-137998893D01*
X75854244Y-137996496D01*
X75852491Y-137996311D01*
X75716452Y-137980986D01*
X75693983Y-137976353D01*
X75646628Y-137961989D01*
X75635143Y-137958505D01*
X75630111Y-137956862D01*
X75536597Y-137924140D01*
X75518818Y-137916334D01*
X75458555Y-137884124D01*
X75450913Y-137879688D01*
X75372625Y-137830496D01*
X75359729Y-137821209D01*
X75305269Y-137776516D01*
X75296106Y-137768211D01*
X75231787Y-137703892D01*
X75223482Y-137694729D01*
X75178789Y-137640269D01*
X75169502Y-137627373D01*
X75144726Y-137587943D01*
X75120301Y-137549069D01*
X75115887Y-137541465D01*
X75083662Y-137481177D01*
X75075856Y-137463397D01*
X75075720Y-137463009D01*
X75064069Y-137429712D01*
X75057000Y-137388100D01*
X75057000Y-132284000D01*
X75761854Y-132284000D01*
X75762284Y-132289189D01*
X75780375Y-132507519D01*
X75780376Y-132507527D01*
X75780806Y-132512712D01*
X75782082Y-132517752D01*
X75782084Y-132517762D01*
X75806215Y-132613053D01*
X75837143Y-132735185D01*
X75839233Y-132739951D01*
X75839235Y-132739955D01*
X75887725Y-132850500D01*
X75929331Y-132945351D01*
X76054853Y-133137477D01*
X76058381Y-133141309D01*
X76206756Y-133302488D01*
X76206759Y-133302491D01*
X76210286Y-133306322D01*
X76391390Y-133447281D01*
X76593226Y-133556509D01*
X76643125Y-133573639D01*
X76698360Y-133611376D01*
X76726495Y-133672068D01*
X76719597Y-133738607D01*
X76679612Y-133792238D01*
X76671604Y-133798471D01*
X76671591Y-133798482D01*
X76667486Y-133801678D01*
X76663965Y-133805502D01*
X76663956Y-133805511D01*
X76515581Y-133966690D01*
X76515578Y-133966693D01*
X76512053Y-133970523D01*
X76509205Y-133974881D01*
X76509202Y-133974886D01*
X76423172Y-134106565D01*
X76386531Y-134162649D01*
X76384438Y-134167419D01*
X76384436Y-134167424D01*
X76296435Y-134368044D01*
X76296432Y-134368052D01*
X76294343Y-134372815D01*
X76293066Y-134377854D01*
X76293065Y-134377860D01*
X76239284Y-134590237D01*
X76239281Y-134590249D01*
X76238006Y-134595288D01*
X76237576Y-134600470D01*
X76237575Y-134600480D01*
X76229518Y-134697715D01*
X76219054Y-134824000D01*
X76219484Y-134829189D01*
X76237575Y-135047519D01*
X76237576Y-135047527D01*
X76238006Y-135052712D01*
X76239282Y-135057752D01*
X76239284Y-135057762D01*
X76289994Y-135258011D01*
X76294343Y-135275185D01*
X76296433Y-135279951D01*
X76296435Y-135279955D01*
X76347662Y-135396739D01*
X76386531Y-135485351D01*
X76512053Y-135677477D01*
X76543531Y-135711671D01*
X76663956Y-135842488D01*
X76663959Y-135842491D01*
X76667486Y-135846322D01*
X76848590Y-135987281D01*
X77050426Y-136096509D01*
X77055355Y-136098201D01*
X77055357Y-136098202D01*
X77151350Y-136131156D01*
X77267487Y-136171026D01*
X77493852Y-136208800D01*
X77718140Y-136208800D01*
X77723348Y-136208800D01*
X77949713Y-136171026D01*
X78166774Y-136096509D01*
X78368610Y-135987281D01*
X78549714Y-135846322D01*
X78705147Y-135677477D01*
X78830669Y-135485351D01*
X78922857Y-135275185D01*
X78979194Y-135052712D01*
X78998146Y-134824000D01*
X78979194Y-134595288D01*
X78922857Y-134372815D01*
X78830669Y-134162649D01*
X78777059Y-134080592D01*
X79207536Y-134080592D01*
X79209171Y-134090368D01*
X79209172Y-134090371D01*
X79226838Y-134195938D01*
X79228475Y-134205718D01*
X79233054Y-134214514D01*
X79275579Y-134296205D01*
X79287055Y-134318249D01*
X79377543Y-134407171D01*
X79491079Y-134463779D01*
X79584990Y-134477814D01*
X80348000Y-134471156D01*
X80441652Y-134455484D01*
X80554183Y-134396904D01*
X80643105Y-134306416D01*
X80699712Y-134192880D01*
X80718464Y-134067408D01*
X80697525Y-133942282D01*
X80638945Y-133829751D01*
X80614278Y-133805511D01*
X80566106Y-133758172D01*
X80548458Y-133740829D01*
X80539586Y-133736405D01*
X80539584Y-133736404D01*
X80443797Y-133688646D01*
X80434922Y-133684221D01*
X80425113Y-133682755D01*
X80345905Y-133670917D01*
X80345899Y-133670916D01*
X80341011Y-133670186D01*
X80336063Y-133670229D01*
X80336061Y-133670229D01*
X79582957Y-133676800D01*
X79582947Y-133676800D01*
X79578001Y-133676844D01*
X79573125Y-133677659D01*
X79573113Y-133677661D01*
X79494128Y-133690879D01*
X79494124Y-133690880D01*
X79484349Y-133692516D01*
X79475554Y-133697094D01*
X79475552Y-133697095D01*
X79380618Y-133746514D01*
X79380613Y-133746517D01*
X79371818Y-133751096D01*
X79364865Y-133758170D01*
X79364864Y-133758172D01*
X79289849Y-133834508D01*
X79289847Y-133834510D01*
X79282896Y-133841584D01*
X79278470Y-133850459D01*
X79278469Y-133850462D01*
X79230713Y-133946244D01*
X79226288Y-133955120D01*
X79224822Y-133964926D01*
X79224822Y-133964928D01*
X79209001Y-134070785D01*
X79209001Y-134070789D01*
X79207536Y-134080592D01*
X78777059Y-134080592D01*
X78705147Y-133970523D01*
X78594623Y-133850462D01*
X78553243Y-133805511D01*
X78553239Y-133805508D01*
X78549714Y-133801678D01*
X78368610Y-133660719D01*
X78207698Y-133573638D01*
X78171359Y-133553972D01*
X78171356Y-133553970D01*
X78166774Y-133551491D01*
X78161850Y-133549800D01*
X78161842Y-133549797D01*
X78116873Y-133534360D01*
X78061636Y-133496620D01*
X78033503Y-133435925D01*
X78040405Y-133369383D01*
X78080396Y-133315754D01*
X78081784Y-133314672D01*
X78092514Y-133306322D01*
X78247947Y-133137477D01*
X78373469Y-132945351D01*
X78465657Y-132735185D01*
X78521994Y-132512712D01*
X78540946Y-132284000D01*
X78521994Y-132055288D01*
X78465657Y-131832815D01*
X78373469Y-131622649D01*
X78247947Y-131430523D01*
X78092514Y-131261678D01*
X78088401Y-131258477D01*
X78088396Y-131258472D01*
X78080391Y-131252241D01*
X78040403Y-131198611D01*
X78033504Y-131132070D01*
X78061638Y-131071376D01*
X78116871Y-131033640D01*
X78166774Y-131016509D01*
X78368610Y-130907281D01*
X78549714Y-130766322D01*
X78705147Y-130597477D01*
X78830669Y-130405351D01*
X78922857Y-130195185D01*
X78979194Y-129972712D01*
X78998128Y-129744215D01*
X79014603Y-129691580D01*
X79051985Y-129651022D01*
X79103109Y-129630317D01*
X79158179Y-129633434D01*
X79250690Y-129659756D01*
X79409806Y-129674500D01*
X79513281Y-129674500D01*
X79516194Y-129674500D01*
X79675310Y-129659756D01*
X79880389Y-129601405D01*
X80071255Y-129506366D01*
X80241407Y-129377872D01*
X80385052Y-129220302D01*
X80497298Y-129039019D01*
X80574321Y-128840198D01*
X80613500Y-128630610D01*
X80613500Y-128417390D01*
X80574321Y-128207802D01*
X80497298Y-128008981D01*
X80385052Y-127827698D01*
X80381132Y-127823398D01*
X80381129Y-127823394D01*
X80245332Y-127674433D01*
X80245329Y-127674430D01*
X80241407Y-127670128D01*
X80209846Y-127646294D01*
X80075905Y-127545145D01*
X80075900Y-127545142D01*
X80071255Y-127541634D01*
X80066042Y-127539038D01*
X80066040Y-127539037D01*
X79885600Y-127449189D01*
X79885593Y-127449186D01*
X79880389Y-127446595D01*
X79874791Y-127445002D01*
X79874788Y-127445001D01*
X79680909Y-127389837D01*
X79680908Y-127389836D01*
X79675310Y-127388244D01*
X79669515Y-127387707D01*
X79519089Y-127373768D01*
X79519083Y-127373767D01*
X79516194Y-127373500D01*
X79409806Y-127373500D01*
X79406917Y-127373767D01*
X79406910Y-127373768D01*
X79256484Y-127387707D01*
X79256482Y-127387707D01*
X79250690Y-127388244D01*
X79245093Y-127389836D01*
X79245090Y-127389837D01*
X79051211Y-127445001D01*
X79051204Y-127445003D01*
X79045611Y-127446595D01*
X79040410Y-127449184D01*
X79040399Y-127449189D01*
X78859959Y-127539037D01*
X78859952Y-127539040D01*
X78854745Y-127541634D01*
X78850103Y-127545139D01*
X78850094Y-127545145D01*
X78695290Y-127662049D01*
X78638645Y-127686014D01*
X78577404Y-127680309D01*
X78526160Y-127646294D01*
X78497124Y-127592073D01*
X78497214Y-127530567D01*
X78513690Y-127465505D01*
X78521994Y-127432712D01*
X78540946Y-127204000D01*
X78521994Y-126975288D01*
X78465657Y-126752815D01*
X78373469Y-126542649D01*
X78247947Y-126350523D01*
X78120275Y-126211834D01*
X78096043Y-126185511D01*
X78096039Y-126185508D01*
X78092514Y-126181678D01*
X78088401Y-126178477D01*
X78088396Y-126178472D01*
X78080391Y-126172241D01*
X78040403Y-126118611D01*
X78033504Y-126052070D01*
X78061638Y-125991376D01*
X78116871Y-125953640D01*
X78166774Y-125936509D01*
X78368610Y-125827281D01*
X78549714Y-125686322D01*
X78705147Y-125517477D01*
X78830669Y-125325351D01*
X78922857Y-125115185D01*
X78979194Y-124892712D01*
X78998146Y-124664000D01*
X78979194Y-124435288D01*
X78922857Y-124212815D01*
X78830669Y-124002649D01*
X78705147Y-123810523D01*
X78621776Y-123719958D01*
X78553243Y-123645511D01*
X78553239Y-123645508D01*
X78549714Y-123641678D01*
X78368610Y-123500719D01*
X78207698Y-123413638D01*
X78171359Y-123393972D01*
X78171356Y-123393970D01*
X78166774Y-123391491D01*
X78161850Y-123389800D01*
X78161842Y-123389797D01*
X78116873Y-123374360D01*
X78061636Y-123336620D01*
X78033503Y-123275925D01*
X78040405Y-123209383D01*
X78080396Y-123155754D01*
X78081784Y-123154672D01*
X78092514Y-123146322D01*
X78247947Y-122977477D01*
X78373469Y-122785351D01*
X78465657Y-122575185D01*
X78521994Y-122352712D01*
X78540946Y-122124000D01*
X78521994Y-121895288D01*
X78519521Y-121885524D01*
X78484239Y-121746195D01*
X78465657Y-121672815D01*
X78373469Y-121462649D01*
X78247947Y-121270523D01*
X78092514Y-121101678D01*
X78088401Y-121098477D01*
X78088396Y-121098472D01*
X78080391Y-121092241D01*
X78040403Y-121038611D01*
X78033504Y-120972070D01*
X78061638Y-120911376D01*
X78116871Y-120873640D01*
X78166774Y-120856509D01*
X78368610Y-120747281D01*
X78549714Y-120606322D01*
X78705147Y-120437477D01*
X78830669Y-120245351D01*
X78922857Y-120035185D01*
X78979194Y-119812712D01*
X78998146Y-119584000D01*
X78979194Y-119355288D01*
X78922857Y-119132815D01*
X78830669Y-118922649D01*
X78705147Y-118730523D01*
X78549714Y-118561678D01*
X78368610Y-118420719D01*
X78179177Y-118318203D01*
X78171359Y-118313972D01*
X78171356Y-118313970D01*
X78166774Y-118311491D01*
X78161850Y-118309800D01*
X78161842Y-118309797D01*
X78116873Y-118294360D01*
X78061636Y-118256620D01*
X78033503Y-118195925D01*
X78040405Y-118129383D01*
X78080396Y-118075754D01*
X78081784Y-118074672D01*
X78092514Y-118066322D01*
X78247947Y-117897477D01*
X78373469Y-117705351D01*
X78465657Y-117495185D01*
X78521994Y-117272712D01*
X78540946Y-117044000D01*
X78521994Y-116815288D01*
X78465657Y-116592815D01*
X78373469Y-116382649D01*
X78247947Y-116190523D01*
X78155023Y-116089581D01*
X78096043Y-116025511D01*
X78096039Y-116025508D01*
X78092514Y-116021678D01*
X78087479Y-116017759D01*
X78079921Y-116011876D01*
X78039932Y-115958245D01*
X78033032Y-115891704D01*
X78061166Y-115831010D01*
X78116403Y-115793271D01*
X78161645Y-115777740D01*
X78171158Y-115773567D01*
X78363753Y-115669340D01*
X78372448Y-115663659D01*
X78378891Y-115658644D01*
X78387128Y-115647273D01*
X78380360Y-115634970D01*
X77620329Y-114874939D01*
X77608599Y-114868167D01*
X77596871Y-114874938D01*
X76836837Y-115634971D01*
X76824426Y-115657533D01*
X76795130Y-115693230D01*
X76754940Y-115715974D01*
X76598158Y-115769797D01*
X76598149Y-115769800D01*
X76593226Y-115771491D01*
X76588647Y-115773968D01*
X76588640Y-115773972D01*
X76395972Y-115878239D01*
X76395968Y-115878241D01*
X76391390Y-115880719D01*
X76387284Y-115883914D01*
X76387279Y-115883918D01*
X76214406Y-116018471D01*
X76210286Y-116021678D01*
X76206765Y-116025502D01*
X76206756Y-116025511D01*
X76058381Y-116186690D01*
X76058378Y-116186693D01*
X76054853Y-116190523D01*
X76052005Y-116194881D01*
X76052002Y-116194886D01*
X75962449Y-116331958D01*
X75929331Y-116382649D01*
X75927238Y-116387419D01*
X75927236Y-116387424D01*
X75839235Y-116588044D01*
X75839232Y-116588052D01*
X75837143Y-116592815D01*
X75835866Y-116597854D01*
X75835865Y-116597860D01*
X75782084Y-116810237D01*
X75782081Y-116810249D01*
X75780806Y-116815288D01*
X75780376Y-116820470D01*
X75780375Y-116820480D01*
X75765442Y-117000701D01*
X75761854Y-117044000D01*
X75762284Y-117049189D01*
X75780375Y-117267519D01*
X75780376Y-117267527D01*
X75780806Y-117272712D01*
X75782082Y-117277752D01*
X75782084Y-117277762D01*
X75835865Y-117490139D01*
X75837143Y-117495185D01*
X75929331Y-117705351D01*
X76054853Y-117897477D01*
X76058381Y-117901309D01*
X76206756Y-118062488D01*
X76206759Y-118062491D01*
X76210286Y-118066322D01*
X76391390Y-118207281D01*
X76593226Y-118316509D01*
X76643125Y-118333639D01*
X76698360Y-118371376D01*
X76726495Y-118432068D01*
X76719597Y-118498607D01*
X76679612Y-118552238D01*
X76671604Y-118558471D01*
X76671591Y-118558482D01*
X76667486Y-118561678D01*
X76663965Y-118565502D01*
X76663956Y-118565511D01*
X76515581Y-118726690D01*
X76515578Y-118726693D01*
X76512053Y-118730523D01*
X76509205Y-118734881D01*
X76509202Y-118734886D01*
X76389383Y-118918283D01*
X76386531Y-118922649D01*
X76384438Y-118927419D01*
X76384436Y-118927424D01*
X76296435Y-119128044D01*
X76296432Y-119128052D01*
X76294343Y-119132815D01*
X76293066Y-119137854D01*
X76293065Y-119137860D01*
X76239284Y-119350237D01*
X76239281Y-119350249D01*
X76238006Y-119355288D01*
X76237576Y-119360470D01*
X76237575Y-119360480D01*
X76219908Y-119573686D01*
X76219054Y-119584000D01*
X76219484Y-119589189D01*
X76237575Y-119807519D01*
X76237576Y-119807527D01*
X76238006Y-119812712D01*
X76239282Y-119817752D01*
X76239284Y-119817762D01*
X76293065Y-120030139D01*
X76294343Y-120035185D01*
X76296433Y-120039951D01*
X76296435Y-120039955D01*
X76368877Y-120205105D01*
X76386531Y-120245351D01*
X76512053Y-120437477D01*
X76515581Y-120441309D01*
X76663956Y-120602488D01*
X76663959Y-120602491D01*
X76667486Y-120606322D01*
X76671599Y-120609523D01*
X76671601Y-120609525D01*
X76679607Y-120615757D01*
X76719595Y-120669387D01*
X76726495Y-120735927D01*
X76698363Y-120796621D01*
X76643127Y-120834360D01*
X76598154Y-120849799D01*
X76598151Y-120849800D01*
X76593226Y-120851491D01*
X76588647Y-120853968D01*
X76588640Y-120853972D01*
X76395972Y-120958239D01*
X76395968Y-120958241D01*
X76391390Y-120960719D01*
X76387284Y-120963914D01*
X76387279Y-120963918D01*
X76214406Y-121098471D01*
X76210286Y-121101678D01*
X76206765Y-121105502D01*
X76206756Y-121105511D01*
X76058381Y-121266690D01*
X76058378Y-121266693D01*
X76054853Y-121270523D01*
X76052005Y-121274881D01*
X76052002Y-121274886D01*
X75958085Y-121418637D01*
X75929331Y-121462649D01*
X75927238Y-121467419D01*
X75927236Y-121467424D01*
X75839235Y-121668044D01*
X75839232Y-121668052D01*
X75837143Y-121672815D01*
X75835866Y-121677854D01*
X75835865Y-121677860D01*
X75782084Y-121890237D01*
X75782081Y-121890249D01*
X75780806Y-121895288D01*
X75780376Y-121900470D01*
X75780375Y-121900480D01*
X75771480Y-122007834D01*
X75761854Y-122124000D01*
X75762284Y-122129189D01*
X75780375Y-122347519D01*
X75780376Y-122347527D01*
X75780806Y-122352712D01*
X75782082Y-122357752D01*
X75782084Y-122357762D01*
X75835865Y-122570139D01*
X75837143Y-122575185D01*
X75929331Y-122785351D01*
X76054853Y-122977477D01*
X76105211Y-123032180D01*
X76206756Y-123142488D01*
X76206759Y-123142491D01*
X76210286Y-123146322D01*
X76391390Y-123287281D01*
X76593226Y-123396509D01*
X76643125Y-123413639D01*
X76698360Y-123451376D01*
X76726495Y-123512068D01*
X76719597Y-123578607D01*
X76679612Y-123632238D01*
X76671604Y-123638471D01*
X76671591Y-123638482D01*
X76667486Y-123641678D01*
X76663965Y-123645502D01*
X76663956Y-123645511D01*
X76515581Y-123806690D01*
X76515578Y-123806693D01*
X76512053Y-123810523D01*
X76509205Y-123814881D01*
X76509202Y-123814886D01*
X76395080Y-123989563D01*
X76386531Y-124002649D01*
X76384438Y-124007419D01*
X76384436Y-124007424D01*
X76296435Y-124208044D01*
X76296432Y-124208052D01*
X76294343Y-124212815D01*
X76293066Y-124217854D01*
X76293065Y-124217860D01*
X76239284Y-124430237D01*
X76239281Y-124430249D01*
X76238006Y-124435288D01*
X76237576Y-124440470D01*
X76237575Y-124440480D01*
X76221023Y-124640233D01*
X76219054Y-124664000D01*
X76219484Y-124669189D01*
X76237575Y-124887519D01*
X76237576Y-124887527D01*
X76238006Y-124892712D01*
X76239282Y-124897752D01*
X76239284Y-124897762D01*
X76291155Y-125102597D01*
X76294343Y-125115185D01*
X76296433Y-125119951D01*
X76296435Y-125119955D01*
X76372054Y-125292347D01*
X76386531Y-125325351D01*
X76512053Y-125517477D01*
X76515581Y-125521309D01*
X76663956Y-125682488D01*
X76663959Y-125682491D01*
X76667486Y-125686322D01*
X76671599Y-125689523D01*
X76671601Y-125689525D01*
X76679607Y-125695757D01*
X76719595Y-125749387D01*
X76726495Y-125815927D01*
X76698363Y-125876621D01*
X76643127Y-125914360D01*
X76598154Y-125929799D01*
X76598151Y-125929800D01*
X76593226Y-125931491D01*
X76588647Y-125933968D01*
X76588640Y-125933972D01*
X76395972Y-126038239D01*
X76395968Y-126038241D01*
X76391390Y-126040719D01*
X76387284Y-126043914D01*
X76387279Y-126043918D01*
X76219968Y-126174142D01*
X76210286Y-126181678D01*
X76206765Y-126185502D01*
X76206756Y-126185511D01*
X76058381Y-126346690D01*
X76058378Y-126346693D01*
X76054853Y-126350523D01*
X76052005Y-126354881D01*
X76052002Y-126354886D01*
X75932183Y-126538283D01*
X75929331Y-126542649D01*
X75927238Y-126547419D01*
X75927236Y-126547424D01*
X75839235Y-126748044D01*
X75839232Y-126748052D01*
X75837143Y-126752815D01*
X75835866Y-126757854D01*
X75835865Y-126757860D01*
X75782084Y-126970237D01*
X75782081Y-126970249D01*
X75780806Y-126975288D01*
X75780376Y-126980470D01*
X75780375Y-126980480D01*
X75762708Y-127193686D01*
X75761854Y-127204000D01*
X75762284Y-127209189D01*
X75780375Y-127427519D01*
X75780376Y-127427527D01*
X75780806Y-127432712D01*
X75782082Y-127437752D01*
X75782084Y-127437762D01*
X75835865Y-127650139D01*
X75837143Y-127655185D01*
X75839233Y-127659951D01*
X75839235Y-127659955D01*
X75848163Y-127680309D01*
X75929331Y-127865351D01*
X76054853Y-128057477D01*
X76058381Y-128061309D01*
X76206756Y-128222488D01*
X76206759Y-128222491D01*
X76210286Y-128226322D01*
X76391390Y-128367281D01*
X76593226Y-128476509D01*
X76643125Y-128493639D01*
X76698360Y-128531376D01*
X76726495Y-128592068D01*
X76719597Y-128658607D01*
X76679612Y-128712238D01*
X76671604Y-128718471D01*
X76671591Y-128718482D01*
X76667486Y-128721678D01*
X76663965Y-128725502D01*
X76663956Y-128725511D01*
X76515581Y-128886690D01*
X76515578Y-128886693D01*
X76512053Y-128890523D01*
X76509205Y-128894881D01*
X76509202Y-128894886D01*
X76389383Y-129078283D01*
X76386531Y-129082649D01*
X76384438Y-129087419D01*
X76384436Y-129087424D01*
X76296435Y-129288044D01*
X76296432Y-129288052D01*
X76294343Y-129292815D01*
X76293066Y-129297854D01*
X76293065Y-129297860D01*
X76239284Y-129510237D01*
X76239281Y-129510249D01*
X76238006Y-129515288D01*
X76237576Y-129520470D01*
X76237575Y-129520480D01*
X76226167Y-129658162D01*
X76219054Y-129744000D01*
X76219484Y-129749189D01*
X76237575Y-129967519D01*
X76237576Y-129967527D01*
X76238006Y-129972712D01*
X76239282Y-129977752D01*
X76239284Y-129977762D01*
X76272122Y-130107435D01*
X76294343Y-130195185D01*
X76296433Y-130199951D01*
X76296435Y-130199955D01*
X76356451Y-130336776D01*
X76386531Y-130405351D01*
X76512053Y-130597477D01*
X76577223Y-130668271D01*
X76663956Y-130762488D01*
X76663959Y-130762491D01*
X76667486Y-130766322D01*
X76671599Y-130769523D01*
X76671601Y-130769525D01*
X76679607Y-130775757D01*
X76719595Y-130829387D01*
X76726495Y-130895927D01*
X76698363Y-130956621D01*
X76643127Y-130994360D01*
X76598154Y-131009799D01*
X76598151Y-131009800D01*
X76593226Y-131011491D01*
X76588647Y-131013968D01*
X76588640Y-131013972D01*
X76395972Y-131118239D01*
X76395968Y-131118241D01*
X76391390Y-131120719D01*
X76387284Y-131123914D01*
X76387279Y-131123918D01*
X76214406Y-131258471D01*
X76210286Y-131261678D01*
X76206765Y-131265502D01*
X76206756Y-131265511D01*
X76058381Y-131426690D01*
X76058378Y-131426693D01*
X76054853Y-131430523D01*
X76052005Y-131434881D01*
X76052002Y-131434886D01*
X75939915Y-131606449D01*
X75929331Y-131622649D01*
X75927238Y-131627419D01*
X75927236Y-131627424D01*
X75839235Y-131828044D01*
X75839232Y-131828052D01*
X75837143Y-131832815D01*
X75835866Y-131837854D01*
X75835865Y-131837860D01*
X75782084Y-132050237D01*
X75782081Y-132050249D01*
X75780806Y-132055288D01*
X75780376Y-132060470D01*
X75780375Y-132060480D01*
X75776929Y-132102071D01*
X75761854Y-132284000D01*
X75057000Y-132284000D01*
X75057000Y-114509189D01*
X76219986Y-114509189D01*
X76238070Y-114727436D01*
X76239779Y-114737679D01*
X76293540Y-114949976D01*
X76296910Y-114959792D01*
X76384878Y-115160338D01*
X76389821Y-115169473D01*
X76458834Y-115275105D01*
X76466925Y-115282949D01*
X76476459Y-115276929D01*
X77237659Y-114515730D01*
X77244432Y-114503999D01*
X77972767Y-114503999D01*
X77979539Y-114515729D01*
X78740740Y-115276930D01*
X78750272Y-115282949D01*
X78758367Y-115275101D01*
X78827378Y-115169473D01*
X78832321Y-115160338D01*
X78889233Y-115030592D01*
X79207536Y-115030592D01*
X79209171Y-115040368D01*
X79209172Y-115040371D01*
X79226838Y-115145938D01*
X79228475Y-115155718D01*
X79287055Y-115268249D01*
X79377543Y-115357171D01*
X79491079Y-115413779D01*
X79584990Y-115427814D01*
X80348000Y-115421156D01*
X80441652Y-115405484D01*
X80554183Y-115346904D01*
X80643105Y-115256416D01*
X80699712Y-115142880D01*
X80718464Y-115017408D01*
X80697525Y-114892282D01*
X80638945Y-114779751D01*
X80548458Y-114690829D01*
X80539586Y-114686405D01*
X80539584Y-114686404D01*
X80443797Y-114638646D01*
X80434922Y-114634221D01*
X80425113Y-114632755D01*
X80345905Y-114620917D01*
X80345899Y-114620916D01*
X80341011Y-114620186D01*
X80336063Y-114620229D01*
X80336061Y-114620229D01*
X79582957Y-114626800D01*
X79582947Y-114626800D01*
X79578001Y-114626844D01*
X79573125Y-114627659D01*
X79573113Y-114627661D01*
X79494128Y-114640879D01*
X79494124Y-114640880D01*
X79484349Y-114642516D01*
X79475554Y-114647094D01*
X79475552Y-114647095D01*
X79380618Y-114696514D01*
X79380613Y-114696517D01*
X79371818Y-114701096D01*
X79364865Y-114708170D01*
X79364864Y-114708172D01*
X79289849Y-114784508D01*
X79289847Y-114784510D01*
X79282896Y-114791584D01*
X79278470Y-114800459D01*
X79278469Y-114800462D01*
X79230713Y-114896244D01*
X79226288Y-114905120D01*
X79224822Y-114914926D01*
X79224822Y-114914928D01*
X79209001Y-115020785D01*
X79209001Y-115020789D01*
X79207536Y-115030592D01*
X78889233Y-115030592D01*
X78920289Y-114959792D01*
X78923659Y-114949976D01*
X78977420Y-114737679D01*
X78979129Y-114727436D01*
X78997214Y-114509189D01*
X78997214Y-114498811D01*
X78979129Y-114280563D01*
X78977420Y-114270320D01*
X78923659Y-114058023D01*
X78920289Y-114048207D01*
X78832321Y-113847661D01*
X78827378Y-113838526D01*
X78758367Y-113732897D01*
X78750272Y-113725049D01*
X78740740Y-113731068D01*
X77979538Y-114492271D01*
X77972767Y-114503999D01*
X77244432Y-114503999D01*
X77237660Y-114492270D01*
X76476460Y-113731070D01*
X76466926Y-113725049D01*
X76458832Y-113732896D01*
X76389824Y-113838522D01*
X76384877Y-113847663D01*
X76296910Y-114048207D01*
X76293540Y-114058023D01*
X76239779Y-114270320D01*
X76238070Y-114280563D01*
X76219986Y-114498811D01*
X76219986Y-114509189D01*
X75057000Y-114509189D01*
X75057000Y-111964000D01*
X75761854Y-111964000D01*
X75762284Y-111969189D01*
X75780375Y-112187519D01*
X75780376Y-112187527D01*
X75780806Y-112192712D01*
X75782082Y-112197752D01*
X75782084Y-112197762D01*
X75825361Y-112368658D01*
X75837143Y-112415185D01*
X75839233Y-112419951D01*
X75839235Y-112419955D01*
X75917482Y-112598339D01*
X75929331Y-112625351D01*
X76054853Y-112817477D01*
X76058381Y-112821309D01*
X76206756Y-112982488D01*
X76206759Y-112982491D01*
X76210286Y-112986322D01*
X76391390Y-113127281D01*
X76593226Y-113236509D01*
X76598152Y-113238200D01*
X76598157Y-113238202D01*
X76630396Y-113249269D01*
X76754944Y-113292026D01*
X76795131Y-113314769D01*
X76824427Y-113350467D01*
X76836838Y-113373028D01*
X77596870Y-114133060D01*
X77608599Y-114139832D01*
X77620330Y-114133059D01*
X78380363Y-113373025D01*
X78387129Y-113360725D01*
X78378892Y-113349355D01*
X78372445Y-113344338D01*
X78363754Y-113338660D01*
X78171158Y-113234432D01*
X78161641Y-113230257D01*
X78116401Y-113214727D01*
X78061164Y-113176987D01*
X78033031Y-113116291D01*
X78039934Y-113049749D01*
X78079924Y-112996120D01*
X78092514Y-112986322D01*
X78247947Y-112817477D01*
X78373469Y-112625351D01*
X78465657Y-112415185D01*
X78521994Y-112192712D01*
X78540946Y-111964000D01*
X78521994Y-111735288D01*
X78465657Y-111512815D01*
X78373469Y-111302649D01*
X78247947Y-111110523D01*
X78092514Y-110941678D01*
X78088401Y-110938477D01*
X78088396Y-110938472D01*
X78080391Y-110932241D01*
X78040403Y-110878611D01*
X78033504Y-110812070D01*
X78061638Y-110751376D01*
X78116871Y-110713640D01*
X78166774Y-110696509D01*
X78368610Y-110587281D01*
X78549714Y-110446322D01*
X78591936Y-110400455D01*
X78643143Y-110366823D01*
X78704164Y-110361318D01*
X78760564Y-110385243D01*
X78854745Y-110456366D01*
X78859959Y-110458962D01*
X79012112Y-110534725D01*
X79045611Y-110551405D01*
X79250690Y-110609756D01*
X79409806Y-110624500D01*
X79513281Y-110624500D01*
X79516194Y-110624500D01*
X79675310Y-110609756D01*
X79880389Y-110551405D01*
X80071255Y-110456366D01*
X80241407Y-110327872D01*
X80385052Y-110170302D01*
X80497298Y-109989019D01*
X80574321Y-109790198D01*
X80599218Y-109657014D01*
X81587500Y-109657014D01*
X81587868Y-109660401D01*
X81587869Y-109660412D01*
X81606919Y-109835576D01*
X81627074Y-110020897D01*
X81627806Y-110024224D01*
X81627807Y-110024228D01*
X81705025Y-110375032D01*
X81705028Y-110375043D01*
X81705760Y-110378368D01*
X81706848Y-110381598D01*
X81706850Y-110381604D01*
X81818725Y-110713639D01*
X81822633Y-110725236D01*
X81824064Y-110728329D01*
X81824066Y-110728334D01*
X81921286Y-110938472D01*
X81976325Y-111057435D01*
X82165032Y-111371069D01*
X82386543Y-111662462D01*
X82388894Y-111664944D01*
X82388895Y-111664945D01*
X82635915Y-111925721D01*
X82635920Y-111925726D01*
X82638261Y-111928197D01*
X82917234Y-112165159D01*
X83220192Y-112370570D01*
X83223199Y-112372164D01*
X83223202Y-112372166D01*
X83540574Y-112540426D01*
X83540577Y-112540427D01*
X83543583Y-112542021D01*
X83579795Y-112556449D01*
X83634286Y-112598339D01*
X83658685Y-112662594D01*
X83645733Y-112730094D01*
X83599284Y-112780754D01*
X83533158Y-112799500D01*
X83263099Y-112799500D01*
X83263000Y-112799459D01*
X83262901Y-112799500D01*
X83262617Y-112799617D01*
X83262459Y-112800000D01*
X83262500Y-112800099D01*
X83262500Y-115799901D01*
X83262459Y-115800000D01*
X83262500Y-115800099D01*
X83262617Y-115800383D01*
X83263000Y-115800541D01*
X83263099Y-115800500D01*
X83842737Y-115800500D01*
X83900129Y-115814330D01*
X83944923Y-115852784D01*
X83967284Y-115907420D01*
X83973180Y-115945906D01*
X83989444Y-116052071D01*
X83991661Y-116058059D01*
X83991663Y-116058064D01*
X84044858Y-116201694D01*
X84060114Y-116242887D01*
X84063493Y-116248309D01*
X84063496Y-116248314D01*
X84164364Y-116410143D01*
X84164367Y-116410147D01*
X84167748Y-116415571D01*
X84307941Y-116563053D01*
X84474951Y-116679295D01*
X84661942Y-116759540D01*
X84861259Y-116800500D01*
X85010542Y-116800500D01*
X85013742Y-116800500D01*
X85165438Y-116785074D01*
X85359588Y-116724159D01*
X85537502Y-116625409D01*
X85691895Y-116492866D01*
X85816448Y-116331958D01*
X85906060Y-116149271D01*
X85957063Y-115952285D01*
X85958694Y-115920117D01*
X85977602Y-115859851D01*
X86023384Y-115816333D01*
X86084532Y-115800500D01*
X86662901Y-115800500D01*
X86663000Y-115800541D01*
X86663383Y-115800383D01*
X86663500Y-115800099D01*
X86663541Y-115800000D01*
X86663500Y-115799901D01*
X86663500Y-112800099D01*
X86663541Y-112800000D01*
X86663383Y-112799617D01*
X86663099Y-112799500D01*
X86663000Y-112799459D01*
X86662901Y-112799500D01*
X86392842Y-112799500D01*
X86326716Y-112780754D01*
X86280267Y-112730094D01*
X86267315Y-112662594D01*
X86291714Y-112598339D01*
X86346205Y-112556449D01*
X86382417Y-112542021D01*
X86705808Y-112370570D01*
X87008766Y-112165159D01*
X87287739Y-111928197D01*
X87539457Y-111662462D01*
X87760968Y-111371069D01*
X87949675Y-111057435D01*
X88103367Y-110725236D01*
X88220240Y-110378368D01*
X88298926Y-110020897D01*
X88338500Y-109657014D01*
X88338500Y-109290986D01*
X88298926Y-108927103D01*
X88220240Y-108569632D01*
X88103367Y-108222764D01*
X87949675Y-107890565D01*
X87760968Y-107576931D01*
X87539457Y-107285538D01*
X87380531Y-107117762D01*
X87290084Y-107022278D01*
X87290078Y-107022272D01*
X87287739Y-107019803D01*
X87008766Y-106782841D01*
X86898924Y-106708366D01*
X86708627Y-106579341D01*
X86708622Y-106579338D01*
X86705808Y-106577430D01*
X86702806Y-106575838D01*
X86702797Y-106575833D01*
X86385436Y-106407579D01*
X86385427Y-106407575D01*
X86382417Y-106405979D01*
X86379251Y-106404717D01*
X86379237Y-106404711D01*
X86358109Y-106396293D01*
X86308003Y-106359965D01*
X86281238Y-106304162D01*
X86284271Y-106242351D01*
X86337016Y-106070123D01*
X86367298Y-105833654D01*
X86357180Y-105595468D01*
X86306954Y-105362419D01*
X86218064Y-105141210D01*
X86093069Y-104938205D01*
X86089533Y-104934187D01*
X85939098Y-104763260D01*
X85939095Y-104763257D01*
X85935564Y-104759245D01*
X85934635Y-104758494D01*
X85900377Y-104699781D01*
X85902363Y-104630549D01*
X85940636Y-104572828D01*
X86032969Y-104493969D01*
X86187176Y-104313416D01*
X86311240Y-104110963D01*
X86402105Y-103891594D01*
X86457535Y-103660711D01*
X86476165Y-103424000D01*
X86457535Y-103187289D01*
X86402105Y-102956406D01*
X86311240Y-102737037D01*
X86187176Y-102534584D01*
X86032969Y-102354031D01*
X86029213Y-102350823D01*
X85856175Y-102203034D01*
X85856171Y-102203031D01*
X85852416Y-102199824D01*
X85649963Y-102075760D01*
X85430594Y-101984895D01*
X85425786Y-101983740D01*
X85425781Y-101983739D01*
X85204523Y-101930620D01*
X85204519Y-101930619D01*
X85199711Y-101929465D01*
X85194785Y-101929077D01*
X85194777Y-101929076D01*
X84967930Y-101911223D01*
X84963000Y-101910835D01*
X84958070Y-101911223D01*
X84731222Y-101929076D01*
X84731212Y-101929077D01*
X84726289Y-101929465D01*
X84721482Y-101930619D01*
X84721476Y-101930620D01*
X84500218Y-101983739D01*
X84500209Y-101983741D01*
X84495406Y-101984895D01*
X84490838Y-101986786D01*
X84490832Y-101986789D01*
X84280611Y-102073865D01*
X84280606Y-102073867D01*
X84276037Y-102075760D01*
X84271817Y-102078345D01*
X84271817Y-102078346D01*
X84077798Y-102197241D01*
X84077792Y-102197245D01*
X84073584Y-102199824D01*
X84069834Y-102203026D01*
X84069824Y-102203034D01*
X83896786Y-102350823D01*
X83896779Y-102350829D01*
X83893031Y-102354031D01*
X83889829Y-102357779D01*
X83889823Y-102357786D01*
X83742034Y-102530824D01*
X83742026Y-102530834D01*
X83738824Y-102534584D01*
X83736245Y-102538792D01*
X83736241Y-102538798D01*
X83617346Y-102732817D01*
X83614760Y-102737037D01*
X83612867Y-102741606D01*
X83612865Y-102741611D01*
X83525789Y-102951832D01*
X83525786Y-102951838D01*
X83523895Y-102956406D01*
X83522741Y-102961209D01*
X83522739Y-102961218D01*
X83469620Y-103182476D01*
X83468465Y-103187289D01*
X83468077Y-103192212D01*
X83468076Y-103192222D01*
X83450223Y-103419070D01*
X83449835Y-103424000D01*
X83450223Y-103428930D01*
X83468076Y-103655777D01*
X83468077Y-103655785D01*
X83468465Y-103660711D01*
X83469619Y-103665519D01*
X83469620Y-103665523D01*
X83522739Y-103886781D01*
X83522740Y-103886786D01*
X83523895Y-103891594D01*
X83614760Y-104110963D01*
X83738824Y-104313416D01*
X83742031Y-104317171D01*
X83742034Y-104317175D01*
X83889823Y-104490213D01*
X83893031Y-104493969D01*
X83896785Y-104497175D01*
X83896786Y-104497176D01*
X83988884Y-104575836D01*
X84027159Y-104633560D01*
X84029143Y-104702792D01*
X83994238Y-104762613D01*
X83911745Y-104841675D01*
X83911735Y-104841685D01*
X83907882Y-104845379D01*
X83904706Y-104849672D01*
X83904700Y-104849680D01*
X83769303Y-105032749D01*
X83769296Y-105032758D01*
X83766121Y-105037053D01*
X83763716Y-105041822D01*
X83763711Y-105041831D01*
X83661201Y-105245148D01*
X83661197Y-105245157D01*
X83658793Y-105249926D01*
X83657228Y-105255033D01*
X83657225Y-105255043D01*
X83590550Y-105472762D01*
X83588984Y-105477877D01*
X83588304Y-105483181D01*
X83588304Y-105483185D01*
X83559381Y-105709037D01*
X83559380Y-105709047D01*
X83558702Y-105714346D01*
X83558929Y-105719691D01*
X83558929Y-105719693D01*
X83568592Y-105947179D01*
X83568592Y-105947186D01*
X83568820Y-105952532D01*
X83569947Y-105957765D01*
X83569948Y-105957766D01*
X83617917Y-106180345D01*
X83617918Y-106180351D01*
X83619046Y-106185581D01*
X83621041Y-106190547D01*
X83621044Y-106190555D01*
X83637854Y-106232388D01*
X83645663Y-106297259D01*
X83619932Y-106357320D01*
X83567580Y-106396417D01*
X83546762Y-106404712D01*
X83546756Y-106404714D01*
X83543583Y-106405979D01*
X83540579Y-106407571D01*
X83540563Y-106407579D01*
X83223202Y-106575833D01*
X83223185Y-106575843D01*
X83220192Y-106577430D01*
X83217385Y-106579333D01*
X83217372Y-106579341D01*
X82920059Y-106780925D01*
X82920051Y-106780930D01*
X82917234Y-106782841D01*
X82914634Y-106785049D01*
X82914628Y-106785054D01*
X82640857Y-107017597D01*
X82640847Y-107017606D01*
X82638261Y-107019803D01*
X82635930Y-107022263D01*
X82635915Y-107022278D01*
X82388895Y-107283054D01*
X82388886Y-107283063D01*
X82386543Y-107285538D01*
X82384476Y-107288256D01*
X82384476Y-107288257D01*
X82167102Y-107574207D01*
X82167095Y-107574215D01*
X82165032Y-107576931D01*
X82163274Y-107579851D01*
X82163267Y-107579863D01*
X81993712Y-107861667D01*
X81976325Y-107890565D01*
X81974895Y-107893655D01*
X81974888Y-107893669D01*
X81824066Y-108219665D01*
X81824061Y-108219676D01*
X81822633Y-108222764D01*
X81821547Y-108225985D01*
X81821543Y-108225997D01*
X81706850Y-108566395D01*
X81706846Y-108566406D01*
X81705760Y-108569632D01*
X81705029Y-108572951D01*
X81705025Y-108572967D01*
X81628363Y-108921247D01*
X81627074Y-108927103D01*
X81626705Y-108930493D01*
X81626705Y-108930495D01*
X81587869Y-109287587D01*
X81587868Y-109287599D01*
X81587500Y-109290986D01*
X81587500Y-109657014D01*
X80599218Y-109657014D01*
X80613500Y-109580610D01*
X80613500Y-109367390D01*
X80574321Y-109157802D01*
X80504612Y-108977860D01*
X80499403Y-108964414D01*
X80499401Y-108964411D01*
X80497298Y-108958981D01*
X80385052Y-108777698D01*
X80381132Y-108773398D01*
X80381129Y-108773394D01*
X80245332Y-108624433D01*
X80245329Y-108624430D01*
X80241407Y-108620128D01*
X80205941Y-108593345D01*
X80075905Y-108495145D01*
X80075900Y-108495142D01*
X80071255Y-108491634D01*
X80066042Y-108489038D01*
X80066040Y-108489037D01*
X79885600Y-108399189D01*
X79885593Y-108399186D01*
X79880389Y-108396595D01*
X79874791Y-108395002D01*
X79874788Y-108395001D01*
X79680909Y-108339837D01*
X79680908Y-108339836D01*
X79675310Y-108338244D01*
X79669515Y-108337707D01*
X79519089Y-108323768D01*
X79519083Y-108323767D01*
X79516194Y-108323500D01*
X79409806Y-108323500D01*
X79406917Y-108323767D01*
X79406910Y-108323768D01*
X79256484Y-108337707D01*
X79256482Y-108337707D01*
X79250690Y-108338244D01*
X79245093Y-108339836D01*
X79245090Y-108339837D01*
X79051211Y-108395001D01*
X79051204Y-108395003D01*
X79045611Y-108396595D01*
X79040410Y-108399184D01*
X79040399Y-108399189D01*
X78859959Y-108489037D01*
X78859952Y-108489040D01*
X78854745Y-108491634D01*
X78850098Y-108495142D01*
X78850095Y-108495145D01*
X78814871Y-108521745D01*
X78758468Y-108545671D01*
X78697448Y-108540166D01*
X78646239Y-108506532D01*
X78553243Y-108405511D01*
X78553239Y-108405508D01*
X78549714Y-108401678D01*
X78368610Y-108260719D01*
X78179177Y-108158203D01*
X78171359Y-108153972D01*
X78171356Y-108153970D01*
X78166774Y-108151491D01*
X78161850Y-108149800D01*
X78161842Y-108149797D01*
X78116873Y-108134360D01*
X78061636Y-108096620D01*
X78033503Y-108035925D01*
X78040405Y-107969383D01*
X78080396Y-107915754D01*
X78081784Y-107914672D01*
X78092514Y-107906322D01*
X78247947Y-107737477D01*
X78373469Y-107545351D01*
X78465657Y-107335185D01*
X78521994Y-107112712D01*
X78540946Y-106884000D01*
X78521994Y-106655288D01*
X78465657Y-106432815D01*
X78373469Y-106222649D01*
X78341685Y-106174000D01*
X79319835Y-106174000D01*
X79320223Y-106178930D01*
X79338076Y-106405777D01*
X79338077Y-106405785D01*
X79338465Y-106410711D01*
X79339619Y-106415519D01*
X79339620Y-106415523D01*
X79392739Y-106636781D01*
X79392740Y-106636786D01*
X79393895Y-106641594D01*
X79484760Y-106860963D01*
X79608824Y-107063416D01*
X79612031Y-107067171D01*
X79612034Y-107067175D01*
X79655240Y-107117762D01*
X79763031Y-107243969D01*
X79766786Y-107247176D01*
X79814885Y-107288257D01*
X79943584Y-107398176D01*
X80146037Y-107522240D01*
X80365406Y-107613105D01*
X80596289Y-107668535D01*
X80833000Y-107687165D01*
X81069711Y-107668535D01*
X81300594Y-107613105D01*
X81519963Y-107522240D01*
X81722416Y-107398176D01*
X81902969Y-107243969D01*
X82057176Y-107063416D01*
X82181240Y-106860963D01*
X82272105Y-106641594D01*
X82327535Y-106410711D01*
X82346165Y-106174000D01*
X82327535Y-105937289D01*
X82272105Y-105706406D01*
X82181240Y-105487037D01*
X82057176Y-105284584D01*
X82027575Y-105249926D01*
X81906176Y-105107786D01*
X81902969Y-105104031D01*
X81899213Y-105100823D01*
X81726175Y-104953034D01*
X81726171Y-104953031D01*
X81722416Y-104949824D01*
X81519963Y-104825760D01*
X81367512Y-104762613D01*
X81305167Y-104736789D01*
X81305164Y-104736788D01*
X81300594Y-104734895D01*
X81295786Y-104733740D01*
X81295781Y-104733739D01*
X81074523Y-104680620D01*
X81074519Y-104680619D01*
X81069711Y-104679465D01*
X81064785Y-104679077D01*
X81064777Y-104679076D01*
X80837930Y-104661223D01*
X80833000Y-104660835D01*
X80828070Y-104661223D01*
X80601222Y-104679076D01*
X80601212Y-104679077D01*
X80596289Y-104679465D01*
X80591482Y-104680619D01*
X80591476Y-104680620D01*
X80370218Y-104733739D01*
X80370209Y-104733741D01*
X80365406Y-104734895D01*
X80360838Y-104736786D01*
X80360832Y-104736789D01*
X80150611Y-104823865D01*
X80150606Y-104823867D01*
X80146037Y-104825760D01*
X80141817Y-104828345D01*
X80141817Y-104828346D01*
X79947798Y-104947241D01*
X79947792Y-104947245D01*
X79943584Y-104949824D01*
X79939834Y-104953026D01*
X79939824Y-104953034D01*
X79766786Y-105100823D01*
X79766779Y-105100829D01*
X79763031Y-105104031D01*
X79759829Y-105107779D01*
X79759823Y-105107786D01*
X79612034Y-105280824D01*
X79612026Y-105280834D01*
X79608824Y-105284584D01*
X79606245Y-105288792D01*
X79606241Y-105288798D01*
X79574498Y-105340598D01*
X79484760Y-105487037D01*
X79482867Y-105491606D01*
X79482865Y-105491611D01*
X79395789Y-105701832D01*
X79395786Y-105701838D01*
X79393895Y-105706406D01*
X79392741Y-105711209D01*
X79392739Y-105711218D01*
X79345897Y-105906332D01*
X79338465Y-105937289D01*
X79338077Y-105942212D01*
X79338076Y-105942222D01*
X79328428Y-106064814D01*
X79319835Y-106174000D01*
X78341685Y-106174000D01*
X78247947Y-106030523D01*
X78126410Y-105898499D01*
X78096043Y-105865511D01*
X78096039Y-105865508D01*
X78092514Y-105861678D01*
X77911410Y-105720719D01*
X77827542Y-105675332D01*
X77714159Y-105613972D01*
X77714156Y-105613970D01*
X77709574Y-105611491D01*
X77704650Y-105609800D01*
X77704642Y-105609797D01*
X77497440Y-105538665D01*
X77497435Y-105538663D01*
X77492513Y-105536974D01*
X77487378Y-105536117D01*
X77487370Y-105536115D01*
X77271288Y-105500057D01*
X77271279Y-105500056D01*
X77266148Y-105499200D01*
X77036652Y-105499200D01*
X77031521Y-105500056D01*
X77031511Y-105500057D01*
X76815429Y-105536115D01*
X76815418Y-105536117D01*
X76810287Y-105536974D01*
X76805367Y-105538662D01*
X76805359Y-105538665D01*
X76598157Y-105609797D01*
X76598144Y-105609802D01*
X76593226Y-105611491D01*
X76588647Y-105613968D01*
X76588640Y-105613972D01*
X76395972Y-105718239D01*
X76395968Y-105718241D01*
X76391390Y-105720719D01*
X76387284Y-105723914D01*
X76387279Y-105723918D01*
X76253162Y-105828306D01*
X76210286Y-105861678D01*
X76206765Y-105865502D01*
X76206756Y-105865511D01*
X76058381Y-106026690D01*
X76058378Y-106026693D01*
X76054853Y-106030523D01*
X76052005Y-106034881D01*
X76052002Y-106034886D01*
X75950299Y-106190555D01*
X75929331Y-106222649D01*
X75927238Y-106227419D01*
X75927236Y-106227424D01*
X75839235Y-106428044D01*
X75839232Y-106428052D01*
X75837143Y-106432815D01*
X75835866Y-106437854D01*
X75835865Y-106437860D01*
X75782084Y-106650237D01*
X75782081Y-106650249D01*
X75780806Y-106655288D01*
X75780376Y-106660470D01*
X75780375Y-106660480D01*
X75768128Y-106808284D01*
X75761854Y-106884000D01*
X75762284Y-106889189D01*
X75780375Y-107107519D01*
X75780376Y-107107527D01*
X75780806Y-107112712D01*
X75782082Y-107117752D01*
X75782084Y-107117762D01*
X75824571Y-107285538D01*
X75837143Y-107335185D01*
X75839233Y-107339951D01*
X75839235Y-107339955D01*
X75920024Y-107524134D01*
X75929331Y-107545351D01*
X76054853Y-107737477D01*
X76058381Y-107741309D01*
X76206756Y-107902488D01*
X76206759Y-107902491D01*
X76210286Y-107906322D01*
X76391390Y-108047281D01*
X76593226Y-108156509D01*
X76643125Y-108173639D01*
X76698360Y-108211376D01*
X76726495Y-108272068D01*
X76719597Y-108338607D01*
X76679612Y-108392238D01*
X76671604Y-108398471D01*
X76671591Y-108398482D01*
X76667486Y-108401678D01*
X76663965Y-108405502D01*
X76663956Y-108405511D01*
X76515581Y-108566690D01*
X76515578Y-108566693D01*
X76512053Y-108570523D01*
X76509205Y-108574881D01*
X76509202Y-108574886D01*
X76391570Y-108754936D01*
X76386531Y-108762649D01*
X76384438Y-108767419D01*
X76384436Y-108767424D01*
X76296435Y-108968044D01*
X76296432Y-108968052D01*
X76294343Y-108972815D01*
X76293066Y-108977854D01*
X76293065Y-108977860D01*
X76239284Y-109190237D01*
X76239281Y-109190249D01*
X76238006Y-109195288D01*
X76237576Y-109200470D01*
X76237575Y-109200480D01*
X76230076Y-109290986D01*
X76219054Y-109424000D01*
X76219484Y-109429189D01*
X76237575Y-109647519D01*
X76237576Y-109647527D01*
X76238006Y-109652712D01*
X76239282Y-109657752D01*
X76239284Y-109657762D01*
X76290775Y-109861095D01*
X76294343Y-109875185D01*
X76296433Y-109879951D01*
X76296435Y-109879955D01*
X76346449Y-109993975D01*
X76386531Y-110085351D01*
X76512053Y-110277477D01*
X76515581Y-110281309D01*
X76663956Y-110442488D01*
X76663959Y-110442491D01*
X76667486Y-110446322D01*
X76671599Y-110449523D01*
X76671601Y-110449525D01*
X76679607Y-110455757D01*
X76719595Y-110509387D01*
X76726495Y-110575927D01*
X76698363Y-110636621D01*
X76643127Y-110674360D01*
X76598154Y-110689799D01*
X76598151Y-110689800D01*
X76593226Y-110691491D01*
X76588647Y-110693968D01*
X76588640Y-110693972D01*
X76395972Y-110798239D01*
X76395968Y-110798241D01*
X76391390Y-110800719D01*
X76387284Y-110803914D01*
X76387279Y-110803918D01*
X76214406Y-110938471D01*
X76210286Y-110941678D01*
X76206765Y-110945502D01*
X76206756Y-110945511D01*
X76058381Y-111106690D01*
X76058378Y-111106693D01*
X76054853Y-111110523D01*
X76052005Y-111114881D01*
X76052002Y-111114886D01*
X75932183Y-111298283D01*
X75929331Y-111302649D01*
X75927238Y-111307419D01*
X75927236Y-111307424D01*
X75839235Y-111508044D01*
X75839232Y-111508052D01*
X75837143Y-111512815D01*
X75835866Y-111517854D01*
X75835865Y-111517860D01*
X75782084Y-111730237D01*
X75782081Y-111730249D01*
X75780806Y-111735288D01*
X75780376Y-111740470D01*
X75780375Y-111740480D01*
X75765026Y-111925721D01*
X75761854Y-111964000D01*
X75057000Y-111964000D01*
X75057000Y-100611900D01*
X75064069Y-100570290D01*
X75075861Y-100536587D01*
X75083652Y-100518840D01*
X75115907Y-100458496D01*
X75120285Y-100450954D01*
X75169507Y-100372617D01*
X75178789Y-100359729D01*
X75223491Y-100305258D01*
X75231767Y-100296127D01*
X75296127Y-100231767D01*
X75305258Y-100223491D01*
X75359733Y-100178785D01*
X75372617Y-100169507D01*
X75450954Y-100120285D01*
X75458508Y-100115900D01*
X75518830Y-100083658D01*
X75536591Y-100075860D01*
X75630178Y-100043114D01*
X75635057Y-100041520D01*
X75694001Y-100023641D01*
X75716435Y-100019015D01*
X75852551Y-100003681D01*
X75854157Y-100003511D01*
X75873438Y-100001612D01*
X75882466Y-100000724D01*
X75894811Y-100000118D01*
X94104813Y-100000118D01*
X94117163Y-100000725D01*
G37*
%TD.AperFunction*%
%TD*%
M02*
