M48
; DRILL file {KiCad (7.0.0-0)} date Monday, February 20, 2023 at 11:28:17 AM
; FORMAT={-:-/ absolute / metric / decimal}
; #@! TF.CreationDate,2023-02-20T11:28:17-08:00
; #@! TF.GenerationSoftware,Kicad,Pcbnew,(7.0.0-0)
; #@! TF.FileFunction,Plated,1,2,PTH
FMAT,2
METRIC
; #@! TA.AperFunction,Plated,PTH,ViaDrill
T1C0.400
; #@! TA.AperFunction,Plated,PTH,ComponentDrill
T2C0.400
; #@! TA.AperFunction,Plated,PTH,ComponentDrill
T3C1.000
; #@! TA.AperFunction,Plated,PTH,ComponentDrill
T4C1.092
; #@! TA.AperFunction,Plated,PTH,ComponentDrill
T5C1.200
%
G90
G05
T1
X80.0Y-113.55
X80.0Y-132.65
X87.513Y-134.1
T3
X80.27Y-136.61
X82.81Y-136.61
T4
X77.151Y-106.884
X77.151Y-111.964
X77.151Y-117.044
X77.151Y-122.124
X77.151Y-127.204
X77.151Y-132.284
X77.609Y-109.424
X77.609Y-114.504
X77.609Y-119.584
X77.609Y-124.664
X77.609Y-129.744
X77.609Y-134.824
X92.391Y-109.424
X92.391Y-114.504
X92.391Y-119.584
X92.391Y-124.664
X92.391Y-129.744
X92.391Y-134.824
X92.849Y-106.884
X92.849Y-111.964
X92.849Y-117.044
X92.849Y-122.124
X92.849Y-127.204
X92.849Y-132.284
T5
X80.833Y-106.174
X80.833Y-125.224
X84.963Y-103.424
X84.963Y-122.474
T2
X90.363Y-105.574G85X89.763Y-105.574
G05
X90.363Y-124.624G85X89.763Y-124.624
G05
T0
M30
