%TF.GenerationSoftware,KiCad,Pcbnew,(7.0.0-0)*%
%TF.CreationDate,2023-02-20T11:28:14-08:00*%
%TF.ProjectId,choc_milk_keyboard,63686f63-5f6d-4696-9c6b-5f6b6579626f,rev?*%
%TF.SameCoordinates,Original*%
%TF.FileFunction,Copper,L2,Bot*%
%TF.FilePolarity,Positive*%
%FSLAX46Y46*%
G04 Gerber Fmt 4.6, Leading zero omitted, Abs format (unit mm)*
G04 Created by KiCad (PCBNEW (7.0.0-0)) date 2023-02-20 11:28:14*
%MOMM*%
%LPD*%
G01*
G04 APERTURE LIST*
G04 Aperture macros list*
%AMRoundRect*
0 Rectangle with rounded corners*
0 $1 Rounding radius*
0 $2 $3 $4 $5 $6 $7 $8 $9 X,Y pos of 4 corners*
0 Add a 4 corners polygon primitive as box body*
4,1,4,$2,$3,$4,$5,$6,$7,$8,$9,$2,$3,0*
0 Add four circle primitives for the rounded corners*
1,1,$1+$1,$2,$3*
1,1,$1+$1,$4,$5*
1,1,$1+$1,$6,$7*
1,1,$1+$1,$8,$9*
0 Add four rect primitives between the rounded corners*
20,1,$1+$1,$2,$3,$4,$5,0*
20,1,$1+$1,$4,$5,$6,$7,0*
20,1,$1+$1,$6,$7,$8,$9,0*
20,1,$1+$1,$8,$9,$2,$3,0*%
G04 Aperture macros list end*
%TA.AperFunction,ComponentPad*%
%ADD10C,2.000000*%
%TD*%
%TA.AperFunction,ComponentPad*%
%ADD11O,2.200000X1.600000*%
%TD*%
%TA.AperFunction,ComponentPad*%
%ADD12R,1.700000X1.700000*%
%TD*%
%TA.AperFunction,ComponentPad*%
%ADD13O,1.700000X1.700000*%
%TD*%
%TA.AperFunction,SMDPad,CuDef*%
%ADD14R,1.700000X0.820000*%
%TD*%
%TA.AperFunction,SMDPad,CuDef*%
%ADD15RoundRect,0.205000X-0.645000X-0.205000X0.645000X-0.205000X0.645000X0.205000X-0.645000X0.205000X0*%
%TD*%
%TA.AperFunction,ComponentPad*%
%ADD16R,1.752600X1.752600*%
%TD*%
%TA.AperFunction,ComponentPad*%
%ADD17C,1.752600*%
%TD*%
%TA.AperFunction,ViaPad*%
%ADD18C,0.800000*%
%TD*%
%TA.AperFunction,Conductor*%
%ADD19C,0.250000*%
%TD*%
G04 APERTURE END LIST*
D10*
%TO.P,SW1,1,1*%
%TO.N,Net-(U1-4{slash}D4)*%
X84963000Y-122474000D03*
D11*
%TO.P,SW1,2,2*%
%TO.N,GND*%
X90062999Y-124623999D03*
D10*
X80833000Y-125224000D03*
%TD*%
D12*
%TO.P,J1,1,Pin_1*%
%TO.N,GND*%
X82809999Y-136609999D03*
D13*
%TO.P,J1,2,Pin_2*%
%TO.N,Net-(J1-Pin_2)*%
X80269999Y-136609999D03*
%TD*%
D10*
%TO.P,SW2,1,1*%
%TO.N,Net-(U1-5{slash}C6)*%
X84963000Y-103424000D03*
D11*
%TO.P,SW2,2,2*%
%TO.N,GND*%
X90062999Y-105573999D03*
D10*
X80833000Y-106174000D03*
%TD*%
D14*
%TO.P,LED2,1,VDD*%
%TO.N,VCC*%
X82412999Y-113549999D03*
%TO.P,LED2,2,DOUT*%
%TO.N,unconnected-(LED2-DOUT-Pad2)*%
X82412999Y-115049999D03*
D15*
%TO.P,LED2,3,VSS*%
%TO.N,GND*%
X87513000Y-115050000D03*
D14*
%TO.P,LED2,4,DIN*%
%TO.N,Net-(LED1-DOUT)*%
X87512999Y-113549999D03*
%TD*%
%TO.P,LED1,1,VDD*%
%TO.N,VCC*%
X82412999Y-132599999D03*
%TO.P,LED1,2,DOUT*%
%TO.N,Net-(LED1-DOUT)*%
X82412999Y-134099999D03*
D15*
%TO.P,LED1,3,VSS*%
%TO.N,GND*%
X87513000Y-134100000D03*
D14*
%TO.P,LED1,4,DIN*%
%TO.N,Net-(LED1-DIN)*%
X87512999Y-132599999D03*
%TD*%
D16*
%TO.P,U1,1,TX0/D3*%
%TO.N,unconnected-(U1-TX0{slash}D3-Pad1)*%
X92848599Y-106883999D03*
D17*
%TO.P,U1,2,RX1/D2*%
%TO.N,unconnected-(U1-RX1{slash}D2-Pad2)*%
X92391400Y-109424000D03*
%TO.P,U1,3,GND*%
%TO.N,GND*%
X92848600Y-111964000D03*
%TO.P,U1,4,GND*%
X92391400Y-114504000D03*
%TO.P,U1,5,2/D1/SDA*%
%TO.N,unconnected-(U1-2{slash}D1{slash}SDA-Pad5)*%
X92848600Y-117044000D03*
%TO.P,U1,6,3/D0/SCL*%
%TO.N,unconnected-(U1-3{slash}D0{slash}SCL-Pad6)*%
X92391400Y-119584000D03*
%TO.P,U1,7,4/D4*%
%TO.N,Net-(U1-4{slash}D4)*%
X92848600Y-122124000D03*
%TO.P,U1,8,5/C6*%
%TO.N,Net-(U1-5{slash}C6)*%
X92391400Y-124664000D03*
%TO.P,U1,9,6/D7*%
%TO.N,unconnected-(U1-6{slash}D7-Pad9)*%
X92848600Y-127204000D03*
%TO.P,U1,10,7/E6*%
%TO.N,unconnected-(U1-7{slash}E6-Pad10)*%
X92391400Y-129744000D03*
%TO.P,U1,11,8/B4*%
%TO.N,unconnected-(U1-8{slash}B4-Pad11)*%
X92848600Y-132284000D03*
%TO.P,U1,12,9/B5*%
%TO.N,unconnected-(U1-9{slash}B5-Pad12)*%
X92391400Y-134824000D03*
%TO.P,U1,13,B6/10*%
%TO.N,Net-(LED1-DIN)*%
X77608600Y-134824000D03*
%TO.P,U1,14,B2/16*%
%TO.N,unconnected-(U1-B2{slash}16-Pad14)*%
X77151400Y-132284000D03*
%TO.P,U1,15,B3/14*%
%TO.N,unconnected-(U1-B3{slash}14-Pad15)*%
X77608600Y-129744000D03*
%TO.P,U1,16,B1/15*%
%TO.N,unconnected-(U1-B1{slash}15-Pad16)*%
X77151400Y-127204000D03*
%TO.P,U1,17,F7/A0*%
%TO.N,unconnected-(U1-F7{slash}A0-Pad17)*%
X77608600Y-124664000D03*
%TO.P,U1,18,F6/A1*%
%TO.N,unconnected-(U1-F6{slash}A1-Pad18)*%
X77151400Y-122124000D03*
%TO.P,U1,19,F5/A2*%
%TO.N,unconnected-(U1-F5{slash}A2-Pad19)*%
X77608600Y-119584000D03*
%TO.P,U1,20,F4/A3*%
%TO.N,unconnected-(U1-F4{slash}A3-Pad20)*%
X77151400Y-117044000D03*
%TO.P,U1,21,VCC*%
%TO.N,VCC*%
X77608600Y-114504000D03*
%TO.P,U1,22,RST*%
%TO.N,Net-(J1-Pin_2)*%
X77151400Y-111964000D03*
%TO.P,U1,23,GND*%
%TO.N,GND*%
X77608600Y-109424000D03*
%TO.P,U1,24,RAW*%
%TO.N,unconnected-(U1-RAW-Pad24)*%
X77151400Y-106884000D03*
%TD*%
D18*
%TO.N,GND*%
X87512998Y-134100000D03*
%TO.N,VCC*%
X80000000Y-132650000D03*
X80000000Y-113550000D03*
%TD*%
D19*
%TO.N,GND*%
X80833000Y-121806776D02*
X86469888Y-116169888D01*
X80833000Y-106199600D02*
X80833000Y-106174000D01*
X87513000Y-134100000D02*
X87512998Y-134100000D01*
X86469888Y-116169888D02*
X85539777Y-117100000D01*
X87513000Y-115126777D02*
X86469888Y-116169888D01*
X87513000Y-115050000D02*
X87513000Y-115126777D01*
X87513000Y-115050000D02*
X87513000Y-115137000D01*
X80833000Y-125224000D02*
X80833000Y-121806776D01*
%TO.N,VCC*%
X82413000Y-132600000D02*
X80050000Y-132600000D01*
X80000000Y-113550000D02*
X82413000Y-113550000D01*
X80050000Y-132600000D02*
X80000000Y-132650000D01*
%TO.N,Net-(J1-Pin_2)*%
X80420000Y-136610000D02*
X77360000Y-136610000D01*
X77360000Y-136610000D02*
X75950100Y-135200100D01*
X75950100Y-135200100D02*
X75950100Y-113165300D01*
X75950100Y-113165300D02*
X77151400Y-111964000D01*
%TO.N,Net-(LED1-DOUT)*%
X82413000Y-134100000D02*
X81763000Y-133450000D01*
X88510000Y-113550000D02*
X87513000Y-113550000D01*
X79450000Y-133450000D02*
X78875500Y-132875500D01*
X88412000Y-115785000D02*
X88950000Y-115247000D01*
X82440000Y-120840000D02*
X87495000Y-115785000D01*
X81763000Y-133450000D02*
X79450000Y-133450000D01*
X81050000Y-130050000D02*
X81050000Y-127400000D01*
X78875500Y-132875500D02*
X78875500Y-132224500D01*
X78875500Y-132224500D02*
X81050000Y-130050000D01*
X81050000Y-127400000D02*
X82440000Y-126010000D01*
X88950000Y-113990000D02*
X88510000Y-113550000D01*
X88950000Y-115247000D02*
X88950000Y-113990000D01*
X82440000Y-126010000D02*
X82440000Y-120840000D01*
X87495000Y-115785000D02*
X88412000Y-115785000D01*
%TO.N,Net-(LED1-DIN)*%
X84497010Y-135975000D02*
X85428990Y-135975000D01*
X86233990Y-135170000D02*
X88930000Y-135170000D01*
X85428990Y-135975000D02*
X86233990Y-135170000D01*
X88930000Y-135170000D02*
X90025000Y-134075000D01*
X77608600Y-134824000D02*
X78104600Y-135320000D01*
X88550000Y-132600000D02*
X87513000Y-132600000D01*
X78104600Y-135320000D02*
X83842010Y-135320000D01*
X90025000Y-134075000D02*
X88550000Y-132600000D01*
X83842010Y-135320000D02*
X84497010Y-135975000D01*
%TO.N,Net-(U1-4{slash}D4)*%
X90100000Y-126650000D02*
X91900000Y-128450000D01*
X89139000Y-126650000D02*
X90100000Y-126650000D01*
X92498600Y-122474000D02*
X92848600Y-122124000D01*
X94050000Y-123325400D02*
X92848600Y-122124000D01*
X91900000Y-128450000D02*
X93301495Y-128450000D01*
X84963000Y-122474000D02*
X89139000Y-126650000D01*
X93301495Y-128450000D02*
X94050000Y-127701495D01*
X94050000Y-127701495D02*
X94050000Y-123325400D01*
%TO.N,Net-(U1-5{slash}C6)*%
X85894000Y-103424000D02*
X88650000Y-106180000D01*
X88650000Y-106180000D02*
X88650000Y-111710000D01*
X91190100Y-123462700D02*
X92391400Y-124664000D01*
X84963000Y-103424000D02*
X85894000Y-103424000D01*
X88650000Y-111710000D02*
X91190100Y-114250100D01*
X91190100Y-114250100D02*
X91190100Y-123462700D01*
%TD*%
%TA.AperFunction,Conductor*%
%TO.N,GND*%
G36*
X94117163Y-100000725D02*
G01*
X94145598Y-100003525D01*
X94147330Y-100003708D01*
X94283081Y-100018991D01*
X94305536Y-100023621D01*
X94364914Y-100041633D01*
X94369873Y-100043252D01*
X94462918Y-100075810D01*
X94480685Y-100083612D01*
X94541266Y-100115994D01*
X94548905Y-100120428D01*
X94593719Y-100148586D01*
X94626884Y-100169426D01*
X94639770Y-100178705D01*
X94678153Y-100210206D01*
X94694470Y-100223598D01*
X94703630Y-100231900D01*
X94767707Y-100295978D01*
X94776011Y-100305140D01*
X94820905Y-100359844D01*
X94830193Y-100372742D01*
X94879167Y-100450686D01*
X94883601Y-100458326D01*
X94915994Y-100518930D01*
X94923799Y-100536704D01*
X94935550Y-100570290D01*
X94956329Y-100629678D01*
X94957973Y-100634713D01*
X94975982Y-100694081D01*
X94980615Y-100716552D01*
X94995208Y-100846088D01*
X94996000Y-100860193D01*
X94996000Y-137139422D01*
X94995208Y-137153530D01*
X94980601Y-137283165D01*
X94975967Y-137305635D01*
X94958115Y-137364482D01*
X94956471Y-137369518D01*
X94923758Y-137463009D01*
X94915950Y-137480791D01*
X94883736Y-137541059D01*
X94879301Y-137548700D01*
X94830108Y-137626989D01*
X94820820Y-137639886D01*
X94776129Y-137694342D01*
X94767825Y-137703503D01*
X94703503Y-137767825D01*
X94694342Y-137776129D01*
X94639886Y-137820820D01*
X94626989Y-137830108D01*
X94548700Y-137879301D01*
X94541059Y-137883736D01*
X94490581Y-137910717D01*
X94431988Y-137925592D01*
X84149521Y-137991084D01*
X84083013Y-137972599D01*
X84036225Y-137921845D01*
X84023202Y-137854055D01*
X84047851Y-137789577D01*
X84105045Y-137713176D01*
X84113594Y-137697519D01*
X84158740Y-137576478D01*
X84162337Y-137561257D01*
X84167640Y-137511938D01*
X84168000Y-137505223D01*
X84168000Y-136711132D01*
X84181288Y-136654811D01*
X84218350Y-136610369D01*
X84271368Y-136587181D01*
X84318637Y-136589598D01*
X84318862Y-136588181D01*
X84344551Y-136592249D01*
X84362535Y-136595097D01*
X84374135Y-136597498D01*
X84416980Y-136608500D01*
X84437234Y-136608500D01*
X84456944Y-136610050D01*
X84476953Y-136613220D01*
X84520971Y-136609058D01*
X84532829Y-136608500D01*
X85350223Y-136608500D01*
X85361406Y-136609027D01*
X85368899Y-136610702D01*
X85436975Y-136608562D01*
X85440935Y-136608500D01*
X85464884Y-136608500D01*
X85468846Y-136608500D01*
X85472846Y-136607994D01*
X85484689Y-136607061D01*
X85528879Y-136605673D01*
X85548323Y-136600023D01*
X85567692Y-136596012D01*
X85587787Y-136593474D01*
X85628905Y-136577193D01*
X85640107Y-136573357D01*
X85682583Y-136561018D01*
X85700029Y-136550699D01*
X85717759Y-136542013D01*
X85736607Y-136534552D01*
X85772377Y-136508561D01*
X85782288Y-136502051D01*
X85820352Y-136479542D01*
X85834678Y-136465215D01*
X85849707Y-136452378D01*
X85866097Y-136440472D01*
X85894288Y-136406393D01*
X85902258Y-136397634D01*
X86459490Y-135840404D01*
X86500368Y-135813091D01*
X86548586Y-135803500D01*
X88851233Y-135803500D01*
X88862416Y-135804027D01*
X88869909Y-135805702D01*
X88937985Y-135803562D01*
X88941945Y-135803500D01*
X88965894Y-135803500D01*
X88969856Y-135803500D01*
X88973856Y-135802994D01*
X88985699Y-135802061D01*
X89029889Y-135800673D01*
X89049333Y-135795023D01*
X89068702Y-135791012D01*
X89088797Y-135788474D01*
X89129915Y-135772193D01*
X89141117Y-135768357D01*
X89183593Y-135756018D01*
X89201039Y-135745699D01*
X89218769Y-135737013D01*
X89237617Y-135729552D01*
X89273387Y-135703561D01*
X89283298Y-135697051D01*
X89321362Y-135674542D01*
X89335688Y-135660215D01*
X89350717Y-135647378D01*
X89367107Y-135635472D01*
X89395294Y-135601397D01*
X89403272Y-135592630D01*
X90422190Y-134573713D01*
X90440460Y-134558600D01*
X90447271Y-134553972D01*
X90484420Y-134511833D01*
X90489809Y-134506094D01*
X90501135Y-134494770D01*
X90510932Y-134482138D01*
X90515983Y-134476033D01*
X90547876Y-134439858D01*
X90547876Y-134439857D01*
X90553120Y-134433910D01*
X90556854Y-134426579D01*
X90569570Y-134406542D01*
X90574614Y-134400041D01*
X90596920Y-134348493D01*
X90600277Y-134341356D01*
X90625785Y-134291296D01*
X90627581Y-134283260D01*
X90634912Y-134260699D01*
X90638181Y-134253145D01*
X90646966Y-134197667D01*
X90648448Y-134189904D01*
X90660702Y-134135091D01*
X90660443Y-134126871D01*
X90661935Y-134103165D01*
X90663220Y-134095057D01*
X90657932Y-134039125D01*
X90657436Y-134031236D01*
X90655673Y-133975111D01*
X90653375Y-133967202D01*
X90648932Y-133943906D01*
X90648927Y-133943854D01*
X90648157Y-133935708D01*
X90629129Y-133882856D01*
X90626684Y-133875330D01*
X90621364Y-133857018D01*
X90611018Y-133821407D01*
X90606828Y-133814323D01*
X90596727Y-133792856D01*
X90593939Y-133785111D01*
X90562369Y-133738657D01*
X90558128Y-133731975D01*
X90533575Y-133690458D01*
X90529542Y-133683638D01*
X90523721Y-133677817D01*
X90508604Y-133659544D01*
X90508431Y-133659289D01*
X90508427Y-133659284D01*
X90503972Y-133652729D01*
X90461836Y-133615581D01*
X90456067Y-133610163D01*
X89053646Y-132207741D01*
X89046112Y-132199463D01*
X89042000Y-132192982D01*
X88992347Y-132146355D01*
X88989505Y-132143600D01*
X88972574Y-132126669D01*
X88969770Y-132123865D01*
X88966575Y-132121386D01*
X88957554Y-132113682D01*
X88931097Y-132088838D01*
X88925321Y-132083414D01*
X88918377Y-132079596D01*
X88918371Y-132079592D01*
X88907566Y-132073652D01*
X88891047Y-132062801D01*
X88875041Y-132050386D01*
X88875040Y-132050385D01*
X88875879Y-132049303D01*
X88853999Y-132030720D01*
X88832573Y-131993890D01*
X88817038Y-131952238D01*
X88817037Y-131952236D01*
X88813889Y-131943796D01*
X88781804Y-131900936D01*
X88731659Y-131833950D01*
X88726261Y-131826739D01*
X88687669Y-131797849D01*
X88616417Y-131744510D01*
X88616414Y-131744508D01*
X88609204Y-131739111D01*
X88600766Y-131735964D01*
X88600763Y-131735962D01*
X88479580Y-131690763D01*
X88479578Y-131690762D01*
X88472201Y-131688011D01*
X88464373Y-131687169D01*
X88464367Y-131687168D01*
X88414988Y-131681860D01*
X88414985Y-131681859D01*
X88411638Y-131681500D01*
X86720299Y-131681500D01*
X86656512Y-131664161D01*
X86610281Y-131616917D01*
X86594329Y-131552770D01*
X86613045Y-131489374D01*
X86661280Y-131444177D01*
X86678805Y-131434886D01*
X86705808Y-131420570D01*
X87008766Y-131215159D01*
X87287739Y-130978197D01*
X87539457Y-130712462D01*
X87760968Y-130421069D01*
X87949675Y-130107435D01*
X88103367Y-129775236D01*
X88220240Y-129428368D01*
X88298926Y-129070897D01*
X88338500Y-128707014D01*
X88338500Y-128340986D01*
X88298926Y-127977103D01*
X88220240Y-127619632D01*
X88103367Y-127272764D01*
X87949675Y-126940565D01*
X87760968Y-126626931D01*
X87539457Y-126335538D01*
X87407617Y-126196356D01*
X87290084Y-126072278D01*
X87290078Y-126072272D01*
X87287739Y-126069803D01*
X87008766Y-125832841D01*
X86806959Y-125696012D01*
X86708627Y-125629341D01*
X86708622Y-125629338D01*
X86705808Y-125627430D01*
X86702806Y-125625838D01*
X86702797Y-125625833D01*
X86385436Y-125457579D01*
X86385427Y-125457575D01*
X86382417Y-125455979D01*
X86379251Y-125454717D01*
X86379237Y-125454711D01*
X86358109Y-125446293D01*
X86308003Y-125409965D01*
X86281238Y-125354162D01*
X86284271Y-125292351D01*
X86337016Y-125120123D01*
X86347124Y-125041187D01*
X86374490Y-124977522D01*
X86431389Y-124937955D01*
X86500605Y-124934462D01*
X86561196Y-124968100D01*
X87604121Y-126011026D01*
X88635347Y-127042252D01*
X88642886Y-127050535D01*
X88647000Y-127057018D01*
X88652782Y-127062447D01*
X88652784Y-127062450D01*
X88696649Y-127103642D01*
X88699491Y-127106396D01*
X88719230Y-127126135D01*
X88722360Y-127128563D01*
X88722432Y-127128619D01*
X88731440Y-127136313D01*
X88763679Y-127166586D01*
X88770627Y-127170405D01*
X88770629Y-127170407D01*
X88781426Y-127176343D01*
X88797950Y-127187197D01*
X88807694Y-127194755D01*
X88807697Y-127194757D01*
X88813959Y-127199614D01*
X88821232Y-127202761D01*
X88854535Y-127217172D01*
X88865200Y-127222397D01*
X88903940Y-127243695D01*
X88923560Y-127248732D01*
X88942252Y-127255130D01*
X88960855Y-127263181D01*
X89004525Y-127270097D01*
X89016125Y-127272498D01*
X89058970Y-127283500D01*
X89079224Y-127283500D01*
X89098934Y-127285050D01*
X89118943Y-127288220D01*
X89162961Y-127284058D01*
X89174819Y-127283500D01*
X89528206Y-127283500D01*
X89592242Y-127300986D01*
X89638505Y-127348589D01*
X89654155Y-127413098D01*
X89634847Y-127476609D01*
X89585942Y-127521492D01*
X89551953Y-127539014D01*
X89450659Y-127591235D01*
X89450654Y-127591237D01*
X89445318Y-127593989D01*
X89440598Y-127597700D01*
X89440593Y-127597704D01*
X89293145Y-127713660D01*
X89280114Y-127723908D01*
X89276185Y-127728442D01*
X89276179Y-127728448D01*
X89146413Y-127878205D01*
X89146407Y-127878212D01*
X89142481Y-127882744D01*
X89139483Y-127887936D01*
X89139477Y-127887945D01*
X89040398Y-128059555D01*
X89040394Y-128059561D01*
X89037396Y-128064756D01*
X89035434Y-128070423D01*
X89035432Y-128070429D01*
X88992839Y-128193495D01*
X88968656Y-128263367D01*
X88967802Y-128269304D01*
X88967802Y-128269306D01*
X88953716Y-128367281D01*
X88938746Y-128471398D01*
X88948746Y-128681330D01*
X88950161Y-128687163D01*
X88950162Y-128687169D01*
X88955801Y-128710412D01*
X88998296Y-128885576D01*
X89000790Y-128891037D01*
X89082929Y-129070897D01*
X89085604Y-129076753D01*
X89207514Y-129247952D01*
X89359622Y-129392986D01*
X89536428Y-129506613D01*
X89731543Y-129584725D01*
X89937915Y-129624500D01*
X90092424Y-129624500D01*
X90095425Y-129624500D01*
X90252218Y-129609528D01*
X90453875Y-129550316D01*
X90640682Y-129454011D01*
X90805886Y-129324092D01*
X90830243Y-129295981D01*
X90885630Y-129258957D01*
X90952156Y-129255352D01*
X91011221Y-129286176D01*
X91046310Y-129342811D01*
X91047613Y-129409423D01*
X91022085Y-129510234D01*
X91022083Y-129510243D01*
X91020806Y-129515288D01*
X91020376Y-129520470D01*
X91020375Y-129520480D01*
X91008967Y-129658162D01*
X91001854Y-129744000D01*
X91002284Y-129749189D01*
X91020375Y-129967519D01*
X91020376Y-129967527D01*
X91020806Y-129972712D01*
X91022082Y-129977752D01*
X91022084Y-129977762D01*
X91074434Y-130184489D01*
X91077143Y-130195185D01*
X91079233Y-130199951D01*
X91079235Y-130199955D01*
X91156036Y-130375041D01*
X91169331Y-130405351D01*
X91294853Y-130597477D01*
X91298381Y-130601309D01*
X91446756Y-130762488D01*
X91446759Y-130762491D01*
X91450286Y-130766322D01*
X91631390Y-130907281D01*
X91833226Y-131016509D01*
X91883125Y-131033639D01*
X91938360Y-131071376D01*
X91966495Y-131132068D01*
X91959597Y-131198607D01*
X91919612Y-131252238D01*
X91911604Y-131258471D01*
X91911591Y-131258482D01*
X91907486Y-131261678D01*
X91903965Y-131265502D01*
X91903956Y-131265511D01*
X91755581Y-131426690D01*
X91755578Y-131426693D01*
X91752053Y-131430523D01*
X91749205Y-131434881D01*
X91749202Y-131434886D01*
X91629383Y-131618283D01*
X91626531Y-131622649D01*
X91624438Y-131627419D01*
X91624436Y-131627424D01*
X91536435Y-131828044D01*
X91536432Y-131828052D01*
X91534343Y-131832815D01*
X91533066Y-131837854D01*
X91533065Y-131837860D01*
X91479284Y-132050237D01*
X91479281Y-132050249D01*
X91478006Y-132055288D01*
X91477576Y-132060470D01*
X91477575Y-132060480D01*
X91467046Y-132187553D01*
X91459054Y-132284000D01*
X91459484Y-132289189D01*
X91477575Y-132507519D01*
X91477576Y-132507527D01*
X91478006Y-132512712D01*
X91479282Y-132517752D01*
X91479284Y-132517762D01*
X91503415Y-132613053D01*
X91534343Y-132735185D01*
X91536433Y-132739951D01*
X91536435Y-132739955D01*
X91584925Y-132850500D01*
X91626531Y-132945351D01*
X91752053Y-133137477D01*
X91817223Y-133208271D01*
X91903956Y-133302488D01*
X91903957Y-133302489D01*
X91907486Y-133306322D01*
X91911599Y-133309523D01*
X91911601Y-133309525D01*
X91919607Y-133315757D01*
X91959595Y-133369387D01*
X91966495Y-133435927D01*
X91938363Y-133496621D01*
X91883127Y-133534360D01*
X91838154Y-133549799D01*
X91838151Y-133549800D01*
X91833226Y-133551491D01*
X91828647Y-133553968D01*
X91828640Y-133553972D01*
X91635972Y-133658239D01*
X91635968Y-133658241D01*
X91631390Y-133660719D01*
X91627284Y-133663914D01*
X91627279Y-133663918D01*
X91461627Y-133792851D01*
X91450286Y-133801678D01*
X91446765Y-133805502D01*
X91446756Y-133805511D01*
X91298381Y-133966690D01*
X91298378Y-133966693D01*
X91294853Y-133970523D01*
X91292005Y-133974881D01*
X91292002Y-133974886D01*
X91172934Y-134157134D01*
X91169331Y-134162649D01*
X91167238Y-134167419D01*
X91167236Y-134167424D01*
X91079235Y-134368044D01*
X91079232Y-134368052D01*
X91077143Y-134372815D01*
X91075866Y-134377854D01*
X91075865Y-134377860D01*
X91022084Y-134590237D01*
X91022081Y-134590249D01*
X91020806Y-134595288D01*
X91020376Y-134600470D01*
X91020375Y-134600480D01*
X91012318Y-134697715D01*
X91001854Y-134824000D01*
X91002284Y-134829189D01*
X91020375Y-135047519D01*
X91020376Y-135047527D01*
X91020806Y-135052712D01*
X91022082Y-135057752D01*
X91022084Y-135057762D01*
X91072233Y-135255797D01*
X91077143Y-135275185D01*
X91079233Y-135279951D01*
X91079235Y-135279955D01*
X91105044Y-135338793D01*
X91169331Y-135485351D01*
X91294853Y-135677477D01*
X91345474Y-135732466D01*
X91446756Y-135842488D01*
X91446759Y-135842491D01*
X91450286Y-135846322D01*
X91631390Y-135987281D01*
X91833226Y-136096509D01*
X91838155Y-136098201D01*
X91838157Y-136098202D01*
X91934150Y-136131156D01*
X92050287Y-136171026D01*
X92276652Y-136208800D01*
X92500940Y-136208800D01*
X92506148Y-136208800D01*
X92732513Y-136171026D01*
X92949574Y-136096509D01*
X93151410Y-135987281D01*
X93332514Y-135846322D01*
X93487947Y-135677477D01*
X93613469Y-135485351D01*
X93705657Y-135275185D01*
X93761994Y-135052712D01*
X93780946Y-134824000D01*
X93761994Y-134595288D01*
X93705657Y-134372815D01*
X93613469Y-134162649D01*
X93487947Y-133970523D01*
X93377940Y-133851024D01*
X93336043Y-133805511D01*
X93336039Y-133805508D01*
X93332514Y-133801678D01*
X93328401Y-133798477D01*
X93328396Y-133798472D01*
X93320391Y-133792241D01*
X93280403Y-133738611D01*
X93273504Y-133672070D01*
X93301638Y-133611376D01*
X93356871Y-133573640D01*
X93406774Y-133556509D01*
X93608610Y-133447281D01*
X93789714Y-133306322D01*
X93945147Y-133137477D01*
X94070669Y-132945351D01*
X94162857Y-132735185D01*
X94219194Y-132512712D01*
X94238146Y-132284000D01*
X94219194Y-132055288D01*
X94162857Y-131832815D01*
X94070669Y-131622649D01*
X93945147Y-131430523D01*
X93789714Y-131261678D01*
X93608610Y-131120719D01*
X93419177Y-131018203D01*
X93411359Y-131013972D01*
X93411356Y-131013970D01*
X93406774Y-131011491D01*
X93401850Y-131009800D01*
X93401842Y-131009797D01*
X93356873Y-130994360D01*
X93301636Y-130956620D01*
X93273503Y-130895925D01*
X93280405Y-130829383D01*
X93320396Y-130775754D01*
X93321784Y-130774672D01*
X93332514Y-130766322D01*
X93487947Y-130597477D01*
X93613469Y-130405351D01*
X93705657Y-130195185D01*
X93761994Y-129972712D01*
X93780946Y-129744000D01*
X93761994Y-129515288D01*
X93758975Y-129503368D01*
X93740994Y-129432359D01*
X93705657Y-129292815D01*
X93630047Y-129120444D01*
X93619744Y-129061017D01*
X93638242Y-129003608D01*
X93681303Y-128961375D01*
X93682575Y-128960622D01*
X93692857Y-128954542D01*
X93707183Y-128940215D01*
X93722212Y-128927378D01*
X93738602Y-128915472D01*
X93766789Y-128881397D01*
X93774767Y-128872630D01*
X94442266Y-128205131D01*
X94450531Y-128197609D01*
X94457018Y-128193495D01*
X94503661Y-128143823D01*
X94506353Y-128141045D01*
X94526135Y-128121265D01*
X94528613Y-128118069D01*
X94536308Y-128109058D01*
X94566586Y-128076816D01*
X94576348Y-128059057D01*
X94587195Y-128042545D01*
X94599614Y-128026536D01*
X94617179Y-127985941D01*
X94622388Y-127975309D01*
X94643695Y-127936555D01*
X94648733Y-127916929D01*
X94655134Y-127898232D01*
X94663181Y-127879640D01*
X94670096Y-127835972D01*
X94672504Y-127824348D01*
X94681529Y-127789200D01*
X94683500Y-127781525D01*
X94683500Y-127761271D01*
X94685051Y-127741560D01*
X94686980Y-127729380D01*
X94688220Y-127721552D01*
X94684058Y-127677533D01*
X94683500Y-127665676D01*
X94683500Y-123404167D01*
X94684027Y-123392983D01*
X94685702Y-123385491D01*
X94683562Y-123317414D01*
X94683500Y-123313455D01*
X94683500Y-123289508D01*
X94683500Y-123285544D01*
X94682994Y-123281547D01*
X94682061Y-123269697D01*
X94680673Y-123225510D01*
X94675020Y-123206056D01*
X94671012Y-123186697D01*
X94668474Y-123166603D01*
X94652197Y-123125493D01*
X94648351Y-123114260D01*
X94636018Y-123071807D01*
X94625707Y-123054373D01*
X94617008Y-123036615D01*
X94612469Y-123025151D01*
X94609552Y-123017783D01*
X94583561Y-122982010D01*
X94577050Y-122972098D01*
X94561715Y-122946167D01*
X94554542Y-122934037D01*
X94540217Y-122919712D01*
X94527376Y-122904677D01*
X94520134Y-122894709D01*
X94520131Y-122894706D01*
X94515472Y-122888293D01*
X94481405Y-122860110D01*
X94472626Y-122852121D01*
X94220114Y-122599609D01*
X94187730Y-122543963D01*
X94187065Y-122479587D01*
X94219194Y-122352712D01*
X94238146Y-122124000D01*
X94219194Y-121895288D01*
X94162857Y-121672815D01*
X94070669Y-121462649D01*
X93945147Y-121270523D01*
X93789714Y-121101678D01*
X93608610Y-120960719D01*
X93517432Y-120911376D01*
X93411359Y-120853972D01*
X93411356Y-120853970D01*
X93406774Y-120851491D01*
X93401850Y-120849800D01*
X93401842Y-120849797D01*
X93356873Y-120834360D01*
X93301636Y-120796620D01*
X93273503Y-120735925D01*
X93280405Y-120669383D01*
X93320396Y-120615754D01*
X93324417Y-120612624D01*
X93332514Y-120606322D01*
X93487947Y-120437477D01*
X93613469Y-120245351D01*
X93705657Y-120035185D01*
X93761994Y-119812712D01*
X93780946Y-119584000D01*
X93761994Y-119355288D01*
X93705657Y-119132815D01*
X93613469Y-118922649D01*
X93487947Y-118730523D01*
X93332514Y-118561678D01*
X93328401Y-118558477D01*
X93328396Y-118558472D01*
X93320391Y-118552241D01*
X93280403Y-118498611D01*
X93273504Y-118432070D01*
X93301638Y-118371376D01*
X93356871Y-118333640D01*
X93406774Y-118316509D01*
X93608610Y-118207281D01*
X93789714Y-118066322D01*
X93945147Y-117897477D01*
X94070669Y-117705351D01*
X94162857Y-117495185D01*
X94219194Y-117272712D01*
X94238146Y-117044000D01*
X94219194Y-116815288D01*
X94162857Y-116592815D01*
X94070669Y-116382649D01*
X93945147Y-116190523D01*
X93845488Y-116082265D01*
X93793243Y-116025511D01*
X93793239Y-116025508D01*
X93789714Y-116021678D01*
X93608610Y-115880719D01*
X93485934Y-115814330D01*
X93411359Y-115773972D01*
X93411356Y-115773970D01*
X93406774Y-115771491D01*
X93401850Y-115769800D01*
X93401842Y-115769797D01*
X93245058Y-115715974D01*
X93204868Y-115693229D01*
X93175572Y-115657532D01*
X93163160Y-115634970D01*
X92032189Y-114503999D01*
X92755567Y-114503999D01*
X92762339Y-114515729D01*
X93523540Y-115276930D01*
X93533072Y-115282949D01*
X93541167Y-115275101D01*
X93610178Y-115169473D01*
X93615121Y-115160338D01*
X93703089Y-114959792D01*
X93706459Y-114949976D01*
X93760220Y-114737679D01*
X93761929Y-114727436D01*
X93780014Y-114509189D01*
X93780014Y-114498811D01*
X93761929Y-114280563D01*
X93760220Y-114270320D01*
X93706459Y-114058023D01*
X93703089Y-114048207D01*
X93615121Y-113847661D01*
X93610178Y-113838526D01*
X93541167Y-113732897D01*
X93533072Y-113725049D01*
X93523540Y-113731068D01*
X92762338Y-114492271D01*
X92755567Y-114503999D01*
X92032189Y-114503999D01*
X91860669Y-114332479D01*
X91834124Y-114293418D01*
X91823826Y-114247327D01*
X91823662Y-114242089D01*
X91823600Y-114238146D01*
X91823600Y-114214209D01*
X91823600Y-114210244D01*
X91823095Y-114206252D01*
X91822162Y-114194405D01*
X91822162Y-114194392D01*
X91820774Y-114150211D01*
X91815119Y-114130747D01*
X91811113Y-114111401D01*
X91808574Y-114091303D01*
X91792299Y-114050198D01*
X91788453Y-114038965D01*
X91778329Y-114004118D01*
X91776118Y-113996507D01*
X91772082Y-113989682D01*
X91765808Y-113979073D01*
X91757107Y-113961313D01*
X91752685Y-113950144D01*
X91749652Y-113942483D01*
X91723665Y-113906716D01*
X91717147Y-113896793D01*
X91698678Y-113865563D01*
X91694642Y-113858738D01*
X91680317Y-113844413D01*
X91667482Y-113829386D01*
X91655572Y-113812993D01*
X91649467Y-113807942D01*
X91649460Y-113807935D01*
X91621494Y-113784800D01*
X91612715Y-113776811D01*
X91196628Y-113360724D01*
X91612869Y-113360724D01*
X91619638Y-113373028D01*
X92379670Y-114133060D01*
X92391399Y-114139832D01*
X92403130Y-114133059D01*
X93163162Y-113373026D01*
X93175929Y-113349818D01*
X93205225Y-113314119D01*
X93245416Y-113291374D01*
X93401641Y-113237742D01*
X93411158Y-113233567D01*
X93603753Y-113129340D01*
X93612448Y-113123659D01*
X93618891Y-113118644D01*
X93627128Y-113107273D01*
X93620360Y-113094970D01*
X92860329Y-112334939D01*
X92848599Y-112328167D01*
X92836871Y-112334938D01*
X92076837Y-113094971D01*
X92064068Y-113118184D01*
X92034772Y-113153880D01*
X91994583Y-113176625D01*
X91838355Y-113230259D01*
X91828841Y-113234432D01*
X91636243Y-113338661D01*
X91627557Y-113344335D01*
X91621104Y-113349357D01*
X91612869Y-113360724D01*
X91196628Y-113360724D01*
X89805094Y-111969189D01*
X91459986Y-111969189D01*
X91478070Y-112187436D01*
X91479779Y-112197679D01*
X91533540Y-112409976D01*
X91536910Y-112419792D01*
X91624878Y-112620338D01*
X91629821Y-112629473D01*
X91698834Y-112735105D01*
X91706925Y-112742949D01*
X91716459Y-112736929D01*
X92477659Y-111975730D01*
X92484432Y-111963999D01*
X93212767Y-111963999D01*
X93219539Y-111975729D01*
X93980740Y-112736930D01*
X93990272Y-112742949D01*
X93998367Y-112735101D01*
X94067378Y-112629473D01*
X94072321Y-112620338D01*
X94160289Y-112419792D01*
X94163659Y-112409976D01*
X94217420Y-112197679D01*
X94219129Y-112187436D01*
X94237214Y-111969189D01*
X94237214Y-111958811D01*
X94219129Y-111740563D01*
X94217420Y-111730320D01*
X94163659Y-111518023D01*
X94160289Y-111508207D01*
X94072321Y-111307661D01*
X94067378Y-111298526D01*
X93998367Y-111192897D01*
X93990272Y-111185049D01*
X93980740Y-111191068D01*
X93219538Y-111952271D01*
X93212767Y-111963999D01*
X92484432Y-111963999D01*
X92477660Y-111952270D01*
X91716460Y-111191070D01*
X91706926Y-111185049D01*
X91698832Y-111192896D01*
X91629824Y-111298522D01*
X91624877Y-111307663D01*
X91536910Y-111508207D01*
X91533540Y-111518023D01*
X91479779Y-111730320D01*
X91478070Y-111740563D01*
X91459986Y-111958811D01*
X91459986Y-111969189D01*
X89805094Y-111969189D01*
X89320405Y-111484500D01*
X89293091Y-111443623D01*
X89283500Y-111395405D01*
X89283500Y-110524818D01*
X89301138Y-110460524D01*
X89349115Y-110414230D01*
X89413997Y-110398898D01*
X89477621Y-110418820D01*
X89536428Y-110456613D01*
X89731543Y-110534725D01*
X89937915Y-110574500D01*
X90092424Y-110574500D01*
X90095425Y-110574500D01*
X90252218Y-110559528D01*
X90453875Y-110500316D01*
X90640682Y-110404011D01*
X90805886Y-110274092D01*
X90943519Y-110115256D01*
X90956130Y-110093412D01*
X91000748Y-110048172D01*
X91061774Y-110030459D01*
X91123685Y-110044781D01*
X91170731Y-110087494D01*
X91294853Y-110277477D01*
X91298381Y-110281309D01*
X91446756Y-110442488D01*
X91446759Y-110442491D01*
X91450286Y-110446322D01*
X91631390Y-110587281D01*
X91833226Y-110696509D01*
X91838155Y-110698201D01*
X91838157Y-110698202D01*
X91870396Y-110709269D01*
X91994944Y-110752026D01*
X92035131Y-110774769D01*
X92064427Y-110810467D01*
X92076838Y-110833028D01*
X92836870Y-111593060D01*
X92848599Y-111599832D01*
X92860330Y-111593059D01*
X93620363Y-110833025D01*
X93627129Y-110820725D01*
X93618892Y-110809355D01*
X93612445Y-110804338D01*
X93603754Y-110798660D01*
X93411158Y-110694432D01*
X93401641Y-110690257D01*
X93356401Y-110674727D01*
X93301164Y-110636987D01*
X93273031Y-110576291D01*
X93279934Y-110509749D01*
X93319924Y-110456120D01*
X93332514Y-110446322D01*
X93487947Y-110277477D01*
X93613469Y-110085351D01*
X93705657Y-109875185D01*
X93761994Y-109652712D01*
X93780946Y-109424000D01*
X93761994Y-109195288D01*
X93705657Y-108972815D01*
X93613469Y-108762649D01*
X93487947Y-108570523D01*
X93484418Y-108566689D01*
X93484413Y-108566683D01*
X93404742Y-108480137D01*
X93376388Y-108429753D01*
X93373521Y-108372009D01*
X93396745Y-108319064D01*
X93441170Y-108282064D01*
X93497443Y-108268800D01*
X93770169Y-108268800D01*
X93773538Y-108268800D01*
X93834101Y-108262289D01*
X93971104Y-108211189D01*
X94088161Y-108123561D01*
X94175789Y-108006504D01*
X94226889Y-107869501D01*
X94233400Y-107808938D01*
X94233400Y-105959062D01*
X94226889Y-105898499D01*
X94175789Y-105761496D01*
X94147658Y-105723918D01*
X94093559Y-105651650D01*
X94088161Y-105644439D01*
X94022744Y-105595468D01*
X93978317Y-105562210D01*
X93978314Y-105562208D01*
X93971104Y-105556811D01*
X93962666Y-105553664D01*
X93962663Y-105553662D01*
X93841480Y-105508463D01*
X93841478Y-105508462D01*
X93834101Y-105505711D01*
X93826273Y-105504869D01*
X93826267Y-105504868D01*
X93776888Y-105499560D01*
X93776885Y-105499559D01*
X93773538Y-105499200D01*
X91923662Y-105499200D01*
X91920315Y-105499559D01*
X91920311Y-105499560D01*
X91870932Y-105504868D01*
X91870925Y-105504869D01*
X91863099Y-105505711D01*
X91855721Y-105508462D01*
X91855716Y-105508464D01*
X91831246Y-105517591D01*
X91774242Y-105524865D01*
X91719936Y-105506070D01*
X91679625Y-105465113D01*
X91661693Y-105410516D01*
X91656528Y-105351480D01*
X91654625Y-105340687D01*
X91598235Y-105130238D01*
X91594489Y-105119946D01*
X91502413Y-104922489D01*
X91496931Y-104912993D01*
X91371971Y-104734533D01*
X91364915Y-104726124D01*
X91210875Y-104572084D01*
X91202466Y-104565028D01*
X91024006Y-104440068D01*
X91014510Y-104434586D01*
X90817053Y-104342510D01*
X90806761Y-104338764D01*
X90596312Y-104282374D01*
X90585519Y-104280471D01*
X90422829Y-104266238D01*
X90417365Y-104266000D01*
X90333590Y-104266000D01*
X90320506Y-104269506D01*
X90317000Y-104282590D01*
X90317000Y-106865410D01*
X90320506Y-106878493D01*
X90333590Y-106882000D01*
X90417365Y-106882000D01*
X90422829Y-106881761D01*
X90585519Y-106867528D01*
X90596312Y-106865625D01*
X90806761Y-106809235D01*
X90817053Y-106805489D01*
X91014510Y-106713413D01*
X91024006Y-106707931D01*
X91202466Y-106582971D01*
X91210875Y-106575915D01*
X91248705Y-106538086D01*
X91298864Y-106507348D01*
X91357511Y-106502732D01*
X91411861Y-106525245D01*
X91450067Y-106569978D01*
X91463800Y-106627181D01*
X91463800Y-107808938D01*
X91464159Y-107812285D01*
X91464160Y-107812288D01*
X91469468Y-107861667D01*
X91469469Y-107861673D01*
X91470311Y-107869501D01*
X91473062Y-107876878D01*
X91473063Y-107876880D01*
X91518262Y-107998063D01*
X91518264Y-107998066D01*
X91521411Y-108006504D01*
X91526808Y-108013714D01*
X91526810Y-108013717D01*
X91608039Y-108122225D01*
X91632184Y-108181992D01*
X91623610Y-108245879D01*
X91584562Y-108297165D01*
X91454404Y-108398471D01*
X91454391Y-108398482D01*
X91450286Y-108401678D01*
X91446765Y-108405502D01*
X91446756Y-108405511D01*
X91298381Y-108566690D01*
X91298378Y-108566693D01*
X91294853Y-108570523D01*
X91292005Y-108574881D01*
X91292002Y-108574886D01*
X91174370Y-108754936D01*
X91169331Y-108762649D01*
X91167132Y-108767663D01*
X91151093Y-108804227D01*
X91109945Y-108855419D01*
X91048625Y-108878948D01*
X90983794Y-108868421D01*
X90933069Y-108826699D01*
X90898175Y-108777698D01*
X90878486Y-108750048D01*
X90862482Y-108734788D01*
X90730716Y-108609150D01*
X90730714Y-108609148D01*
X90726378Y-108605014D01*
X90721336Y-108601774D01*
X90721334Y-108601772D01*
X90554620Y-108494631D01*
X90554618Y-108494630D01*
X90549572Y-108491387D01*
X90543702Y-108489037D01*
X90360029Y-108415505D01*
X90360022Y-108415503D01*
X90354457Y-108413275D01*
X90348569Y-108412140D01*
X90348565Y-108412139D01*
X90153973Y-108374634D01*
X90153964Y-108374633D01*
X90148085Y-108373500D01*
X89990575Y-108373500D01*
X89987597Y-108373784D01*
X89987583Y-108373785D01*
X89839757Y-108387901D01*
X89839752Y-108387901D01*
X89833782Y-108388472D01*
X89828032Y-108390160D01*
X89828023Y-108390162D01*
X89637889Y-108445991D01*
X89637884Y-108445992D01*
X89632125Y-108447684D01*
X89626787Y-108450435D01*
X89626784Y-108450437D01*
X89551911Y-108489037D01*
X89467234Y-108532690D01*
X89405003Y-108546617D01*
X89343921Y-108528286D01*
X89299639Y-108482394D01*
X89283500Y-108420697D01*
X89283500Y-106963866D01*
X89296494Y-106908138D01*
X89332796Y-106863903D01*
X89384919Y-106840287D01*
X89442111Y-106842159D01*
X89529687Y-106865625D01*
X89540480Y-106867528D01*
X89703170Y-106881761D01*
X89708635Y-106882000D01*
X89792410Y-106882000D01*
X89805493Y-106878493D01*
X89809000Y-106865410D01*
X89809000Y-104282590D01*
X89805493Y-104269506D01*
X89792410Y-104266000D01*
X89708635Y-104266000D01*
X89703170Y-104266238D01*
X89540480Y-104280471D01*
X89529687Y-104282374D01*
X89319238Y-104338764D01*
X89308946Y-104342510D01*
X89111489Y-104434586D01*
X89101993Y-104440068D01*
X88923533Y-104565028D01*
X88915124Y-104572084D01*
X88761084Y-104726124D01*
X88754028Y-104734533D01*
X88629068Y-104912993D01*
X88623583Y-104922494D01*
X88593037Y-104988000D01*
X88555546Y-105034712D01*
X88500722Y-105058835D01*
X88440954Y-105054917D01*
X88389748Y-105023844D01*
X87708414Y-104342510D01*
X86452441Y-103086536D01*
X86419017Y-103026853D01*
X86403260Y-102961218D01*
X86402105Y-102956406D01*
X86400210Y-102951832D01*
X86386233Y-102918088D01*
X86311240Y-102737037D01*
X86187176Y-102534584D01*
X86032969Y-102354031D01*
X86029213Y-102350823D01*
X85856175Y-102203034D01*
X85856171Y-102203031D01*
X85852416Y-102199824D01*
X85649963Y-102075760D01*
X85430594Y-101984895D01*
X85425786Y-101983740D01*
X85425781Y-101983739D01*
X85204523Y-101930620D01*
X85204519Y-101930619D01*
X85199711Y-101929465D01*
X85194785Y-101929077D01*
X85194777Y-101929076D01*
X84967930Y-101911223D01*
X84963000Y-101910835D01*
X84958070Y-101911223D01*
X84731222Y-101929076D01*
X84731212Y-101929077D01*
X84726289Y-101929465D01*
X84721482Y-101930619D01*
X84721476Y-101930620D01*
X84500218Y-101983739D01*
X84500209Y-101983741D01*
X84495406Y-101984895D01*
X84490838Y-101986786D01*
X84490832Y-101986789D01*
X84280611Y-102073865D01*
X84280606Y-102073867D01*
X84276037Y-102075760D01*
X84271817Y-102078345D01*
X84271817Y-102078346D01*
X84077798Y-102197241D01*
X84077792Y-102197245D01*
X84073584Y-102199824D01*
X84069834Y-102203026D01*
X84069824Y-102203034D01*
X83896786Y-102350823D01*
X83896779Y-102350829D01*
X83893031Y-102354031D01*
X83889829Y-102357779D01*
X83889823Y-102357786D01*
X83742034Y-102530824D01*
X83742026Y-102530834D01*
X83738824Y-102534584D01*
X83736245Y-102538792D01*
X83736241Y-102538798D01*
X83617346Y-102732817D01*
X83614760Y-102737037D01*
X83612867Y-102741606D01*
X83612865Y-102741611D01*
X83525789Y-102951832D01*
X83525786Y-102951838D01*
X83523895Y-102956406D01*
X83522741Y-102961209D01*
X83522739Y-102961218D01*
X83469620Y-103182476D01*
X83468465Y-103187289D01*
X83468077Y-103192212D01*
X83468076Y-103192222D01*
X83450223Y-103419070D01*
X83449835Y-103424000D01*
X83450223Y-103428930D01*
X83468076Y-103655777D01*
X83468077Y-103655785D01*
X83468465Y-103660711D01*
X83469619Y-103665519D01*
X83469620Y-103665523D01*
X83522739Y-103886781D01*
X83522740Y-103886786D01*
X83523895Y-103891594D01*
X83614760Y-104110963D01*
X83738824Y-104313416D01*
X83742031Y-104317171D01*
X83742034Y-104317175D01*
X83842313Y-104434586D01*
X83893031Y-104493969D01*
X83896786Y-104497176D01*
X83988884Y-104575836D01*
X84027159Y-104633560D01*
X84029143Y-104702792D01*
X83994238Y-104762613D01*
X83911745Y-104841675D01*
X83911735Y-104841685D01*
X83907882Y-104845379D01*
X83904706Y-104849672D01*
X83904700Y-104849680D01*
X83769303Y-105032749D01*
X83769296Y-105032758D01*
X83766121Y-105037053D01*
X83763716Y-105041822D01*
X83763711Y-105041831D01*
X83661201Y-105245148D01*
X83661197Y-105245157D01*
X83658793Y-105249926D01*
X83657228Y-105255033D01*
X83657225Y-105255043D01*
X83590550Y-105472762D01*
X83588984Y-105477877D01*
X83588304Y-105483181D01*
X83588304Y-105483185D01*
X83559381Y-105709037D01*
X83559380Y-105709047D01*
X83558702Y-105714346D01*
X83558929Y-105719691D01*
X83558929Y-105719693D01*
X83568592Y-105947179D01*
X83568592Y-105947186D01*
X83568820Y-105952532D01*
X83569947Y-105957765D01*
X83569948Y-105957766D01*
X83617917Y-106180345D01*
X83617918Y-106180351D01*
X83619046Y-106185581D01*
X83621041Y-106190547D01*
X83621044Y-106190555D01*
X83637854Y-106232388D01*
X83645663Y-106297259D01*
X83619932Y-106357320D01*
X83567580Y-106396417D01*
X83546762Y-106404712D01*
X83546756Y-106404714D01*
X83543583Y-106405979D01*
X83540579Y-106407571D01*
X83540563Y-106407579D01*
X83223202Y-106575833D01*
X83223185Y-106575843D01*
X83220192Y-106577430D01*
X83217385Y-106579333D01*
X83217372Y-106579341D01*
X82920059Y-106780925D01*
X82920051Y-106780930D01*
X82917234Y-106782841D01*
X82914634Y-106785049D01*
X82914628Y-106785054D01*
X82640857Y-107017597D01*
X82640847Y-107017606D01*
X82638261Y-107019803D01*
X82635930Y-107022263D01*
X82635915Y-107022278D01*
X82388895Y-107283054D01*
X82388886Y-107283063D01*
X82386543Y-107285538D01*
X82384476Y-107288256D01*
X82384476Y-107288257D01*
X82167102Y-107574207D01*
X82167095Y-107574215D01*
X82165032Y-107576931D01*
X82163274Y-107579851D01*
X82163267Y-107579863D01*
X81993712Y-107861667D01*
X81976325Y-107890565D01*
X81974895Y-107893655D01*
X81974888Y-107893669D01*
X81824066Y-108219665D01*
X81824061Y-108219676D01*
X81822633Y-108222764D01*
X81821547Y-108225985D01*
X81821543Y-108225997D01*
X81706850Y-108566395D01*
X81706846Y-108566406D01*
X81705760Y-108569632D01*
X81705029Y-108572951D01*
X81705025Y-108572967D01*
X81628363Y-108921247D01*
X81627074Y-108927103D01*
X81626705Y-108930493D01*
X81626705Y-108930495D01*
X81587869Y-109287587D01*
X81587868Y-109287599D01*
X81587500Y-109290986D01*
X81587500Y-109657014D01*
X81587868Y-109660401D01*
X81587869Y-109660412D01*
X81610678Y-109870139D01*
X81627074Y-110020897D01*
X81627806Y-110024224D01*
X81627807Y-110024228D01*
X81705025Y-110375032D01*
X81705028Y-110375043D01*
X81705760Y-110378368D01*
X81706848Y-110381598D01*
X81706850Y-110381604D01*
X81818601Y-110713271D01*
X81822633Y-110725236D01*
X81824064Y-110728329D01*
X81824066Y-110728334D01*
X81921288Y-110938476D01*
X81976325Y-111057435D01*
X82165032Y-111371069D01*
X82386543Y-111662462D01*
X82388894Y-111664944D01*
X82388895Y-111664945D01*
X82635915Y-111925721D01*
X82635920Y-111925726D01*
X82638261Y-111928197D01*
X82917234Y-112165159D01*
X83220192Y-112370570D01*
X83254928Y-112388986D01*
X83264720Y-112394177D01*
X83312955Y-112439374D01*
X83331671Y-112502770D01*
X83315719Y-112566917D01*
X83269488Y-112614161D01*
X83205701Y-112631500D01*
X81514362Y-112631500D01*
X81511015Y-112631859D01*
X81511011Y-112631860D01*
X81461632Y-112637168D01*
X81461625Y-112637169D01*
X81453799Y-112638011D01*
X81446423Y-112640761D01*
X81446419Y-112640763D01*
X81325236Y-112685962D01*
X81325230Y-112685965D01*
X81316796Y-112689111D01*
X81309588Y-112694506D01*
X81309582Y-112694510D01*
X81206950Y-112771340D01*
X81206946Y-112771343D01*
X81199739Y-112776739D01*
X81194343Y-112783946D01*
X81194340Y-112783950D01*
X81132912Y-112866009D01*
X81088444Y-112903172D01*
X81032044Y-112916500D01*
X80708200Y-112916500D01*
X80656953Y-112905608D01*
X80621275Y-112879687D01*
X80620580Y-112880460D01*
X80615667Y-112876037D01*
X80611253Y-112871134D01*
X80578766Y-112847531D01*
X80559608Y-112833612D01*
X80456752Y-112758882D01*
X80282288Y-112681206D01*
X80275835Y-112679834D01*
X80275831Y-112679833D01*
X80101943Y-112642872D01*
X80101940Y-112642871D01*
X80095487Y-112641500D01*
X79904513Y-112641500D01*
X79898060Y-112642871D01*
X79898056Y-112642872D01*
X79724168Y-112679833D01*
X79724161Y-112679835D01*
X79717712Y-112681206D01*
X79711682Y-112683890D01*
X79711681Y-112683891D01*
X79549278Y-112756197D01*
X79549275Y-112756198D01*
X79543248Y-112758882D01*
X79537907Y-112762762D01*
X79537906Y-112762763D01*
X79394091Y-112867250D01*
X79394087Y-112867254D01*
X79388747Y-112871134D01*
X79384330Y-112876039D01*
X79384325Y-112876044D01*
X79276539Y-112995754D01*
X79260960Y-113013056D01*
X79257661Y-113018769D01*
X79257658Y-113018774D01*
X79168777Y-113172721D01*
X79165473Y-113178444D01*
X79163434Y-113184718D01*
X79163430Y-113184728D01*
X79108497Y-113353794D01*
X79108495Y-113353801D01*
X79106458Y-113360072D01*
X79086496Y-113550000D01*
X79106458Y-113739928D01*
X79108495Y-113746200D01*
X79108497Y-113746205D01*
X79163430Y-113915271D01*
X79163433Y-113915278D01*
X79165473Y-113921556D01*
X79260960Y-114086944D01*
X79388747Y-114228866D01*
X79394089Y-114232747D01*
X79394091Y-114232749D01*
X79414156Y-114247327D01*
X79543248Y-114341118D01*
X79643180Y-114385610D01*
X79695270Y-114428625D01*
X79717655Y-114492363D01*
X79703900Y-114558503D01*
X79657959Y-114608032D01*
X79593039Y-114626712D01*
X79582960Y-114626800D01*
X79582950Y-114626800D01*
X79578001Y-114626844D01*
X79573125Y-114627659D01*
X79573113Y-114627661D01*
X79494128Y-114640879D01*
X79494124Y-114640880D01*
X79484349Y-114642516D01*
X79475554Y-114647094D01*
X79475552Y-114647095D01*
X79380618Y-114696514D01*
X79380613Y-114696517D01*
X79371818Y-114701096D01*
X79364865Y-114708170D01*
X79364864Y-114708172D01*
X79289849Y-114784508D01*
X79289847Y-114784510D01*
X79282896Y-114791584D01*
X79278470Y-114800459D01*
X79278469Y-114800462D01*
X79230713Y-114896244D01*
X79226288Y-114905120D01*
X79224822Y-114914926D01*
X79224822Y-114914928D01*
X79209001Y-115020785D01*
X79209001Y-115020789D01*
X79207536Y-115030592D01*
X79209171Y-115040368D01*
X79209172Y-115040371D01*
X79226838Y-115145938D01*
X79228475Y-115155718D01*
X79233054Y-115164514D01*
X79280118Y-115254925D01*
X79287055Y-115268249D01*
X79377543Y-115357171D01*
X79491079Y-115413779D01*
X79584990Y-115427814D01*
X80348000Y-115421156D01*
X80441652Y-115405484D01*
X80554183Y-115346904D01*
X80643105Y-115256416D01*
X80699712Y-115142880D01*
X80718464Y-115017408D01*
X80697525Y-114892282D01*
X80638945Y-114779751D01*
X80548458Y-114690829D01*
X80539586Y-114686405D01*
X80539584Y-114686404D01*
X80443797Y-114638646D01*
X80434922Y-114634221D01*
X80425115Y-114632755D01*
X80425114Y-114632755D01*
X80385926Y-114626898D01*
X80326977Y-114601570D01*
X80288142Y-114550498D01*
X80279491Y-114486925D01*
X80303267Y-114427333D01*
X80353304Y-114387175D01*
X80456752Y-114341118D01*
X80611253Y-114228866D01*
X80615669Y-114223961D01*
X80620580Y-114219540D01*
X80621275Y-114220312D01*
X80656953Y-114194392D01*
X80708200Y-114183500D01*
X81017820Y-114183500D01*
X81084037Y-114202302D01*
X81130491Y-114253098D01*
X81143319Y-114320726D01*
X81121240Y-114378352D01*
X81121829Y-114378674D01*
X81119443Y-114383042D01*
X81118692Y-114385004D01*
X81117510Y-114386582D01*
X81117506Y-114386587D01*
X81112111Y-114393796D01*
X81108964Y-114402232D01*
X81108963Y-114402235D01*
X81063763Y-114523419D01*
X81063761Y-114523423D01*
X81061011Y-114530799D01*
X81060169Y-114538625D01*
X81060168Y-114538632D01*
X81054860Y-114588011D01*
X81054500Y-114591362D01*
X81054500Y-115508638D01*
X81054859Y-115511985D01*
X81054860Y-115511988D01*
X81060168Y-115561367D01*
X81060169Y-115561373D01*
X81061011Y-115569201D01*
X81063762Y-115576578D01*
X81063763Y-115576580D01*
X81108962Y-115697763D01*
X81108964Y-115697766D01*
X81112111Y-115706204D01*
X81117508Y-115713414D01*
X81117510Y-115713417D01*
X81182700Y-115800500D01*
X81199739Y-115823261D01*
X81206950Y-115828659D01*
X81291656Y-115892070D01*
X81316796Y-115910889D01*
X81453799Y-115961989D01*
X81514362Y-115968500D01*
X83308269Y-115968500D01*
X83311638Y-115968500D01*
X83372201Y-115961989D01*
X83509204Y-115910889D01*
X83623093Y-115825632D01*
X83658812Y-115806948D01*
X83698603Y-115800500D01*
X83842737Y-115800500D01*
X83900129Y-115814330D01*
X83944923Y-115852784D01*
X83967284Y-115907420D01*
X83973180Y-115945906D01*
X83989444Y-116052071D01*
X83991661Y-116058059D01*
X83991663Y-116058064D01*
X84051010Y-116218305D01*
X84060114Y-116242887D01*
X84063493Y-116248309D01*
X84063496Y-116248314D01*
X84164364Y-116410143D01*
X84164367Y-116410147D01*
X84167748Y-116415571D01*
X84307941Y-116563053D01*
X84474951Y-116679295D01*
X84661942Y-116759540D01*
X84861259Y-116800500D01*
X85010542Y-116800500D01*
X85013742Y-116800500D01*
X85165438Y-116785074D01*
X85171535Y-116783160D01*
X85171540Y-116783160D01*
X85307443Y-116740520D01*
X85373645Y-116738002D01*
X85431973Y-116769417D01*
X85466301Y-116826079D01*
X85467141Y-116892323D01*
X85434258Y-116949836D01*
X82047742Y-120336351D01*
X82039459Y-120343888D01*
X82032982Y-120348000D01*
X82027563Y-120353769D01*
X82027555Y-120353777D01*
X81986370Y-120397635D01*
X81983621Y-120400472D01*
X81966667Y-120417427D01*
X81966660Y-120417434D01*
X81963865Y-120420230D01*
X81961442Y-120423352D01*
X81961426Y-120423371D01*
X81961365Y-120423451D01*
X81953690Y-120432435D01*
X81928838Y-120458902D01*
X81928835Y-120458904D01*
X81923414Y-120464679D01*
X81919600Y-120471614D01*
X81919592Y-120471627D01*
X81913650Y-120482436D01*
X81902803Y-120498949D01*
X81895243Y-120508695D01*
X81895237Y-120508704D01*
X81890386Y-120514959D01*
X81887242Y-120522223D01*
X81887238Y-120522231D01*
X81872824Y-120555540D01*
X81867604Y-120566195D01*
X81850125Y-120597989D01*
X81850121Y-120597997D01*
X81846305Y-120604940D01*
X81844333Y-120612616D01*
X81844331Y-120612624D01*
X81841266Y-120624562D01*
X81834865Y-120643259D01*
X81829968Y-120654576D01*
X81829966Y-120654581D01*
X81826819Y-120661855D01*
X81825579Y-120669680D01*
X81825577Y-120669689D01*
X81819901Y-120705524D01*
X81817495Y-120717144D01*
X81808471Y-120752289D01*
X81808469Y-120752297D01*
X81806500Y-120759970D01*
X81806500Y-120767899D01*
X81806500Y-120780224D01*
X81804949Y-120799935D01*
X81803019Y-120812114D01*
X81803018Y-120812121D01*
X81801780Y-120819943D01*
X81802525Y-120827826D01*
X81802525Y-120827834D01*
X81805941Y-120863961D01*
X81806500Y-120875819D01*
X81806500Y-123826949D01*
X81789204Y-123890662D01*
X81742066Y-123936884D01*
X81678026Y-123952925D01*
X81614665Y-123934381D01*
X81523957Y-123878794D01*
X81515162Y-123874313D01*
X81305010Y-123787265D01*
X81295624Y-123784216D01*
X81180493Y-123756575D01*
X81169291Y-123756389D01*
X81166269Y-123767175D01*
X81100363Y-124984107D01*
X81100363Y-124984111D01*
X81079705Y-125365548D01*
X81059442Y-125427543D01*
X81010896Y-125471100D01*
X80947075Y-125484550D01*
X79351947Y-125398160D01*
X79338247Y-125401365D01*
X79335379Y-125415138D01*
X79338571Y-125455700D01*
X79340113Y-125465438D01*
X79393216Y-125686626D01*
X79396266Y-125696012D01*
X79483313Y-125906162D01*
X79487794Y-125914957D01*
X79606642Y-126108899D01*
X79612442Y-126116882D01*
X79760178Y-126289858D01*
X79767141Y-126296821D01*
X79940117Y-126444557D01*
X79948100Y-126450357D01*
X80142042Y-126569205D01*
X80150837Y-126573686D01*
X80360987Y-126660733D01*
X80370373Y-126663783D01*
X80569040Y-126711479D01*
X80626239Y-126742487D01*
X80660343Y-126797896D01*
X80662259Y-126862931D01*
X80631476Y-126920251D01*
X80596371Y-126957634D01*
X80593621Y-126960472D01*
X80576667Y-126977427D01*
X80576660Y-126977434D01*
X80573865Y-126980230D01*
X80571442Y-126983352D01*
X80571426Y-126983371D01*
X80571365Y-126983451D01*
X80563690Y-126992435D01*
X80538838Y-127018902D01*
X80538835Y-127018904D01*
X80533414Y-127024679D01*
X80529600Y-127031614D01*
X80529592Y-127031627D01*
X80523650Y-127042436D01*
X80512803Y-127058949D01*
X80505243Y-127068695D01*
X80505237Y-127068704D01*
X80500386Y-127074959D01*
X80497242Y-127082223D01*
X80497238Y-127082231D01*
X80482824Y-127115540D01*
X80477604Y-127126195D01*
X80460125Y-127157989D01*
X80460121Y-127157997D01*
X80456305Y-127164940D01*
X80454333Y-127172616D01*
X80454331Y-127172624D01*
X80451266Y-127184562D01*
X80444865Y-127203259D01*
X80439968Y-127214576D01*
X80439966Y-127214581D01*
X80436819Y-127221855D01*
X80435579Y-127229680D01*
X80435577Y-127229689D01*
X80429901Y-127265524D01*
X80427495Y-127277144D01*
X80418471Y-127312289D01*
X80418469Y-127312297D01*
X80416500Y-127319970D01*
X80416500Y-127327899D01*
X80416500Y-127340224D01*
X80414949Y-127359935D01*
X80413019Y-127372114D01*
X80413018Y-127372121D01*
X80411780Y-127379943D01*
X80412525Y-127387826D01*
X80412525Y-127387834D01*
X80415941Y-127423961D01*
X80416500Y-127435819D01*
X80416500Y-127549310D01*
X80397627Y-127615641D01*
X80346663Y-127662101D01*
X80278874Y-127674772D01*
X80214568Y-127649860D01*
X80075905Y-127545145D01*
X80075900Y-127545142D01*
X80071255Y-127541634D01*
X80066042Y-127539038D01*
X80066040Y-127539037D01*
X79885600Y-127449189D01*
X79885593Y-127449186D01*
X79880389Y-127446595D01*
X79874791Y-127445002D01*
X79874788Y-127445001D01*
X79680909Y-127389837D01*
X79680908Y-127389836D01*
X79675310Y-127388244D01*
X79669515Y-127387707D01*
X79519089Y-127373768D01*
X79519083Y-127373767D01*
X79516194Y-127373500D01*
X79409806Y-127373500D01*
X79406917Y-127373767D01*
X79406910Y-127373768D01*
X79256484Y-127387707D01*
X79256482Y-127387707D01*
X79250690Y-127388244D01*
X79245093Y-127389836D01*
X79245090Y-127389837D01*
X79051211Y-127445001D01*
X79051204Y-127445003D01*
X79045611Y-127446595D01*
X79040410Y-127449184D01*
X79040399Y-127449189D01*
X78859959Y-127539037D01*
X78859952Y-127539040D01*
X78854745Y-127541634D01*
X78850103Y-127545139D01*
X78850094Y-127545145D01*
X78695290Y-127662049D01*
X78638645Y-127686014D01*
X78577404Y-127680309D01*
X78526160Y-127646294D01*
X78497124Y-127592073D01*
X78497214Y-127530567D01*
X78510878Y-127476609D01*
X78521994Y-127432712D01*
X78540946Y-127204000D01*
X78521994Y-126975288D01*
X78465657Y-126752815D01*
X78373469Y-126542649D01*
X78247947Y-126350523D01*
X78154451Y-126248959D01*
X78096043Y-126185511D01*
X78096039Y-126185508D01*
X78092514Y-126181678D01*
X78088401Y-126178477D01*
X78088396Y-126178472D01*
X78080391Y-126172241D01*
X78040403Y-126118611D01*
X78033504Y-126052070D01*
X78061638Y-125991376D01*
X78116871Y-125953640D01*
X78166774Y-125936509D01*
X78368610Y-125827281D01*
X78549714Y-125686322D01*
X78705147Y-125517477D01*
X78830669Y-125325351D01*
X78922857Y-125115185D01*
X78979194Y-124892712D01*
X78979609Y-124887707D01*
X79365389Y-124887707D01*
X79376175Y-124890729D01*
X80576543Y-124955738D01*
X80589796Y-124952945D01*
X80594003Y-124940073D01*
X80658838Y-123742947D01*
X80655633Y-123729247D01*
X80641860Y-123726379D01*
X80601299Y-123729571D01*
X80591561Y-123731113D01*
X80370373Y-123784216D01*
X80360987Y-123787266D01*
X80150837Y-123874313D01*
X80142042Y-123878794D01*
X79948100Y-123997642D01*
X79940117Y-124003442D01*
X79767141Y-124151178D01*
X79760178Y-124158141D01*
X79612442Y-124331117D01*
X79606642Y-124339100D01*
X79487794Y-124533042D01*
X79483313Y-124541837D01*
X79396265Y-124751989D01*
X79393216Y-124761375D01*
X79365575Y-124876505D01*
X79365389Y-124887707D01*
X78979609Y-124887707D01*
X78998146Y-124664000D01*
X78979194Y-124435288D01*
X78922857Y-124212815D01*
X78830669Y-124002649D01*
X78705147Y-123810523D01*
X78618402Y-123716293D01*
X78553243Y-123645511D01*
X78553239Y-123645508D01*
X78549714Y-123641678D01*
X78368610Y-123500719D01*
X78261790Y-123442911D01*
X78171359Y-123393972D01*
X78171356Y-123393970D01*
X78166774Y-123391491D01*
X78161850Y-123389800D01*
X78161842Y-123389797D01*
X78116873Y-123374360D01*
X78061636Y-123336620D01*
X78033503Y-123275925D01*
X78040405Y-123209383D01*
X78080396Y-123155754D01*
X78081784Y-123154672D01*
X78092514Y-123146322D01*
X78247947Y-122977477D01*
X78373469Y-122785351D01*
X78465657Y-122575185D01*
X78521994Y-122352712D01*
X78540946Y-122124000D01*
X78521994Y-121895288D01*
X78465657Y-121672815D01*
X78373469Y-121462649D01*
X78247947Y-121270523D01*
X78092514Y-121101678D01*
X78088401Y-121098477D01*
X78088396Y-121098472D01*
X78080391Y-121092241D01*
X78040403Y-121038611D01*
X78033504Y-120972070D01*
X78061638Y-120911376D01*
X78116871Y-120873640D01*
X78166774Y-120856509D01*
X78368610Y-120747281D01*
X78549714Y-120606322D01*
X78705147Y-120437477D01*
X78830669Y-120245351D01*
X78922857Y-120035185D01*
X78979194Y-119812712D01*
X78998146Y-119584000D01*
X78979194Y-119355288D01*
X78922857Y-119132815D01*
X78830669Y-118922649D01*
X78705147Y-118730523D01*
X78549714Y-118561678D01*
X78368610Y-118420719D01*
X78207698Y-118333638D01*
X78171359Y-118313972D01*
X78171356Y-118313970D01*
X78166774Y-118311491D01*
X78161850Y-118309800D01*
X78161842Y-118309797D01*
X78116873Y-118294360D01*
X78061636Y-118256620D01*
X78033503Y-118195925D01*
X78040405Y-118129383D01*
X78080396Y-118075754D01*
X78081784Y-118074672D01*
X78092514Y-118066322D01*
X78247947Y-117897477D01*
X78373469Y-117705351D01*
X78465657Y-117495185D01*
X78521994Y-117272712D01*
X78540946Y-117044000D01*
X78521994Y-116815288D01*
X78465657Y-116592815D01*
X78373469Y-116382649D01*
X78247947Y-116190523D01*
X78148288Y-116082265D01*
X78096043Y-116025511D01*
X78096039Y-116025508D01*
X78092514Y-116021678D01*
X78088401Y-116018477D01*
X78088396Y-116018472D01*
X78080391Y-116012241D01*
X78040403Y-115958611D01*
X78033504Y-115892070D01*
X78061638Y-115831376D01*
X78116871Y-115793640D01*
X78166774Y-115776509D01*
X78368610Y-115667281D01*
X78549714Y-115526322D01*
X78705147Y-115357477D01*
X78830669Y-115165351D01*
X78922857Y-114955185D01*
X78979194Y-114732712D01*
X78998146Y-114504000D01*
X78979194Y-114275288D01*
X78922857Y-114052815D01*
X78830669Y-113842649D01*
X78705147Y-113650523D01*
X78612609Y-113550000D01*
X78553243Y-113485511D01*
X78553239Y-113485508D01*
X78549714Y-113481678D01*
X78368610Y-113340719D01*
X78172209Y-113234432D01*
X78171359Y-113233972D01*
X78171356Y-113233970D01*
X78166774Y-113231491D01*
X78161850Y-113229800D01*
X78161842Y-113229797D01*
X78116873Y-113214360D01*
X78061636Y-113176620D01*
X78033503Y-113115925D01*
X78040405Y-113049383D01*
X78080396Y-112995754D01*
X78081784Y-112994672D01*
X78092514Y-112986322D01*
X78247947Y-112817477D01*
X78373469Y-112625351D01*
X78465657Y-112415185D01*
X78521994Y-112192712D01*
X78540946Y-111964000D01*
X78521994Y-111735288D01*
X78465657Y-111512815D01*
X78373469Y-111302649D01*
X78247947Y-111110523D01*
X78092514Y-110941678D01*
X78087479Y-110937759D01*
X78079921Y-110931876D01*
X78039932Y-110878245D01*
X78033032Y-110811704D01*
X78061166Y-110751010D01*
X78116403Y-110713271D01*
X78161645Y-110697740D01*
X78171158Y-110693567D01*
X78363753Y-110589340D01*
X78372448Y-110583659D01*
X78378891Y-110578644D01*
X78387128Y-110567273D01*
X78380360Y-110554970D01*
X77620329Y-109794939D01*
X77608599Y-109788167D01*
X77596871Y-109794938D01*
X76836837Y-110554971D01*
X76824426Y-110577533D01*
X76795130Y-110613230D01*
X76754940Y-110635974D01*
X76598158Y-110689797D01*
X76598149Y-110689800D01*
X76593226Y-110691491D01*
X76588647Y-110693968D01*
X76588640Y-110693972D01*
X76395972Y-110798239D01*
X76395968Y-110798241D01*
X76391390Y-110800719D01*
X76387284Y-110803914D01*
X76387279Y-110803918D01*
X76214400Y-110938476D01*
X76210286Y-110941678D01*
X76206765Y-110945502D01*
X76206756Y-110945511D01*
X76058381Y-111106690D01*
X76058378Y-111106693D01*
X76054853Y-111110523D01*
X76052005Y-111114881D01*
X76052002Y-111114886D01*
X75932183Y-111298283D01*
X75929331Y-111302649D01*
X75927238Y-111307419D01*
X75927236Y-111307424D01*
X75839235Y-111508044D01*
X75839232Y-111508052D01*
X75837143Y-111512815D01*
X75835866Y-111517854D01*
X75835865Y-111517860D01*
X75782084Y-111730237D01*
X75782081Y-111730249D01*
X75780806Y-111735288D01*
X75780376Y-111740470D01*
X75780375Y-111740480D01*
X75769743Y-111868797D01*
X75761854Y-111964000D01*
X75762284Y-111969189D01*
X75780368Y-112187436D01*
X75780806Y-112192712D01*
X75782083Y-112197756D01*
X75782085Y-112197766D01*
X75812933Y-112319585D01*
X75812267Y-112383965D01*
X75779883Y-112439610D01*
X75557842Y-112661651D01*
X75549559Y-112669188D01*
X75543082Y-112673300D01*
X75528234Y-112689111D01*
X75496470Y-112722936D01*
X75493721Y-112725772D01*
X75476767Y-112742727D01*
X75476760Y-112742734D01*
X75473965Y-112745530D01*
X75471542Y-112748652D01*
X75471526Y-112748671D01*
X75471465Y-112748751D01*
X75463790Y-112757735D01*
X75438938Y-112784202D01*
X75438935Y-112784204D01*
X75433514Y-112789979D01*
X75429700Y-112796914D01*
X75429692Y-112796927D01*
X75423750Y-112807736D01*
X75412903Y-112824249D01*
X75405343Y-112833995D01*
X75405337Y-112834004D01*
X75400486Y-112840259D01*
X75397342Y-112847523D01*
X75397338Y-112847531D01*
X75382924Y-112880840D01*
X75377704Y-112891495D01*
X75360225Y-112923289D01*
X75360221Y-112923297D01*
X75356405Y-112930240D01*
X75354433Y-112937916D01*
X75354431Y-112937924D01*
X75351366Y-112949862D01*
X75344965Y-112968559D01*
X75340068Y-112979876D01*
X75340066Y-112979881D01*
X75336919Y-112987155D01*
X75335679Y-112994980D01*
X75335677Y-112994989D01*
X75330001Y-113030824D01*
X75327595Y-113042444D01*
X75318571Y-113077589D01*
X75318569Y-113077597D01*
X75316600Y-113085270D01*
X75316600Y-113093199D01*
X75316600Y-113105524D01*
X75315049Y-113125235D01*
X75313119Y-113137414D01*
X75313118Y-113137421D01*
X75311880Y-113145243D01*
X75312625Y-113153126D01*
X75312625Y-113153134D01*
X75316041Y-113189261D01*
X75316600Y-113201119D01*
X75316600Y-135121333D01*
X75316072Y-135132516D01*
X75314398Y-135140009D01*
X75314647Y-135147933D01*
X75314647Y-135147935D01*
X75316538Y-135208086D01*
X75316600Y-135212045D01*
X75316600Y-135239956D01*
X75317095Y-135243874D01*
X75317097Y-135243906D01*
X75317108Y-135243988D01*
X75318037Y-135255797D01*
X75319177Y-135292069D01*
X75319178Y-135292076D01*
X75319427Y-135299989D01*
X75321637Y-135307598D01*
X75321638Y-135307600D01*
X75325078Y-135319442D01*
X75329086Y-135338793D01*
X75331626Y-135358897D01*
X75334544Y-135366269D01*
X75334545Y-135366270D01*
X75347900Y-135400001D01*
X75351745Y-135411230D01*
X75361871Y-135446086D01*
X75361873Y-135446092D01*
X75364082Y-135453693D01*
X75368114Y-135460511D01*
X75368115Y-135460513D01*
X75374393Y-135471129D01*
X75383090Y-135488882D01*
X75390548Y-135507717D01*
X75395207Y-135514130D01*
X75395208Y-135514131D01*
X75416532Y-135543481D01*
X75423048Y-135553401D01*
X75441522Y-135584638D01*
X75445558Y-135591462D01*
X75451162Y-135597066D01*
X75451163Y-135597067D01*
X75459878Y-135605782D01*
X75472718Y-135620815D01*
X75478926Y-135629360D01*
X75484628Y-135637207D01*
X75490735Y-135642259D01*
X75490736Y-135642260D01*
X75518698Y-135665392D01*
X75527478Y-135673382D01*
X76856342Y-137002246D01*
X76863884Y-137010533D01*
X76868000Y-137017018D01*
X76873779Y-137022444D01*
X76873780Y-137022446D01*
X76917667Y-137063658D01*
X76920509Y-137066413D01*
X76940231Y-137086135D01*
X76943359Y-137088561D01*
X76943360Y-137088562D01*
X76943414Y-137088604D01*
X76952446Y-137096317D01*
X76984679Y-137126586D01*
X76991630Y-137130407D01*
X77002423Y-137136340D01*
X77018955Y-137147199D01*
X77034959Y-137159614D01*
X77042236Y-137162763D01*
X77042238Y-137162764D01*
X77075535Y-137177172D01*
X77086200Y-137182397D01*
X77124940Y-137203695D01*
X77144560Y-137208732D01*
X77163252Y-137215130D01*
X77181855Y-137223181D01*
X77225525Y-137230097D01*
X77237125Y-137232498D01*
X77279970Y-137243500D01*
X77300224Y-137243500D01*
X77319934Y-137245050D01*
X77339943Y-137248220D01*
X77383961Y-137244058D01*
X77395819Y-137243500D01*
X78992962Y-137243500D01*
X79052931Y-137258686D01*
X79098444Y-137300583D01*
X79194278Y-137447268D01*
X79225495Y-137481178D01*
X79343227Y-137609069D01*
X79343231Y-137609073D01*
X79346760Y-137612906D01*
X79524424Y-137751189D01*
X79529002Y-137753666D01*
X79529009Y-137753671D01*
X79545668Y-137762686D01*
X79593403Y-137808109D01*
X79611683Y-137871416D01*
X79595507Y-137935293D01*
X79549301Y-137982270D01*
X79485700Y-137999500D01*
X75890930Y-137999500D01*
X75878578Y-137998893D01*
X75854244Y-137996496D01*
X75852491Y-137996311D01*
X75716452Y-137980986D01*
X75693983Y-137976353D01*
X75660897Y-137966317D01*
X75635143Y-137958505D01*
X75630111Y-137956862D01*
X75536597Y-137924140D01*
X75518818Y-137916334D01*
X75458555Y-137884124D01*
X75450913Y-137879688D01*
X75372625Y-137830496D01*
X75359729Y-137821209D01*
X75305269Y-137776516D01*
X75296106Y-137768211D01*
X75231787Y-137703892D01*
X75223482Y-137694729D01*
X75178789Y-137640269D01*
X75169502Y-137627373D01*
X75144467Y-137587530D01*
X75120301Y-137549069D01*
X75115887Y-137541465D01*
X75083662Y-137481177D01*
X75075856Y-137463397D01*
X75075720Y-137463009D01*
X75064069Y-137429712D01*
X75057000Y-137388100D01*
X75057000Y-109429189D01*
X76219986Y-109429189D01*
X76238070Y-109647436D01*
X76239779Y-109657679D01*
X76293540Y-109869976D01*
X76296910Y-109879792D01*
X76384878Y-110080338D01*
X76389821Y-110089473D01*
X76458834Y-110195105D01*
X76466925Y-110202949D01*
X76476459Y-110196929D01*
X77237659Y-109435730D01*
X77244432Y-109423999D01*
X77972767Y-109423999D01*
X77979539Y-109435729D01*
X78344056Y-109800246D01*
X78372452Y-109843824D01*
X78426594Y-109983579D01*
X78426596Y-109983583D01*
X78428702Y-109989019D01*
X78431767Y-109993969D01*
X78431770Y-109993975D01*
X78491051Y-110089716D01*
X78540948Y-110170302D01*
X78544866Y-110174600D01*
X78544870Y-110174605D01*
X78680667Y-110323566D01*
X78680670Y-110323568D01*
X78684593Y-110327872D01*
X78689244Y-110331384D01*
X78845680Y-110449521D01*
X78854745Y-110456366D01*
X78937479Y-110497562D01*
X79012112Y-110534725D01*
X79045611Y-110551405D01*
X79250690Y-110609756D01*
X79409806Y-110624500D01*
X79513281Y-110624500D01*
X79516194Y-110624500D01*
X79675310Y-110609756D01*
X79880389Y-110551405D01*
X80071255Y-110456366D01*
X80241407Y-110327872D01*
X80385052Y-110170302D01*
X80497298Y-109989019D01*
X80574321Y-109790198D01*
X80613500Y-109580610D01*
X80613500Y-109367390D01*
X80574321Y-109157802D01*
X80504612Y-108977860D01*
X80499403Y-108964414D01*
X80499401Y-108964411D01*
X80497298Y-108958981D01*
X80385052Y-108777698D01*
X80381132Y-108773398D01*
X80381129Y-108773394D01*
X80245332Y-108624433D01*
X80245329Y-108624430D01*
X80241407Y-108620128D01*
X80217100Y-108601772D01*
X80075905Y-108495145D01*
X80075900Y-108495142D01*
X80071255Y-108491634D01*
X80066042Y-108489038D01*
X80066040Y-108489037D01*
X79885600Y-108399189D01*
X79885593Y-108399186D01*
X79880389Y-108396595D01*
X79874791Y-108395002D01*
X79874788Y-108395001D01*
X79680909Y-108339837D01*
X79680908Y-108339836D01*
X79675310Y-108338244D01*
X79669515Y-108337707D01*
X79519089Y-108323768D01*
X79519083Y-108323767D01*
X79516194Y-108323500D01*
X79409806Y-108323500D01*
X79406917Y-108323767D01*
X79406910Y-108323768D01*
X79256484Y-108337707D01*
X79256482Y-108337707D01*
X79250690Y-108338244D01*
X79245093Y-108339836D01*
X79245090Y-108339837D01*
X79051211Y-108395001D01*
X79051204Y-108395003D01*
X79045611Y-108396595D01*
X79040410Y-108399184D01*
X79040399Y-108399189D01*
X78859959Y-108489037D01*
X78859952Y-108489040D01*
X78854745Y-108491634D01*
X78850103Y-108495139D01*
X78850094Y-108495145D01*
X78689244Y-108616615D01*
X78689239Y-108616619D01*
X78684593Y-108620128D01*
X78680675Y-108624425D01*
X78680667Y-108624433D01*
X78544870Y-108773394D01*
X78544862Y-108773404D01*
X78540948Y-108777698D01*
X78537884Y-108782645D01*
X78537882Y-108782649D01*
X78429688Y-108957387D01*
X78411657Y-108980151D01*
X77979538Y-109412271D01*
X77972767Y-109423999D01*
X77244432Y-109423999D01*
X77237660Y-109412270D01*
X76476460Y-108651070D01*
X76466926Y-108645049D01*
X76458832Y-108652896D01*
X76389824Y-108758522D01*
X76384877Y-108767663D01*
X76296910Y-108968207D01*
X76293540Y-108978023D01*
X76239779Y-109190320D01*
X76238070Y-109200563D01*
X76219986Y-109418811D01*
X76219986Y-109429189D01*
X75057000Y-109429189D01*
X75057000Y-106884000D01*
X75761854Y-106884000D01*
X75762284Y-106889189D01*
X75780375Y-107107519D01*
X75780376Y-107107527D01*
X75780806Y-107112712D01*
X75782082Y-107117752D01*
X75782084Y-107117762D01*
X75824571Y-107285538D01*
X75837143Y-107335185D01*
X75929331Y-107545351D01*
X76054853Y-107737477D01*
X76058381Y-107741309D01*
X76206756Y-107902488D01*
X76206759Y-107902491D01*
X76210286Y-107906322D01*
X76391390Y-108047281D01*
X76593226Y-108156509D01*
X76598155Y-108158201D01*
X76598157Y-108158202D01*
X76630396Y-108169269D01*
X76754944Y-108212026D01*
X76795131Y-108234769D01*
X76824427Y-108270467D01*
X76836838Y-108293028D01*
X77596870Y-109053060D01*
X77608599Y-109059832D01*
X77620330Y-109053059D01*
X78380363Y-108293025D01*
X78387129Y-108280725D01*
X78378892Y-108269355D01*
X78372445Y-108264338D01*
X78363754Y-108258660D01*
X78171158Y-108154432D01*
X78161641Y-108150257D01*
X78116401Y-108134727D01*
X78061164Y-108096987D01*
X78033031Y-108036291D01*
X78039934Y-107969749D01*
X78079924Y-107916120D01*
X78092514Y-107906322D01*
X78247947Y-107737477D01*
X78301799Y-107655051D01*
X81007160Y-107655051D01*
X81010365Y-107668751D01*
X81024137Y-107671620D01*
X81064699Y-107668428D01*
X81074444Y-107666884D01*
X81295626Y-107613783D01*
X81305012Y-107610733D01*
X81515162Y-107523686D01*
X81523957Y-107519205D01*
X81717899Y-107400357D01*
X81725882Y-107394557D01*
X81898858Y-107246821D01*
X81905821Y-107239858D01*
X82053557Y-107066882D01*
X82059357Y-107058899D01*
X82178205Y-106864957D01*
X82182686Y-106856162D01*
X82269733Y-106646012D01*
X82272783Y-106636627D01*
X82300424Y-106521491D01*
X82300610Y-106510290D01*
X82289827Y-106507269D01*
X81089455Y-106442260D01*
X81076202Y-106445053D01*
X81071995Y-106457925D01*
X81007160Y-107655051D01*
X78301799Y-107655051D01*
X78373469Y-107545351D01*
X78465657Y-107335185D01*
X78521994Y-107112712D01*
X78540946Y-106884000D01*
X78521994Y-106655288D01*
X78465657Y-106432815D01*
X78435971Y-106365138D01*
X79335379Y-106365138D01*
X79338571Y-106405700D01*
X79340113Y-106415438D01*
X79393216Y-106636626D01*
X79396266Y-106646012D01*
X79483313Y-106856162D01*
X79487794Y-106864957D01*
X79606642Y-107058899D01*
X79612442Y-107066882D01*
X79760178Y-107239858D01*
X79767141Y-107246821D01*
X79940117Y-107394557D01*
X79948100Y-107400357D01*
X80142042Y-107519205D01*
X80150837Y-107523686D01*
X80360987Y-107610733D01*
X80370373Y-107613783D01*
X80485507Y-107641424D01*
X80496708Y-107641610D01*
X80499729Y-107630827D01*
X80564738Y-106430455D01*
X80561945Y-106417202D01*
X80549073Y-106412995D01*
X79351947Y-106348160D01*
X79338247Y-106351365D01*
X79335379Y-106365138D01*
X78435971Y-106365138D01*
X78373469Y-106222649D01*
X78247947Y-106030523D01*
X78152101Y-105926407D01*
X78143941Y-105917543D01*
X81101260Y-105917543D01*
X81104053Y-105930796D01*
X81116925Y-105935003D01*
X82314051Y-105999838D01*
X82327751Y-105996633D01*
X82330620Y-105982861D01*
X82327428Y-105942300D01*
X82325884Y-105932555D01*
X82272783Y-105711373D01*
X82269733Y-105701987D01*
X82182686Y-105491837D01*
X82178205Y-105483042D01*
X82059357Y-105289100D01*
X82053557Y-105281117D01*
X81905821Y-105108141D01*
X81898858Y-105101178D01*
X81725882Y-104953442D01*
X81717899Y-104947642D01*
X81523957Y-104828794D01*
X81515162Y-104824313D01*
X81305010Y-104737265D01*
X81295624Y-104734216D01*
X81180493Y-104706575D01*
X81169291Y-104706389D01*
X81166269Y-104717175D01*
X81101260Y-105917543D01*
X78143941Y-105917543D01*
X78096043Y-105865511D01*
X78096039Y-105865508D01*
X78092514Y-105861678D01*
X78061716Y-105837707D01*
X79365389Y-105837707D01*
X79376175Y-105840729D01*
X80576543Y-105905738D01*
X80589796Y-105902945D01*
X80594003Y-105890073D01*
X80658838Y-104692947D01*
X80655633Y-104679247D01*
X80641860Y-104676379D01*
X80601299Y-104679571D01*
X80591561Y-104681113D01*
X80370373Y-104734216D01*
X80360987Y-104737266D01*
X80150837Y-104824313D01*
X80142042Y-104828794D01*
X79948100Y-104947642D01*
X79940117Y-104953442D01*
X79767141Y-105101178D01*
X79760178Y-105108141D01*
X79612442Y-105281117D01*
X79606642Y-105289100D01*
X79487794Y-105483042D01*
X79483313Y-105491837D01*
X79396265Y-105701989D01*
X79393216Y-105711375D01*
X79365575Y-105826505D01*
X79365389Y-105837707D01*
X78061716Y-105837707D01*
X77911410Y-105720719D01*
X77827542Y-105675332D01*
X77714159Y-105613972D01*
X77714156Y-105613970D01*
X77709574Y-105611491D01*
X77704650Y-105609800D01*
X77704642Y-105609797D01*
X77497440Y-105538665D01*
X77497435Y-105538663D01*
X77492513Y-105536974D01*
X77487378Y-105536117D01*
X77487370Y-105536115D01*
X77271288Y-105500057D01*
X77271279Y-105500056D01*
X77266148Y-105499200D01*
X77036652Y-105499200D01*
X77031521Y-105500056D01*
X77031511Y-105500057D01*
X76815429Y-105536115D01*
X76815418Y-105536117D01*
X76810287Y-105536974D01*
X76805367Y-105538662D01*
X76805359Y-105538665D01*
X76598157Y-105609797D01*
X76598144Y-105609802D01*
X76593226Y-105611491D01*
X76588647Y-105613968D01*
X76588640Y-105613972D01*
X76395972Y-105718239D01*
X76395968Y-105718241D01*
X76391390Y-105720719D01*
X76387284Y-105723914D01*
X76387279Y-105723918D01*
X76239471Y-105838962D01*
X76210286Y-105861678D01*
X76206765Y-105865502D01*
X76206756Y-105865511D01*
X76058381Y-106026690D01*
X76058378Y-106026693D01*
X76054853Y-106030523D01*
X76052005Y-106034881D01*
X76052002Y-106034886D01*
X75950299Y-106190555D01*
X75929331Y-106222649D01*
X75927238Y-106227419D01*
X75927236Y-106227424D01*
X75839235Y-106428044D01*
X75839232Y-106428052D01*
X75837143Y-106432815D01*
X75835866Y-106437854D01*
X75835865Y-106437860D01*
X75782084Y-106650237D01*
X75782081Y-106650249D01*
X75780806Y-106655288D01*
X75780376Y-106660470D01*
X75780375Y-106660480D01*
X75768049Y-106809235D01*
X75761854Y-106884000D01*
X75057000Y-106884000D01*
X75057000Y-100611900D01*
X75064069Y-100570290D01*
X75075861Y-100536587D01*
X75083652Y-100518840D01*
X75115907Y-100458496D01*
X75120285Y-100450954D01*
X75169507Y-100372617D01*
X75178789Y-100359729D01*
X75223491Y-100305258D01*
X75231767Y-100296127D01*
X75296127Y-100231767D01*
X75305258Y-100223491D01*
X75359733Y-100178785D01*
X75372617Y-100169507D01*
X75450954Y-100120285D01*
X75458508Y-100115900D01*
X75518830Y-100083658D01*
X75536591Y-100075860D01*
X75630178Y-100043114D01*
X75635057Y-100041520D01*
X75694001Y-100023641D01*
X75716435Y-100019015D01*
X75852551Y-100003681D01*
X75854157Y-100003511D01*
X75873438Y-100001612D01*
X75882466Y-100000724D01*
X75894811Y-100000118D01*
X94104813Y-100000118D01*
X94117163Y-100000725D01*
G37*
%TD.AperFunction*%
%TA.AperFunction,Conductor*%
G36*
X88051982Y-116438457D02*
G01*
X88098476Y-116492008D01*
X88108666Y-116562076D01*
X88104616Y-116573632D01*
X88109992Y-116584813D01*
X88109993Y-116584816D01*
X88112266Y-116589542D01*
X88116232Y-116598703D01*
X88118130Y-116603613D01*
X88118131Y-116603615D01*
X88122606Y-116615190D01*
X88133959Y-116620211D01*
X88134593Y-116620657D01*
X88146125Y-116629819D01*
X88257519Y-116729487D01*
X88288526Y-116771956D01*
X88299500Y-116823385D01*
X88299500Y-117000701D01*
X88288786Y-117051545D01*
X87454434Y-118943388D01*
X87451885Y-118942264D01*
X87451656Y-118942854D01*
X87453694Y-118943698D01*
X87444909Y-118964903D01*
X87444215Y-118966524D01*
X87444202Y-118966585D01*
X87439788Y-118976598D01*
X87439771Y-118977308D01*
X87439500Y-118977965D01*
X87439500Y-118988920D01*
X87439487Y-118988978D01*
X87439468Y-118990708D01*
X87438947Y-119013682D01*
X87436746Y-119013632D01*
X87436719Y-119014261D01*
X87439500Y-119014261D01*
X87439500Y-122994938D01*
X87437816Y-123012028D01*
X87434515Y-123020000D01*
X87439500Y-123032035D01*
X87453695Y-123066305D01*
X87500000Y-123085485D01*
X87507971Y-123082183D01*
X87525062Y-123080500D01*
X89517952Y-123080500D01*
X89577752Y-123095595D01*
X89623223Y-123137262D01*
X89643473Y-123195518D01*
X89633647Y-123256406D01*
X89596102Y-123305336D01*
X89539832Y-123330586D01*
X89529687Y-123332374D01*
X89319238Y-123388764D01*
X89308946Y-123392510D01*
X89111489Y-123484586D01*
X89101993Y-123490068D01*
X88923533Y-123615028D01*
X88915124Y-123622084D01*
X88761084Y-123776124D01*
X88754028Y-123784533D01*
X88629068Y-123962993D01*
X88623586Y-123972489D01*
X88531510Y-124169946D01*
X88527764Y-124180238D01*
X88480669Y-124355998D01*
X88480296Y-124367408D01*
X88491411Y-124370000D01*
X90191000Y-124370000D01*
X90254000Y-124386881D01*
X90300119Y-124433000D01*
X90317000Y-124496000D01*
X90317000Y-124752000D01*
X90300119Y-124815000D01*
X90254000Y-124861119D01*
X90191000Y-124878000D01*
X88491411Y-124878000D01*
X88478414Y-124881030D01*
X88462513Y-124894079D01*
X88450548Y-124909281D01*
X88395587Y-124933909D01*
X88335473Y-124930213D01*
X88283942Y-124899038D01*
X87880904Y-124496000D01*
X86437364Y-123052459D01*
X86405190Y-122997565D01*
X86403940Y-122933950D01*
X86457535Y-122710711D01*
X86476165Y-122474000D01*
X86457535Y-122237289D01*
X86402105Y-122006406D01*
X86311240Y-121787037D01*
X86187176Y-121584584D01*
X86032969Y-121404031D01*
X85881760Y-121274886D01*
X85856175Y-121253034D01*
X85856171Y-121253031D01*
X85852416Y-121249824D01*
X85649963Y-121125760D01*
X85584098Y-121098478D01*
X85435167Y-121036789D01*
X85435164Y-121036788D01*
X85430594Y-121034895D01*
X85425786Y-121033740D01*
X85425781Y-121033739D01*
X85204523Y-120980620D01*
X85204519Y-120980619D01*
X85199711Y-120979465D01*
X85194785Y-120979077D01*
X85194777Y-120979076D01*
X84967930Y-120961223D01*
X84963000Y-120960835D01*
X84958070Y-120961223D01*
X84731222Y-120979076D01*
X84731212Y-120979077D01*
X84726289Y-120979465D01*
X84721482Y-120980619D01*
X84721476Y-120980620D01*
X84500218Y-121033739D01*
X84500209Y-121033741D01*
X84495406Y-121034895D01*
X84490838Y-121036786D01*
X84490832Y-121036789D01*
X84280611Y-121123865D01*
X84280606Y-121123867D01*
X84276037Y-121125760D01*
X84271817Y-121128345D01*
X84271817Y-121128346D01*
X84077798Y-121247241D01*
X84077792Y-121247245D01*
X84073584Y-121249824D01*
X84069834Y-121253026D01*
X84069824Y-121253034D01*
X83896786Y-121400823D01*
X83896779Y-121400829D01*
X83893031Y-121404031D01*
X83889829Y-121407779D01*
X83889823Y-121407786D01*
X83742034Y-121580824D01*
X83742026Y-121580834D01*
X83738824Y-121584584D01*
X83736245Y-121588792D01*
X83736241Y-121588798D01*
X83681664Y-121677860D01*
X83614760Y-121787037D01*
X83612867Y-121791606D01*
X83612865Y-121791611D01*
X83525789Y-122001832D01*
X83525786Y-122001838D01*
X83523895Y-122006406D01*
X83522741Y-122011209D01*
X83522739Y-122011218D01*
X83495663Y-122124000D01*
X83468465Y-122237289D01*
X83468077Y-122242212D01*
X83468076Y-122242222D01*
X83458983Y-122357762D01*
X83449835Y-122474000D01*
X83450223Y-122478930D01*
X83468076Y-122705777D01*
X83468077Y-122705785D01*
X83468465Y-122710711D01*
X83469619Y-122715519D01*
X83469620Y-122715523D01*
X83522739Y-122936781D01*
X83522740Y-122936786D01*
X83523895Y-122941594D01*
X83525788Y-122946164D01*
X83525789Y-122946167D01*
X83583496Y-123085484D01*
X83614760Y-123160963D01*
X83738824Y-123363416D01*
X83742031Y-123367171D01*
X83742034Y-123367175D01*
X83840881Y-123482909D01*
X83893031Y-123543969D01*
X83896786Y-123547176D01*
X83988884Y-123625836D01*
X84027159Y-123683560D01*
X84029143Y-123752792D01*
X83994238Y-123812613D01*
X83911745Y-123891675D01*
X83911735Y-123891685D01*
X83907882Y-123895379D01*
X83904706Y-123899672D01*
X83904700Y-123899680D01*
X83769303Y-124082749D01*
X83769296Y-124082758D01*
X83766121Y-124087053D01*
X83763716Y-124091822D01*
X83763711Y-124091831D01*
X83661201Y-124295148D01*
X83661197Y-124295157D01*
X83658793Y-124299926D01*
X83657228Y-124305033D01*
X83657225Y-124305043D01*
X83598746Y-124496000D01*
X83588984Y-124527877D01*
X83588304Y-124533181D01*
X83588304Y-124533185D01*
X83559381Y-124759037D01*
X83559380Y-124759047D01*
X83558702Y-124764346D01*
X83558929Y-124769691D01*
X83558929Y-124769693D01*
X83568592Y-124997179D01*
X83568592Y-124997186D01*
X83568820Y-125002532D01*
X83569947Y-125007765D01*
X83569948Y-125007766D01*
X83617917Y-125230345D01*
X83617918Y-125230351D01*
X83619046Y-125235581D01*
X83621041Y-125240547D01*
X83621044Y-125240555D01*
X83637854Y-125282388D01*
X83645663Y-125347259D01*
X83619932Y-125407320D01*
X83567580Y-125446417D01*
X83546762Y-125454712D01*
X83546756Y-125454714D01*
X83543583Y-125455979D01*
X83540579Y-125457571D01*
X83540563Y-125457579D01*
X83258519Y-125607110D01*
X83196088Y-125621741D01*
X83134540Y-125603751D01*
X83089817Y-125557799D01*
X83073500Y-125495787D01*
X83073500Y-121154594D01*
X83083091Y-121106376D01*
X83110405Y-121065499D01*
X87720499Y-116455405D01*
X87761376Y-116428091D01*
X87809594Y-116418500D01*
X87983931Y-116418500D01*
X88051982Y-116438457D01*
G37*
%TD.AperFunction*%
%TD*%
M02*
