<?xml version="1.0" encoding="UTF-8" standalone="no"?>
<!-- Created with Inkscape (http://www.inkscape.org/) -->

<svg
   width="3.2576807mm"
   height="7.1653333mm"
   viewBox="0 0 3.2576809 7.1653333"
   version="1.1"
   id="svg5"
   inkscape:version="1.2.1 (9c6d41e, 2022-07-14)"
   sodipodi:docname="Milk_mask_v1.svg"
   xml:space="preserve"
   xmlns:inkscape="http://www.inkscape.org/namespaces/inkscape"
   xmlns:sodipodi="http://sodipodi.sourceforge.net/DTD/sodipodi-0.dtd"
   xmlns="http://www.w3.org/2000/svg"
   xmlns:svg="http://www.w3.org/2000/svg"><sodipodi:namedview
     id="namedview7"
     pagecolor="#ffffff"
     bordercolor="#000000"
     borderopacity="0.25"
     inkscape:showpageshadow="2"
     inkscape:pageopacity="0.0"
     inkscape:pagecheckerboard="0"
     inkscape:deskcolor="#d1d1d1"
     inkscape:document-units="mm"
     showgrid="false"
     inkscape:zoom="21.14609"
     inkscape:cx="-6.8334145"
     inkscape:cy="9.7890436"
     inkscape:window-width="2560"
     inkscape:window-height="1306"
     inkscape:window-x="1728"
     inkscape:window-y="332"
     inkscape:window-maximized="0"
     inkscape:current-layer="layer1" /><defs
     id="defs2"><rect
       x="184.18355"
       y="298.1355"
       width="26.201197"
       height="20.309803"
       id="rect123" /><rect
       x="126.78898"
       y="327.90253"
       width="84.161652"
       height="111.48686"
       id="rect117" /></defs><g
     inkscape:label="Layer 1"
     inkscape:groupmode="layer"
     id="layer1"
     transform="translate(-47.612411,-73.395989)"><g
       transform="scale(0.26458333)"
       id="text115"
       style="white-space:pre;shape-inside:url(#rect117);stroke:#000000;stroke-dasharray:1, 3" /><g
       id="text129"
       style="font-size:3.175px;font-family:Lobster;-inkscape-font-specification:'Lobster, Normal';stroke:#000000;stroke-width:0.264583;stroke-dasharray:0.264583, 0.79375" /><g
       style="fill:#000000;fill-opacity:0"
       id="g1325"
       transform="matrix(-0.01524539,0,0,0.01524539,52.82391,73.395989)"><g
         id="g1312"
         style="fill:#000000;fill-opacity:0"><path
           style="fill:#000000;fill-opacity:0"
           d="m 326.841,442.5 c 0,6.893 -5.607,12.5 -12.5,12.5 H 155.659 c -6.893,0 -12.5,-5.607 -12.5,-12.5 V 196.874 c 0,-9.874 3.758,-25.661 8.207,-34.476 l 10.736,-21.271 c 4.305,0.797 6.999,2.802 10.415,5.355 5.195,3.885 11.662,8.72 23.82,8.72 12.158,0 18.625,-4.835 23.82,-8.72 4.451,-3.328 7.667,-5.732 14.838,-5.732 7.172,0 10.389,2.404 14.841,5.733 5.196,3.885 11.663,8.719 23.822,8.719 12.16,0 18.626,-4.835 23.823,-8.719 3.416,-2.554 6.111,-4.559 10.417,-5.356 l 10.736,21.272 c 4.448,8.813 8.207,24.601 8.207,34.475 z"
           id="path1679" /></g></g></g></svg>
