<?xml version="1.0" encoding="UTF-8" standalone="no"?>
<!-- Created with Inkscape (http://www.inkscape.org/) -->

<svg
   width="3.2576807mm"
   height="7.1653333mm"
   viewBox="0 0 3.2576809 7.1653333"
   version="1.1"
   id="svg5"
   inkscape:version="1.2.1 (9c6d41e, 2022-07-14)"
   sodipodi:docname="milk_nosilk_v2.svg"
   xml:space="preserve"
   xmlns:inkscape="http://www.inkscape.org/namespaces/inkscape"
   xmlns:sodipodi="http://sodipodi.sourceforge.net/DTD/sodipodi-0.dtd"
   xmlns="http://www.w3.org/2000/svg"
   xmlns:svg="http://www.w3.org/2000/svg"><sodipodi:namedview
     id="namedview7"
     pagecolor="#ffffff"
     bordercolor="#000000"
     borderopacity="0.25"
     inkscape:showpageshadow="2"
     inkscape:pageopacity="0.0"
     inkscape:pagecheckerboard="0"
     inkscape:deskcolor="#d1d1d1"
     inkscape:document-units="mm"
     showgrid="false"
     inkscape:zoom="21.14609"
     inkscape:cx="-8.4649217"
     inkscape:cy="9.8126886"
     inkscape:window-width="1390"
     inkscape:window-height="1205"
     inkscape:window-x="1945"
     inkscape:window-y="343"
     inkscape:window-maximized="0"
     inkscape:current-layer="layer1" /><defs
     id="defs2"><rect
       x="184.18355"
       y="298.1355"
       width="26.201197"
       height="20.309803"
       id="rect123" /><rect
       x="126.78898"
       y="327.90253"
       width="84.161652"
       height="111.48686"
       id="rect117" /></defs><g
     inkscape:label="Layer 1"
     inkscape:groupmode="layer"
     id="layer1"
     transform="translate(-47.612411,-73.395989)"><g
       transform="scale(0.26458333)"
       id="text115"
       style="white-space:pre;shape-inside:url(#rect117);stroke:#000000;stroke-dasharray:1, 3" /><g
       id="text129"
       style="font-size:3.175px;font-family:Lobster;-inkscape-font-specification:'Lobster, Normal';stroke:#000000;stroke-width:0.264583;stroke-dasharray:0.264583, 0.79375" /><g
       style="fill:#000000;fill-opacity:0"
       id="g1325"
       transform="matrix(-0.01524539,0,0,0.01524539,52.82391,73.395989)"><g
         id="g1312"
         style="fill:#000000;fill-opacity:0"><path
           style="fill:#000000;fill-opacity:0"
           d="m 197.556,70.879 c 0.529,-1.048 0.804,-2.205 0.804,-3.379 V 45 h 73.279 v 22.5 c 0,1.174 0.275,2.331 0.804,3.379 l 28.543,56.553 c -5.411,1.754 -9.204,4.583 -12.487,7.037 -4.452,3.329 -7.669,5.733 -14.841,5.733 -7.172,0 -10.389,-2.404 -14.841,-5.733 -5.196,-3.884 -11.663,-8.719 -23.823,-8.719 -12.159,0 -18.625,4.835 -23.821,8.72 -4.451,3.328 -7.667,5.732 -14.838,5.732 -7.171,0 -10.387,-2.404 -14.838,-5.732 -3.282,-2.454 -7.075,-5.283 -12.485,-7.037 z"
           id="path1677" /><path
           style="fill:#000000;fill-opacity:0"
           d="m 188.36,15 h 93.279 V 30 H 188.36 Z"
           id="path1675" /><path
           style="fill:#000000;fill-opacity:0"
           d="M 332.026,155.641 286.64,65.715 V 45 h 2.5 c 4.142,0 7.5,-3.357 7.5,-7.5 v -30 c 0,-4.143 -3.358,-7.5 -7.5,-7.5 H 180.86 c -4.142,0 -7.5,3.357 -7.5,7.5 v 30 c 0,4.143 3.358,7.5 7.5,7.5 h 2.5 v 20.715 l -45.386,89.926 c -5.504,10.905 -9.816,29.017 -9.816,41.233 V 442.5 c 0,15.163 12.336,27.5 27.5,27.5 h 158.683 c 15.164,0 27.5,-12.337 27.5,-27.5 V 196.874 c 0,-12.217 -4.311,-30.328 -9.815,-41.233 z"
           id="path1304" /></g></g></g></svg>
