<?xml version="1.0" encoding="UTF-8" standalone="no"?>
<!-- Created with Inkscape (http://www.inkscape.org/) -->

<svg
   width="3.2576807mm"
   height="7.1653333mm"
   viewBox="0 0 3.2576807 7.1653333"
   version="1.1"
   id="svg2000"
   inkscape:version="1.2.1 (9c6d41e, 2022-07-14)"
   sodipodi:docname="milk_nosilk_v3.svg"
   xmlns:inkscape="http://www.inkscape.org/namespaces/inkscape"
   xmlns:sodipodi="http://sodipodi.sourceforge.net/DTD/sodipodi-0.dtd"
   xmlns="http://www.w3.org/2000/svg"
   xmlns:svg="http://www.w3.org/2000/svg">
  <sodipodi:namedview
     id="namedview2002"
     pagecolor="#ffffff"
     bordercolor="#000000"
     borderopacity="0.25"
     inkscape:showpageshadow="2"
     inkscape:pageopacity="0.0"
     inkscape:pagecheckerboard="0"
     inkscape:deskcolor="#d1d1d1"
     inkscape:document-units="mm"
     showgrid="false"
     inkscape:zoom="27.9534"
     inkscape:cx="4.1318766"
     inkscape:cy="11.787475"
     inkscape:window-width="1390"
     inkscape:window-height="1205"
     inkscape:window-x="2240"
     inkscape:window-y="332"
     inkscape:window-maximized="0"
     inkscape:current-layer="layer1" />
  <defs
     id="defs1997" />
  <g
     inkscape:label="Layer 1"
     inkscape:groupmode="layer"
     id="layer1"
     transform="translate(-58.089271,-144.91733)">
    <g
       style="fill:#000000"
       id="g1325"
       transform="matrix(-0.01524539,0,0,0.01524539,63.30077,144.91733)">
      <g
         id="g1312">
        <path
           id="path2041"
           d="M 289.13202 0 C 293.27402 0 296.62314 3.3481198 296.62314 7.4911114 L 296.62314 37.489454 C 296.62314 41.632444 293.27402 45.014461 289.13202 45.014461 L 286.62369 45.014461 L 286.62369 65.725181 L 332.01101 155.65241 C 337.51501 166.55739 341.84098 184.6535 341.84098 196.87048 L 341.84098 442.48402 C 341.84098 457.647 329.51493 470.00792 314.35097 470.00792 L 155.64788 470.00792 C 140.4839 470.00792 128.15787 457.647 128.15787 442.48402 L 128.15787 196.87048 C 128.15787 184.6545 132.48384 166.55739 137.98784 155.65241 L 183.37516 65.725181 L 183.37516 45.014461 L 180.86682 45.014461 C 176.72484 45.014461 173.37571 41.632444 173.37571 37.489454 L 173.37571 7.4911114 C 173.37571 3.3481198 176.72484 6.4226238e-16 180.86682 0 L 289.13202 0 z M 281.64091 15.016119 L 188.35793 15.016119 L 188.35793 29.998342 L 281.64091 29.998342 L 281.64091 15.016119 z M 271.64147 45.014461 L 198.35738 45.014461 L 198.35738 67.487796 C 198.35738 68.661795 198.07287 69.82944 197.54387 70.877439 L 169.00307 127.41669 C 174.41306 129.17069 178.22886 132.01315 181.51085 134.46715 C 185.96185 137.79514 189.1526 140.19564 196.32359 140.19564 C 203.49459 140.19564 206.71924 137.79514 211.17023 134.46715 C 216.36623 130.58215 222.84044 125.75576 234.99942 125.75576 C 247.15941 125.75576 253.63262 130.58315 258.82861 134.46715 C 263.28061 137.79614 266.46936 140.19564 273.64136 140.19564 C 280.81335 140.19564 284.036 137.79614 288.48799 134.46715 C 291.77099 132.01315 295.58478 129.17069 300.99578 127.41669 L 272.45498 70.877439 C 271.92598 69.82944 271.64147 68.661795 271.64147 67.487796 L 271.64147 45.014461 z " />
        <path
           d="m 220.86,75 h 28.279 c 4.142,0 7.5,-3.357 7.5,-7.5 0,-4.143 -3.358,-7.5 -7.5,-7.5 H 220.86 c -4.142,0 -7.5,3.357 -7.5,7.5 0,4.143 3.358,7.5 7.5,7.5 z"
           id="path1310" />
      </g>
    </g>
  </g>
</svg>
